<svg width="149" height="149" viewBox="0 0 149 149" fill="none" xmlns="http://www.w3.org/2000/svg">
<path fill-rule="evenodd" clip-rule="evenodd" d="M75.1008 7.51936C86.1776 8.53211 96.2546 13.3424 105.181 19.9981C114.022 26.5895 122.018 34.6179 125.503 45.0992C129.004 55.6301 129.014 67.5127 124.319 77.5654C119.897 87.0338 110.16 92.2539 101.081 97.3913C92.9907 101.969 84.2206 103.648 75.1008 105.415C63.4732 107.668 51.3357 114.198 40.6382 109.102C29.5543 103.823 22.6591 91.4503 20.3909 79.3551C18.2512 67.9455 25.434 57.5452 28.8917 46.4656C32.4003 35.2232 31.7617 21.686 40.7535 14.1075C49.9016 6.39721 63.2011 6.43138 75.1008 7.51936Z" fill="#FFDE29"/>
<path d="M149 113.955H0V114.03H149V113.955Z" fill="#EBEBEB"/>
<path d="M49.048 118.55H39.1782V118.624H49.048V118.55Z" fill="#EBEBEB"/>
<path d="M77.1345 117.742H74.5449V117.817H77.1345V117.742Z" fill="#EBEBEB"/>
<path d="M21.3519 116.485H15.6333V116.559H21.3519V116.485Z" fill="#EBEBEB"/>
<path d="M123.902 115.984H116.13V116.059H123.902V115.984Z" fill="#EBEBEB"/>
<path d="M113.475 115.984H106.49V116.059H113.475V115.984Z" fill="#EBEBEB"/>
<path d="M134.073 119.561H106.157V119.635H134.073V119.561Z" fill="#EBEBEB"/>
<path d="M70.6261 100.664H13.0853C12.6345 100.663 12.2025 100.484 11.884 100.165C11.5656 99.8456 11.3867 99.4132 11.3867 98.9625V18.0763C11.3906 17.6281 11.5712 17.1996 11.8893 16.8838C12.2073 16.568 12.6371 16.3904 13.0853 16.3896H70.6261C71.0774 16.3896 71.5102 16.5689 71.8293 16.888C72.1485 17.2071 72.3277 17.6399 72.3277 18.0912V98.9625C72.3277 99.4138 72.1485 99.8466 71.8293 100.166C71.5102 100.485 71.0774 100.664 70.6261 100.664V100.664ZM13.0853 16.4492C12.6543 16.45 12.2412 16.6218 11.9367 16.9269C11.6322 17.2319 11.4612 17.6453 11.4612 18.0763V98.9625C11.4612 99.3935 11.6322 99.8069 11.9367 100.112C12.2412 100.417 12.6543 100.589 13.0853 100.59H70.6261C71.0574 100.589 71.4708 100.417 71.7758 100.112C72.0808 99.8072 72.2524 99.3938 72.2532 98.9625V18.0763C72.2524 17.645 72.0808 17.2316 71.7758 16.9267C71.4708 16.6217 71.0574 16.45 70.6261 16.4492H13.0853Z" fill="#EBEBEB"/>
<path d="M135.086 100.664H77.5424C77.0914 100.663 76.659 100.484 76.3401 100.165C76.0211 99.8459 75.8416 99.4135 75.8408 98.9625V18.0763C75.8455 17.6279 76.0268 17.1993 76.3453 16.8836C76.6638 16.5679 77.0939 16.3904 77.5424 16.3896H135.086C135.534 16.3912 135.963 16.5691 136.28 16.8848C136.598 17.2006 136.778 17.6287 136.782 18.0763V98.9625C136.782 99.4127 136.603 99.8446 136.286 100.164C135.968 100.483 135.536 100.662 135.086 100.664V100.664ZM77.5424 16.4492C77.1111 16.45 76.6977 16.6217 76.3927 16.9267C76.0878 17.2316 75.9161 17.645 75.9153 18.0763V98.9625C75.9161 99.3938 76.0878 99.8072 76.3927 100.112C76.6977 100.417 77.1111 100.589 77.5424 100.59H135.086C135.517 100.589 135.931 100.417 136.236 100.112C136.541 99.8072 136.712 99.3938 136.713 98.9625V18.0763C136.712 17.645 136.541 17.2316 136.236 16.9267C135.931 16.6217 135.517 16.45 135.086 16.4492H77.5424Z" fill="#EBEBEB"/>
<path d="M28.2175 66.7188H25.0796V81.6128H28.2175V66.7188Z" fill="#F0F0F0"/>
<path d="M27.7112 67.8662H25.5835V77.9654H27.7112V67.8662Z" fill="#FAFAFA"/>
<path d="M28.2145 81.6162H34.9136V66.7222H28.2145V81.6162Z" fill="#E0E0E0"/>
<path d="M32.0081 66.7188H28.8701V81.6128H32.0081V66.7188Z" fill="#F0F0F0"/>
<path d="M31.5047 67.8662H29.377V77.9654H31.5047V67.8662Z" fill="#FAFAFA"/>
<path d="M32.008 81.6162H38.707V66.7222H32.008V81.6162Z" fill="#E0E0E0"/>
<path d="M36.4034 60.9199H35.2681V113.952H36.4034V60.9199Z" fill="#EBEBEB"/>
<path d="M17.3702 60.9199H16.2349V113.952H17.3702V60.9199Z" fill="#EBEBEB"/>
<path d="M41.2941 60.9199H40.1587V113.952H41.2941V60.9199Z" fill="#EBEBEB"/>
<path d="M22.2604 60.9199H21.125V113.952H22.2604V60.9199Z" fill="#EBEBEB"/>
<path d="M22.97 88.8901H19.832V103.784H22.97V88.8901Z" fill="#F0F0F0"/>
<path d="M22.4661 90.0371H20.3384V100.136H22.4661V90.0371Z" fill="#FAFAFA"/>
<path d="M22.9699 103.787H29.6689L29.6689 88.8931H22.9699V103.787Z" fill="#E0E0E0"/>
<path d="M26.7634 88.8901H23.6255V103.784H26.7634V88.8901Z" fill="#F0F0F0"/>
<path d="M26.2566 90.0371H24.1289V100.136H26.2566V90.0371Z" fill="#FAFAFA"/>
<path d="M26.7604 103.787H33.4595V88.8931H26.7604V103.787Z" fill="#E0E0E0"/>
<path d="M41.2941 59.4443H15.6333V60.9224H41.2941V59.4443Z" fill="#F0F0F0"/>
<path d="M41.2941 81.6162H15.6333V83.0943H41.2941V81.6162Z" fill="#F0F0F0"/>
<path d="M41.2941 103.787H15.6333V105.265H41.2941V103.787Z" fill="#F0F0F0"/>
<path d="M24.1292 47.9985H41.6665V25.9555L24.1292 25.9555L24.1292 47.9985Z" fill="#F0F0F0"/>
<path d="M20.2549 47.9985H40.9927V25.9555L20.2549 25.9555L20.2549 47.9985Z" fill="#F5F5F5"/>
<path d="M21.9956 27.6929V46.2612H39.2587V27.6929H21.9956Z" fill="white"/>
<path d="M30.6254 40.8733C32.7781 40.8733 34.5232 39.1282 34.5232 36.9755C34.5232 34.8228 32.7781 33.0776 30.6254 33.0776C28.4727 33.0776 26.7275 34.8228 26.7275 36.9755C26.7275 39.1282 28.4727 40.8733 30.6254 40.8733Z" fill="#F0F0F0"/>
<path d="M64.5647 61.2925L130.95 61.2925V22.6657L64.5647 22.6657V61.2925Z" fill="#F0F0F0"/>
<path d="M54.9481 61.2925L129.108 61.2925V22.6657L54.9481 22.6657V61.2925Z" fill="#F5F5F5"/>
<path d="M59.2632 25.7109V58.2495L124.793 58.2495V25.7109L59.2632 25.7109Z" fill="white"/>
<path d="M59.2632 25.711V36.0874L124.793 36.0874V25.711L59.2632 25.711Z" fill="#FAFAFA"/>
<path d="M59.2632 44.5266V58.2495L124.793 58.2495V44.5266H59.2632Z" fill="#F0F0F0"/>
<path d="M130.572 84.4321H128.614V113.952H130.572V84.4321Z" fill="#E6E6E6"/>
<path d="M131.188 84.4321H129.83V113.952H131.188V84.4321Z" fill="#F0F0F0"/>
<path d="M79.9506 87.7637H131.609V84.435H79.9506V87.7637Z" fill="#F0F0F0"/>
<path d="M79.0741 87.7607H77.1162V113.952H79.0741V87.7607Z" fill="#E6E6E6"/>
<path d="M79.6914 87.7607H78.3325V113.952H79.6914V87.7607Z" fill="#F0F0F0"/>
<path d="M66.6893 87.7607H64.7314V113.952H66.6893V87.7607Z" fill="#E6E6E6"/>
<path d="M67.3061 87.7607H65.9473V113.952H67.3061V87.7607Z" fill="#E6E6E6"/>
<path d="M118.187 87.7607H116.229V113.952H118.187V87.7607Z" fill="#E6E6E6"/>
<path d="M118.804 87.7607H117.445V113.952H118.804V87.7607Z" fill="#E6E6E6"/>
<path d="M79.9503 84.4316H64.7314V87.7603H79.9503V84.4316Z" fill="#E6E6E6"/>
<path d="M118.848 77.6791C117.183 79.5416 111.211 81.4816 109.446 75.6289C108.162 71.3764 115.341 68.2295 119.638 68.0477C124.266 67.854 127.002 69.4841 127.002 69.4841C124.132 72.0598 121.409 74.7959 118.848 77.6791V77.6791Z" fill="#E6E6E6"/>
<path d="M109.444 78.9189C111.789 79.1692 115.776 77.3782 114.197 72.4552C112.617 67.5323 109.393 67.0734 107.259 66.6621C104.539 66.1376 99.1001 68.3607 99.1001 68.3607C99.1001 68.3607 107.101 78.6715 109.444 78.9189Z" fill="#E6E6E6"/>
<path d="M115.579 69.9254C112.626 71.2664 110.15 71.7134 111.547 67.5414C112.945 63.3694 114.647 61.3579 117.421 60.5086C120.955 59.4238 125.151 61.7542 125.151 61.7542C125.151 61.7542 118.53 68.5844 115.579 69.9254Z" fill="#E6E6E6"/>
<path d="M111.571 69.6421C113.824 70.3096 115.6 70.1696 113.92 66.1436C112.239 62.1176 111.118 61.614 109.19 60.8422C105.614 59.4148 102.634 61.9776 102.634 61.9776C102.634 61.9776 109.315 68.9746 111.571 69.6421Z" fill="#E6E6E6"/>
<path d="M116.476 62.9999C114.026 65.1455 111.771 66.5044 111.872 63.1697C111.973 59.8351 113.705 56.8432 116.342 55.4992C118.157 54.5724 122.168 54.9896 122.168 54.9896C122.168 54.9896 118.926 60.8543 116.476 62.9999Z" fill="#E6E6E6"/>
<path d="M110.162 62.4428C111.765 63.7212 113.142 64.3947 112.65 61.6829C112.158 58.9711 111.249 58.2439 109.718 57.2874C108.484 56.5622 107.02 56.3372 105.626 56.6586C105.626 56.6586 108.558 61.1643 110.162 62.4428Z" fill="#E6E6E6"/>
<path d="M121.197 77.6138H105.099L107.217 84.432H119.078L121.197 77.6138Z" fill="#F0F0F0"/>
<path d="M85.7021 55.1717L85.3355 55.6575C85.2163 55.8124 85.0912 55.9555 84.969 56.1074C84.7276 56.4054 84.4683 56.7034 84.2121 56.9776C83.6852 57.554 83.1292 58.103 82.5462 58.6226C82.2482 58.8878 81.9502 59.147 81.6195 59.4003C81.2887 59.6536 80.9519 59.895 80.5884 60.1334C79.7727 60.6876 78.8643 61.0913 77.9064 61.3254L77.8021 61.3493C77.7043 61.372 77.6044 61.385 77.5041 61.388C77.018 61.4047 76.5338 61.3194 76.0826 61.1377C75.7671 61.0128 75.4671 60.8518 75.1886 60.6579C74.7575 60.3542 74.3581 60.0078 73.9966 59.6238C73.3839 58.9712 72.8295 58.2663 72.3397 57.517C71.8719 56.8018 71.4457 56.0806 71.0643 55.3446C70.6752 54.6085 70.3251 53.8525 70.0153 53.0798C69.9063 52.8177 69.8943 52.5254 69.9816 52.2553C70.0688 51.9853 70.2495 51.7552 70.4913 51.6065C70.733 51.4578 71.0199 51.4002 71.3002 51.4441C71.5806 51.488 71.8362 51.6306 72.0209 51.846L72.0477 51.8758L73.5824 53.6102C74.0979 54.1824 74.6135 54.7456 75.1379 55.273C75.6243 55.7762 76.144 56.2462 76.6935 56.6796C76.9027 56.8459 77.1296 56.9889 77.37 57.1057C77.4195 57.1324 77.4747 57.1467 77.5309 57.1475C77.5309 57.1475 77.4623 57.0908 77.2776 57.0908L76.8693 57.1564C77.271 56.9526 77.6488 56.7047 77.9958 56.4174C78.4645 56.0303 78.913 55.6195 79.3397 55.1866C79.7838 54.7307 80.2337 54.2539 80.6718 53.7592L81.3215 53.0112L81.9413 52.2811L82.0158 52.1947C82.4207 51.7331 82.9882 51.4455 83.5999 51.3919C84.2116 51.3383 84.8204 51.5228 85.2994 51.907C85.7785 52.2911 86.0908 52.8453 86.1714 53.4541C86.2519 54.0628 86.0945 54.6792 85.7319 55.1747L85.7021 55.1717Z" fill="#263238"/>
<path d="M70.4683 52.3346C69.318 52.5134 68.2243 50.648 68.2243 50.648L67.3631 49.6228C67.2235 49.4556 67.147 49.2447 67.147 49.0268C67.147 48.809 67.2235 48.598 67.3631 48.4308L68.1051 47.5666C68.1858 47.4732 68.2842 47.3967 68.3946 47.3417C68.5051 47.2866 68.6254 47.2542 68.7486 47.2461C68.8717 47.2381 68.9953 47.2546 69.112 47.2948C69.2287 47.335 69.3362 47.398 69.4283 47.4802L70.4146 48.3742C70.5907 48.5324 70.731 48.7265 70.8259 48.9434L71.2103 49.8374C71.371 50.2082 71.4233 50.6169 71.361 51.0162C71.2988 51.4155 71.1246 51.789 70.8587 52.0933L70.7871 52.1767C70.7005 52.2621 70.5887 52.3174 70.4683 52.3346V52.3346Z" fill="#FFC3BD"/>
<path d="M98.5188 95.0146C97.0616 84.2211 96.4864 77.817 95.5388 72.4501L86.3574 72.313C86.3574 72.313 90.4788 89.5255 92.4396 96.5523C94.4004 103.579 105.492 121.03 105.492 121.03L107.93 119.582C107.93 119.582 101.141 103.189 98.5188 95.0146Z" fill="#263238"/>
<path d="M103.862 123.742C103.862 123.742 105.698 121.498 105.668 120.738L107.688 119.546L108.8 121.766L107.826 122.362L107.528 122.27L107.316 122.663C106.309 123.259 104.688 124.171 103.934 124.311C103.875 124.23 103.837 124.135 103.825 124.036C103.812 123.936 103.825 123.835 103.862 123.742Z" fill="#263238"/>
<path d="M95.1396 50.7198C91.8944 50.3175 87.2545 50.3532 84.1434 50.8926C83.3664 51.0338 82.6535 51.4156 82.1054 51.9841C81.5573 52.5525 81.2017 53.2788 81.0889 54.0604C80.4333 58.7568 80.9965 66.9668 81.4167 75.2184C88.518 77.6501 96.0187 75.1856 96.0187 75.1856C96.2779 73.5168 95.6968 68.0544 95.3035 65.14C95.8995 62.1272 97.1332 58.6794 97.9557 54.6802C98.0542 54.2331 98.0579 53.7704 97.9666 53.3217C97.8754 52.8731 97.6912 52.4486 97.4259 52.0755C97.1606 51.7024 96.8201 51.389 96.4263 51.1555C96.0325 50.922 95.5942 50.7736 95.1396 50.7198V50.7198Z" fill="#263238"/>
<path d="M86.7719 50.5768C86.3333 51.0846 86.058 51.7129 85.9822 52.3797C85.6485 54.2869 86.0269 57.2281 87.0312 60.5985C87.9937 57.8837 90.0648 54.2899 91.3403 52.2039C91.9363 51.2145 92.3624 50.5619 92.4011 50.5023C90.5466 50.0692 88.6144 50.0947 86.7719 50.5768Z" fill="#6633F2"/>
<path d="M91.9273 44.5186L88.2321 47.5492C88.7089 48.8217 88.8609 50.1448 86.7719 50.6544C86.2504 51.3457 87.1713 52.1444 88.0355 52.496C89.4301 52.3232 91.3939 51.8583 92.2432 50.708C91.975 49.7663 91.5697 46.3989 91.9273 44.5186Z" fill="#FFC3BD"/>
<path d="M87.1533 51.7301C87.3071 52.1739 87.5705 52.5716 87.9192 52.8863C88.4824 52.8863 89.3079 52.2516 89.3079 52.2516C89.3079 52.2516 88.989 51.3576 88.542 51.1758C87.3977 51.4559 87.1533 51.7301 87.1533 51.7301Z" fill="white"/>
<path d="M88.4405 52.496C88.3525 52.4294 88.2521 52.3811 88.1451 52.3539C88.0381 52.3268 87.9268 52.3214 87.8177 52.3381C87.0786 53.39 86.6078 55.0201 86.1519 56.9034C86.3699 58.1518 86.6634 59.3858 87.031 60.5986C87.4434 59.4781 87.9231 58.3834 88.4673 57.3206C88.2592 55.7197 88.2502 54.0991 88.4405 52.496V52.496Z" fill="white"/>
<path opacity="0.2" d="M90.3865 45.7822L88.2319 47.5464C88.3487 47.8409 88.4355 48.1464 88.4912 48.4583C89.3256 48.5179 90.4878 47.6745 90.5415 46.9116C90.5593 46.5289 90.5067 46.1461 90.3865 45.7822V45.7822Z" fill="black"/>
<path d="M86.3906 39.5032C85.1986 40.1945 85.8154 40.8829 85.8154 40.8829C85.8154 40.8829 85.3059 42.2537 85.9823 43.1984C89.153 39.4019 86.3906 39.5032 86.3906 39.5032Z" fill="#263238"/>
<path d="M92.4577 42.4504C92.121 44.7688 92.0405 46.1426 90.7651 47.2333C88.84 48.8693 86.0507 47.5313 85.6991 45.1473C85.3713 43.0077 85.9762 39.5747 88.3394 38.8565C88.8623 38.6999 89.4163 38.6783 89.9498 38.7939C90.4833 38.9094 90.9789 39.1582 91.3902 39.5171C91.8014 39.876 92.1151 40.3333 92.3018 40.8463C92.4884 41.3592 92.5421 41.9111 92.4577 42.4504V42.4504Z" fill="#FFC3BD"/>
<path d="M92.4039 43.8986C90.9139 44.0536 91.1911 41.601 91.7006 41.1183C90.2464 41.1451 90.5265 40.1736 90.7053 39.816C88.2826 40.3256 86.5691 40.4329 85.4754 39.22C84.6649 38.326 83.8036 39.3273 83.5474 38.3916C84.1434 38.7104 85.2191 37.1161 85.9463 37.7777C86.6734 38.4392 87.3975 36.1268 88.4971 37.1161C89.9871 38.4422 93.8969 34.8305 93.5393 38.8118C95.5806 40.5312 92.836 41.6189 93.0148 43.4456C92.4546 44.283 92.4039 43.8986 92.4039 43.8986Z" fill="#263238"/>
<path d="M92.7557 39.3064C92.7197 39.3062 92.685 39.2931 92.6577 39.2697C92.6304 39.2462 92.6124 39.2138 92.6067 39.1783C92.6016 39.1392 92.6123 39.0996 92.6363 39.0684C92.6603 39.0371 92.6958 39.0166 92.7348 39.0114C93.2171 38.8837 93.6391 38.5905 93.9269 38.183C94.013 38.0618 94.0709 37.9229 94.0962 37.7764C94.1214 37.6299 94.1135 37.4796 94.0729 37.3366C94.0627 37.2983 94.068 37.2576 94.0875 37.223C94.1069 37.1885 94.1391 37.163 94.1772 37.1519C94.1958 37.1464 94.2153 37.1447 94.2345 37.1469C94.2537 37.1491 94.2724 37.155 94.2893 37.1645C94.3062 37.1739 94.3211 37.1866 94.333 37.2018C94.345 37.2171 94.3538 37.2345 94.359 37.2532C94.4103 37.4372 94.4207 37.6303 94.3893 37.8187C94.3579 38.0072 94.2855 38.1865 94.1772 38.3439C93.8429 38.8271 93.3421 39.1698 92.7706 39.3064H92.7557Z" fill="#263238"/>
<path d="M93.2446 44.2503C93.025 44.7408 92.62 45.1244 92.1182 45.3171C91.4507 45.5674 91.0484 44.9833 91.1795 44.3188C91.2987 43.7228 91.7755 42.8765 92.4847 42.9122C92.637 42.9222 92.7844 42.9698 92.9137 43.0508C93.043 43.1318 93.1501 43.2437 93.2254 43.3764C93.3008 43.509 93.342 43.6583 93.3453 43.8109C93.3487 43.9634 93.3141 44.1144 93.2446 44.2503Z" fill="#FFC3BD"/>
<path d="M88.98 42.5337C88.9621 42.7244 88.8489 42.8704 88.7267 42.8585C88.6046 42.8466 88.5122 42.6827 88.5301 42.492C88.5479 42.3013 88.6582 42.1582 88.7833 42.1701C88.9085 42.182 88.9949 42.346 88.98 42.5337Z" fill="#263238"/>
<path d="M86.7183 42.4802C86.7004 42.6709 86.5872 42.814 86.465 42.8021C86.3428 42.7901 86.2505 42.6292 86.2683 42.4385C86.2862 42.2478 86.3965 42.1047 86.5216 42.1137C86.6468 42.1226 86.7183 42.2895 86.7183 42.4802Z" fill="#263238"/>
<path d="M87.3916 42.7334C87.118 43.2934 86.7669 43.812 86.3486 44.2741C86.4701 44.3792 86.613 44.4565 86.7674 44.5008C86.9218 44.545 87.0839 44.5551 87.2426 44.5303L87.3916 42.7334Z" fill="#ED847E"/>
<path d="M89.7547 41.9648C89.7733 41.9694 89.7927 41.9694 89.8113 41.9648C89.8388 41.9536 89.8608 41.9319 89.8725 41.9046C89.8842 41.8773 89.8847 41.8465 89.8739 41.8188C89.8114 41.6519 89.7102 41.5022 89.5787 41.382C89.4471 41.2618 89.2888 41.1746 89.117 41.1274C89.1027 41.1244 89.0879 41.1242 89.0736 41.1269C89.0592 41.1296 89.0456 41.1352 89.0334 41.1432C89.0212 41.1512 89.0107 41.1616 89.0025 41.1738C88.9944 41.1859 88.9887 41.1995 88.9859 41.2138C88.9797 41.2431 88.9853 41.2736 89.0015 41.2987C89.0176 41.3238 89.0431 41.3415 89.0723 41.3479V41.3479C89.2084 41.3866 89.3334 41.457 89.437 41.5533C89.5406 41.6497 89.6199 41.7693 89.6683 41.9022C89.6767 41.9188 89.6889 41.9331 89.7039 41.944C89.7189 41.9549 89.7364 41.962 89.7547 41.9648V41.9648Z" fill="#263238"/>
<path d="M85.8749 41.7561C85.8924 41.7618 85.9111 41.7632 85.9293 41.7601C85.9474 41.7569 85.9646 41.7494 85.9792 41.7382C86.0888 41.6509 86.2177 41.5913 86.3551 41.5643C86.4926 41.5373 86.6345 41.5438 86.7689 41.5832C86.7828 41.5884 86.7976 41.5907 86.8123 41.59C86.8271 41.5894 86.8416 41.5857 86.855 41.5793C86.8683 41.5729 86.8803 41.5639 86.89 41.5528C86.8998 41.5417 86.9073 41.5287 86.912 41.5147C86.9217 41.487 86.9203 41.4566 86.9081 41.4299C86.8959 41.4032 86.8737 41.3823 86.8464 41.3717C86.6766 41.3206 86.4971 41.311 86.3229 41.3437C86.1487 41.3764 85.9848 41.4503 85.8451 41.5594C85.8211 41.5772 85.8051 41.6038 85.8006 41.6334C85.7961 41.663 85.8036 41.6932 85.8213 41.7173C85.8357 41.7344 85.8541 41.7477 85.8749 41.7561V41.7561Z" fill="#263238"/>
<path d="M92.4039 50.499C92.3652 50.5586 91.942 51.2112 91.343 52.2006C90.7348 52.7612 89.9896 53.1517 89.1825 53.333C89.3047 52.9337 88.9471 51.5867 88.5508 51.1725C89.8659 51.1898 91.1726 50.9613 92.4039 50.499V50.499Z" fill="#6633F2"/>
<path opacity="0.3" d="M92.4039 50.499C92.3652 50.5586 91.942 51.2112 91.343 52.2006C90.7348 52.7612 89.9896 53.1517 89.1825 53.333C89.3047 52.9337 88.9471 51.5867 88.5508 51.1725C89.8659 51.1898 91.1726 50.9613 92.4039 50.499V50.499Z" fill="white"/>
<path d="M88.5422 51.1761C88.1151 51.3625 87.7302 51.6337 87.4111 51.9733C87.0919 52.313 86.8451 52.7139 86.6857 53.1519C86.5206 53.0803 86.3725 52.9745 86.2512 52.8414C86.13 52.7084 86.0384 52.5511 85.9824 52.38C86.0583 51.7133 86.3335 51.085 86.7721 50.5771C86.9867 50.8513 87.5767 51.1225 88.5422 51.1761Z" fill="#6633F2"/>
<path opacity="0.3" d="M88.5422 51.1761C88.1151 51.3625 87.7302 51.6337 87.4111 51.9733C87.0919 52.313 86.8451 52.7139 86.6857 53.1519C86.5206 53.0803 86.3725 52.9745 86.2512 52.8414C86.13 52.7084 86.0384 52.5511 85.9824 52.38C86.0583 51.7133 86.3335 51.085 86.7721 50.5771C86.9867 50.8513 87.5767 51.1225 88.5422 51.1761Z" fill="white"/>
<path d="M97.4017 52.1028C97.9977 52.7822 98.5073 53.4348 99.0258 54.1292C99.5443 54.8235 100.033 55.5238 100.498 56.2658C100.986 57.0192 101.43 57.8003 101.827 58.6051C102.043 59.0379 102.237 59.4815 102.408 59.9342C102.612 60.4668 102.761 61.019 102.852 61.5822L102.876 61.7282C102.924 62.0287 102.894 62.3364 102.79 62.6222C102.449 63.5226 101.962 64.3604 101.347 65.1015C101.079 65.4377 100.791 65.7581 100.486 66.0611C100.188 66.3591 99.89 66.6571 99.592 66.9104C98.9804 67.4322 98.3364 67.9149 97.664 68.3557C96.9973 68.8012 96.3002 69.1995 95.578 69.5477C95.3248 69.6918 95.0276 69.7383 94.7425 69.6782C94.4574 69.6182 94.2041 69.4558 94.0306 69.2217C93.8571 68.9877 93.7753 68.6982 93.8007 68.408C93.8261 68.1177 93.9569 67.8468 94.1684 67.6464L94.2221 67.5898C94.684 67.0892 95.1935 66.5498 95.6525 66.0224C96.1114 65.4949 96.5703 64.9585 96.9786 64.4161C97.378 63.9042 97.7405 63.3644 98.0633 62.801C98.3331 62.3432 98.5339 61.8482 98.6593 61.3318L98.5967 62.3599C98.5134 62.12 98.4138 61.886 98.2987 61.6596C98.1527 61.3795 98.0007 61.0636 97.804 60.7656C97.6073 60.4676 97.4196 60.1488 97.208 59.8389C96.9964 59.5289 96.7849 59.2131 96.5614 58.9002C96.1114 58.2773 95.6465 57.6456 95.1667 57.0228L93.7363 55.1781L93.7065 55.1394C93.3184 54.6503 93.1376 54.0283 93.2031 53.4073C93.2686 52.7863 93.5752 52.2158 94.0569 51.8185C94.5385 51.4211 95.1569 51.2286 95.7791 51.2823C96.4012 51.336 96.9774 51.6317 97.3838 52.1058L97.4017 52.1028Z" fill="#263238"/>
<path d="M95.3601 69.0499C95.3669 68.9214 95.3279 68.7947 95.2498 68.6923L94.6002 67.7983C94.5385 67.7125 94.4535 67.6462 94.3553 67.6071C94.2571 67.5681 94.1497 67.5579 94.0459 67.5778L93.1221 67.7506C92.2265 67.9209 91.3779 68.2817 90.6338 68.8085L90.3895 68.9814C90.2888 69.0527 90.2034 69.1434 90.1382 69.2482C90.0731 69.353 90.0295 69.4698 90.0101 69.5916C89.9907 69.7135 89.9958 69.838 90.0251 69.9578C90.0544 70.0777 90.1074 70.1905 90.1809 70.2896L90.8573 71.2045C90.9879 71.3813 91.1771 71.5059 91.3911 71.5561C91.605 71.6063 91.8299 71.5789 92.0255 71.4786L93.2175 70.8647C93.2175 70.8647 95.2916 70.2121 95.3601 69.0499Z" fill="#FFC3BD"/>
<path d="M94.8508 67.2677C94.4179 67.2109 93.9788 67.22 93.5486 67.2946C93.2833 67.977 94.4098 70.0302 94.9879 70.3878C95.3574 70.3014 96.1978 69.5802 96.1978 69.5802C95.7031 68.9216 95.1906 67.7714 94.8508 67.2677Z" fill="#6633F2"/>
<path d="M72.0506 51.8521C72.06 51.4158 72.0027 50.9807 71.8808 50.5618C71.1745 50.374 69.2583 51.718 68.9663 52.3319C69.0915 52.6895 69.902 53.4464 69.902 53.4464C70.504 52.8802 71.5887 52.2425 72.0506 51.8521Z" fill="#6633F2"/>
<path d="M105.385 121.185L108.138 119.65L107.51 117.946L104.449 120.02L105.385 121.185Z" fill="#6633F2"/>
<path d="M89.4985 95.9862C90.1541 85.0973 91.4117 77.8082 90.8872 72.4442L81.7178 72.3071C81.7178 72.3071 82.6475 89.5911 83.2078 96.7789C83.768 103.967 86.8672 121.739 86.8672 121.739H89.7042C89.7042 121.739 90.4939 104.414 89.4985 95.9862Z" fill="#263238"/>
<path d="M82.2662 123.247C82.2662 123.247 86.8763 122.252 87.1683 121.584H89.5195L89.594 124.063H87.6779L87.4455 123.837L87.0879 124.063C85.9167 124.063 82.8443 124.019 82.0993 123.765C82.077 123.672 82.0808 123.574 82.1102 123.483C82.1396 123.391 82.1936 123.31 82.2662 123.247V123.247Z" fill="#263238"/>
<path d="M86.7243 121.826L89.8831 121.912L90.0292 120.124L86.3638 120.345L86.7243 121.826Z" fill="#6633F2"/>
<path d="M88.1189 45.213C87.9974 45.2171 87.8758 45.2111 87.7554 45.1951C87.7471 45.1937 87.7393 45.1906 87.7323 45.186C87.7254 45.1814 87.7195 45.1754 87.715 45.1684C87.7105 45.1614 87.7075 45.1535 87.7062 45.1453C87.705 45.137 87.7055 45.1286 87.7077 45.1206C87.7106 45.1037 87.72 45.0886 87.734 45.0785C87.7479 45.0685 87.7652 45.0643 87.7822 45.0669C88.0543 45.106 88.3318 45.0837 88.5942 45.0017C88.8567 44.9198 89.0975 44.7801 89.299 44.5931C89.3038 44.5851 89.3103 44.5782 89.3181 44.573C89.3258 44.5678 89.3347 44.5644 89.3439 44.5631C89.3532 44.5618 89.3626 44.5626 89.3716 44.5654C89.3805 44.5682 89.3886 44.573 89.3955 44.5793C89.4023 44.5857 89.4076 44.5935 89.4111 44.6022C89.4145 44.611 89.4159 44.6203 89.4152 44.6296C89.4145 44.639 89.4118 44.648 89.4071 44.6561C89.4025 44.6643 89.3961 44.6712 89.3884 44.6765C89.0459 45.0059 88.5938 45.1969 88.1189 45.213V45.213Z" fill="#263238"/>
<path d="M106.308 92.6094H103.841V92.9074H106.308V92.6094Z" fill="#6633F2"/>
<path d="M113.678 92.6094H108.135V92.9074H113.678V92.6094Z" fill="#6633F2"/>
<path d="M115.481 80.5347H80.9128L75.3402 90.8306C75.2843 90.9344 75.2561 91.051 75.2584 91.1689C75.2607 91.2868 75.2934 91.4021 75.3534 91.5037C75.4133 91.6053 75.4984 91.6897 75.6005 91.7487C75.7026 91.8078 75.8182 91.8395 75.9362 91.8408H115.481L118.306 86.1788L115.481 80.5347Z" fill="#6633F2"/>
<path d="M76.7259 30.6465C82.7007 31.1956 88.2795 33.8725 92.4463 38.1897C96.6131 42.5069 99.0905 48.1771 99.4275 54.1677C99.4327 54.2815 99.4663 54.3922 99.5252 54.4897C99.5841 54.5872 99.6666 54.6684 99.7649 54.7258C99.8633 54.7833 99.9745 54.8153 100.088 54.8187C100.202 54.8222 100.315 54.7971 100.417 54.7458L104.616 52.6598C104.772 52.579 104.945 52.5369 105.121 52.5369C105.297 52.5369 105.47 52.579 105.626 52.6598L109.747 54.719C109.854 54.7726 109.973 54.7974 110.093 54.7908C110.212 54.7843 110.328 54.7466 110.428 54.6815C110.528 54.6164 110.61 54.5262 110.664 54.4199C110.719 54.3135 110.745 54.1947 110.74 54.0753C110.368 45.0869 106.675 36.5558 100.376 30.1333C94.0768 23.7107 85.619 19.8533 76.6394 19.3076L73.8472 24.8921L76.7259 30.6465Z" fill="#6633F2"/>
<path opacity="0.6" d="M76.7259 30.6465C82.7007 31.1956 88.2795 33.8725 92.4463 38.1897C96.6131 42.5069 99.0905 48.1771 99.4275 54.1677C99.4327 54.2815 99.4663 54.3922 99.5252 54.4897C99.5841 54.5872 99.6666 54.6684 99.7649 54.7258C99.8633 54.7833 99.9745 54.8153 100.088 54.8187C100.202 54.8222 100.315 54.7971 100.417 54.7458L104.616 52.6598C104.772 52.579 104.945 52.5369 105.121 52.5369C105.297 52.5369 105.47 52.579 105.626 52.6598L109.747 54.719C109.854 54.7726 109.973 54.7974 110.093 54.7908C110.212 54.7843 110.328 54.7466 110.428 54.6815C110.528 54.6164 110.61 54.5262 110.664 54.4199C110.719 54.3135 110.745 54.1947 110.74 54.0753C110.368 45.0869 106.675 36.5558 100.376 30.1333C94.0768 23.7107 85.619 19.8533 76.6394 19.3076L73.8472 24.8921L76.7259 30.6465Z" fill="white"/>
<path d="M49.5724 53.2853C50.1215 47.31 52.7989 41.7308 57.1167 37.564C61.4345 33.3971 67.1054 30.92 73.0965 30.5837C73.2097 30.5773 73.3196 30.5429 73.4163 30.4836C73.513 30.4243 73.5934 30.3419 73.6504 30.2439C73.7074 30.1458 73.7392 30.0351 73.7429 29.9218C73.7466 29.8084 73.7221 29.6959 73.6716 29.5943L71.5707 25.3955C71.4927 25.238 71.4521 25.0647 71.4521 24.8889C71.4521 24.7132 71.4927 24.5398 71.5707 24.3823L73.6329 20.264C73.6858 20.1568 73.7098 20.0377 73.7027 19.9184C73.6956 19.7991 73.6575 19.6837 73.5923 19.5835C73.527 19.4834 73.4368 19.402 73.3306 19.3473C73.2243 19.2926 73.1056 19.2665 72.9862 19.2716C64.0024 19.6505 55.4776 23.3451 49.0587 29.6419C42.6397 35.9387 38.7819 44.3909 38.2305 53.3658L43.8061 56.1581L49.5724 53.2853Z" fill="#6633F2"/>
<path opacity="0.4" d="M49.5724 53.2853C50.1215 47.31 52.7989 41.7308 57.1167 37.564C61.4345 33.3971 67.1054 30.92 73.0965 30.5837C73.2097 30.5773 73.3196 30.5429 73.4163 30.4836C73.513 30.4243 73.5934 30.3419 73.6504 30.2439C73.7074 30.1458 73.7392 30.0351 73.7429 29.9218C73.7466 29.8084 73.7221 29.6959 73.6716 29.5943L71.5707 25.3955C71.4927 25.238 71.4521 25.0647 71.4521 24.8889C71.4521 24.7132 71.4927 24.5398 71.5707 24.3823L73.6329 20.264C73.6858 20.1568 73.7098 20.0377 73.7027 19.9184C73.6956 19.7991 73.6575 19.6837 73.5923 19.5835C73.527 19.4834 73.4368 19.402 73.3306 19.3473C73.2243 19.2926 73.1056 19.2665 72.9862 19.2716C64.0024 19.6505 55.4776 23.3451 49.0587 29.6419C42.6397 35.9387 38.7819 44.3909 38.2305 53.3658L43.8061 56.1581L49.5724 53.2853Z" fill="white"/>
<path d="M72.2112 80.4362C66.2363 79.8878 60.6572 77.2116 56.4899 72.895C52.3225 68.5784 49.8443 62.9085 49.5066 56.918C49.5012 56.8046 49.4676 56.6943 49.4088 56.5972C49.35 56.5001 49.268 56.4191 49.17 56.3617C49.0721 56.3043 48.9613 56.2723 48.8479 56.2685C48.7344 56.2646 48.6218 56.2892 48.5202 56.3399L44.3244 58.4259C44.1664 58.5058 43.9919 58.5476 43.8148 58.5481C43.6397 58.5473 43.4672 58.5054 43.3112 58.4259L39.1868 56.3667C39.0799 56.314 38.9611 56.2899 38.842 56.2969C38.723 56.3039 38.6078 56.3417 38.5078 56.4066C38.4077 56.4715 38.3263 56.5612 38.2713 56.6671C38.2164 56.7729 38.19 56.8912 38.1945 57.0104C38.5475 65.8001 42.0913 74.1599 48.1626 80.5256H30.6938L33.5546 86.2501L30.7952 91.784H72.2947L75.0958 86.1905L72.2112 80.4362Z" fill="#6633F2"/>
<path opacity="0.2" d="M72.2112 80.4362C66.2363 79.8878 60.6572 77.2116 56.4899 72.895C52.3225 68.5784 49.8443 62.9085 49.5066 56.918C49.5012 56.8046 49.4676 56.6943 49.4088 56.5972C49.35 56.5001 49.268 56.4191 49.17 56.3617C49.0721 56.3043 48.9613 56.2723 48.8479 56.2685C48.7344 56.2646 48.6218 56.2892 48.5202 56.3399L44.3244 58.4259C44.1664 58.5058 43.9919 58.5476 43.8148 58.5481C43.6397 58.5473 43.4672 58.5054 43.3112 58.4259L39.1868 56.3667C39.0799 56.314 38.9611 56.2899 38.842 56.2969C38.723 56.3039 38.6078 56.3417 38.5078 56.4066C38.4077 56.4715 38.3263 56.5612 38.2713 56.6671C38.2164 56.7729 38.19 56.8912 38.1945 57.0104C38.5475 65.8001 42.0913 74.1599 48.1626 80.5256H30.6938L33.5546 86.2501L30.7952 91.784H72.2947L75.0958 86.1905L72.2112 80.4362Z" fill="white"/>
<path d="M99.3651 57.7942C98.8154 63.7685 96.1382 69.3466 91.821 73.5127C87.5039 77.6789 81.8341 80.1559 75.844 80.4928C75.7305 80.4987 75.6203 80.5328 75.5232 80.5919C75.4261 80.651 75.3453 80.7334 75.288 80.8315C75.2306 80.9296 75.1986 81.0405 75.1947 81.1541C75.1909 81.2676 75.2153 81.3804 75.2659 81.4822L77.3519 85.681C77.4299 85.838 77.4704 86.0108 77.4704 86.1861C77.4704 86.3614 77.4299 86.5343 77.3519 86.6912L75.2927 90.8126C75.239 90.9194 75.2142 91.0385 75.2208 91.1579C75.2274 91.2773 75.2651 91.3929 75.3302 91.4932C75.3952 91.5935 75.4854 91.6751 75.5918 91.7298C75.6981 91.7844 75.8169 91.8104 75.9364 91.8049C84.9239 91.4335 93.4541 87.7416 99.8765 81.4436C106.299 75.1456 110.157 66.6892 110.704 57.7107L105.12 54.9185L99.3651 57.7942Z" fill="#6633F2"/>
<path opacity="0.8" d="M99.3651 57.7942C98.8154 63.7685 96.1382 69.3466 91.821 73.5127C87.5039 77.6789 81.8341 80.1559 75.844 80.4928C75.7305 80.4987 75.6203 80.5328 75.5232 80.5919C75.4261 80.651 75.3453 80.7334 75.288 80.8315C75.2306 80.9296 75.1986 81.0405 75.1947 81.1541C75.1909 81.2676 75.2153 81.3804 75.2659 81.4822L77.3519 85.681C77.4299 85.838 77.4704 86.0108 77.4704 86.1861C77.4704 86.3614 77.4299 86.5343 77.3519 86.6912L75.2927 90.8126C75.239 90.9194 75.2142 91.0385 75.2208 91.1579C75.2274 91.2773 75.2651 91.3929 75.3302 91.4932C75.3952 91.5935 75.4854 91.6751 75.5918 91.7298C75.6981 91.7844 75.8169 91.8104 75.9364 91.8049C84.9239 91.4335 93.4541 87.7416 99.8765 81.4436C106.299 75.1456 110.157 66.6892 110.704 57.7107L105.12 54.9185L99.3651 57.7942Z" fill="white"/>
<path d="M74.2168 54.9359L72.5868 50.2722L70.1074 50.5017C69.5192 49.6326 68.8177 48.8459 68.0214 48.1624L68.531 45.7247L64.0699 43.5791L62.4786 45.4953C61.4464 45.2951 60.3919 45.235 59.3437 45.3165L57.9818 43.2305L53.3181 44.8605L53.5476 47.3399C52.6785 47.9281 51.8918 48.6296 51.2083 49.4259L48.7676 48.9163L46.622 53.3684L48.5412 54.9597C48.341 55.992 48.2809 57.0464 48.3624 58.0947L46.2764 59.4566L47.9064 64.1203L50.3828 63.8908C50.9712 64.7606 51.6727 65.5483 52.4688 66.2331L51.9592 68.6707L56.4113 70.8163L58.0027 68.8972C59.0339 69.0973 60.0874 69.1575 61.1346 69.076L62.4995 71.162L67.1632 69.5319L66.9337 67.0556C67.8019 66.4662 68.5885 65.7648 69.273 64.9696L71.7107 65.4791L73.8563 61.027L71.9401 59.4387C72.1402 58.4065 72.2003 57.352 72.1189 56.3037L74.2168 54.9359ZM62.0465 62.3382C61.0306 62.6935 59.9321 62.7396 58.89 62.4705C57.8479 62.2015 56.909 61.6294 56.192 60.8267C55.475 60.024 55.0121 59.0268 54.862 57.961C54.7118 56.8953 54.8811 55.8089 55.3483 54.8393C55.8156 53.8698 56.5599 53.0606 57.4871 52.5141C58.4143 51.9675 59.4827 51.7082 60.5573 51.769C61.6319 51.8297 62.6643 52.2077 63.524 52.8553C64.3837 53.5028 65.0321 54.3907 65.3871 55.4067C65.8623 56.7689 65.7774 58.264 65.151 59.5637C64.5247 60.8633 63.4081 61.8612 62.0465 62.3382Z" fill="#6633F2"/>
<path d="M44.1338 57.8835C43.9938 58.1041 43.8358 58.3931 43.66 58.6524C43.4842 58.9116 43.3441 59.1947 43.1921 59.4719C42.8941 60.0232 42.5961 60.5834 42.316 61.1526C41.7546 62.2881 41.2572 63.4541 40.826 64.6452C40.6383 65.116 40.826 64.8359 40.6085 64.5409C40.5071 64.4187 40.4416 64.4217 40.4773 64.4425C40.5439 64.4799 40.6165 64.5051 40.6919 64.517C41.2463 64.6087 41.8102 64.6287 42.3696 64.5766C43.6063 64.5021 44.9146 64.3144 46.1841 64.1088H46.19C46.3525 64.0815 46.5193 64.1153 46.6584 64.2036C46.7975 64.2919 46.899 64.4286 46.9434 64.5873C46.9878 64.7459 46.9719 64.9154 46.8988 65.0631C46.8258 65.2108 46.7007 65.3262 46.5476 65.3872C45.2783 65.9166 43.961 66.3228 42.614 66.6001C42.2683 66.6656 41.9137 66.7222 41.5412 66.758C41.1449 66.7991 40.7455 66.7991 40.3492 66.758C40.095 66.731 39.845 66.674 39.6042 66.5881C39.2381 66.4583 38.918 66.2242 38.6834 65.9147C38.5406 65.7186 38.4392 65.4955 38.3854 65.2591C38.3387 65.0529 38.3246 64.8408 38.3437 64.6303C38.3583 64.4708 38.3882 64.3132 38.4331 64.1594L38.5046 63.9091C38.8739 62.5789 39.3441 61.2789 39.9111 60.0202C40.1913 59.3914 40.5071 58.7716 40.832 58.1666C40.9988 57.8627 41.1717 57.5647 41.3505 57.2726C41.5352 56.9746 41.7081 56.6915 41.9465 56.3786C42.1519 56.1025 42.4555 55.9159 42.7947 55.8574C43.1338 55.7989 43.4825 55.8731 43.7685 56.0645C44.0544 56.2559 44.2559 56.55 44.3311 56.8858C44.4063 57.2216 44.3496 57.5735 44.1725 57.8686L44.1338 57.8835Z" fill="#7F3E3B"/>
<path d="M49.197 65.4554L48.5742 65.971C48.4595 66.0675 48.3233 66.1349 48.177 66.1676C48.0307 66.2003 47.8787 66.1972 47.7339 66.1587L46.3601 65.7981C46.0898 65.7263 45.8407 65.5909 45.6333 65.4032C45.426 65.2156 45.2665 64.9811 45.1681 64.7194L45.0459 64.3916C46.0174 63.4648 47.7488 63.1757 47.7488 63.1757L48.2345 63.0416C48.3333 63.0104 48.4373 62.9992 48.5405 63.0086C48.6437 63.018 48.7439 63.0478 48.8355 63.0964C48.927 63.1449 49.0079 63.2112 49.0736 63.2913C49.1393 63.3714 49.1883 63.4638 49.2179 63.5631L49.5159 64.5197C49.5607 64.6898 49.5543 64.8692 49.4976 65.0357C49.4409 65.2021 49.3363 65.3481 49.197 65.4554Z" fill="#7F3E3B"/>
<path d="M45.8536 47.999C46.2827 49.5814 46.8072 52.469 45.7791 53.5359C45.7791 53.5359 44.9894 55.0259 49.6531 54.7785C52.9311 54.6117 50.6931 53.5359 50.6931 53.5359C48.9051 53.1127 48.8455 51.8045 49.063 50.5767L45.8536 47.999Z" fill="#7F3E3B"/>
<path d="M38.9753 114.179L35.9507 113.064C35.6854 115.401 34.7378 118.968 34.7378 118.968L36.8596 119.862C36.8596 119.862 38.2721 115.6 38.9753 114.179Z" fill="#7F3E3B"/>
<path d="M37.3544 123.372C35.7363 122.18 35.8644 122.245 34.9704 121.548C34.2105 120.952 33.9602 120.913 33.3434 120.439C32.8278 120.046 33.1765 119.545 33.7188 119.045C33.9245 118.857 34.1837 118.648 34.4787 118.377C34.5617 118.302 34.6683 118.257 34.7803 118.252C34.8923 118.247 35.0028 118.28 35.0926 118.347L36.9879 119.733C37.0571 119.785 37.1134 119.852 37.1522 119.929C37.191 120.006 37.2113 120.091 37.2114 120.177C37.2213 120.637 37.3246 121.09 37.5152 121.509C37.7058 121.927 37.9796 122.302 38.32 122.612C39.1246 123.372 38.0011 123.846 37.3544 123.372Z" fill="#263238"/>
<path d="M52.0785 70.3281C52.0785 70.3281 48.8929 86.733 46.4165 94.3767C43.8239 102.423 40.0334 111.342 38.3139 116.572C37.7805 116.64 36.2577 116.006 35.5127 115.38C35.5127 115.38 36.6481 101.672 40.534 94.5794C40.1466 73.8862 44.0802 70.3281 44.0802 70.3281H52.0785Z" fill="#6633F2"/>
<path opacity="0.3" d="M52.0785 70.3281C52.0785 70.3281 48.8929 86.733 46.4165 94.3767C43.8239 102.423 40.0334 111.342 38.3139 116.572C37.7805 116.64 36.2577 116.006 35.5127 115.38C35.5127 115.38 36.6481 101.672 40.534 94.5794C40.1466 73.8862 44.0802 70.3281 44.0802 70.3281H52.0785Z" fill="black"/>
<path opacity="0.2" d="M46.1603 76.4668L49.4383 82.7248C48.6873 86.0028 47.8529 89.4209 47.0543 92.1982C44.6792 85.526 46.1603 76.4668 46.1603 76.4668Z" fill="black"/>
<path d="M38.9695 115.585C38.8685 115.943 38.7968 116.307 38.7549 116.676C38.7518 116.708 38.7415 116.738 38.7249 116.765C38.7083 116.792 38.6858 116.815 38.6591 116.831C38.6324 116.848 38.6022 116.859 38.5708 116.863C38.5394 116.866 38.5076 116.863 38.4778 116.852C37.3156 116.554 35.7958 115.66 35.2981 115.362C35.2537 115.336 35.2176 115.298 35.1944 115.252C35.1711 115.206 35.1616 115.154 35.167 115.103L35.3011 114.054C35.3067 114.022 35.3196 113.992 35.3388 113.965C35.358 113.939 35.383 113.918 35.4118 113.903C35.4407 113.888 35.4725 113.88 35.505 113.879C35.5375 113.878 35.5697 113.885 35.5991 113.899L38.7937 115.282C38.8542 115.303 38.9052 115.346 38.9374 115.401C38.9696 115.457 38.981 115.522 38.9695 115.585V115.585Z" fill="#263238"/>
<path d="M54.7278 115.582L51.8223 115.797C52.2991 118.115 52.7967 121.774 52.7967 121.774H55.1032C55.1032 121.774 54.692 117.17 54.7278 115.582Z" fill="#7F3E3B"/>
<path d="M57.544 124.063C55.5384 124.063 55.6815 124.033 54.564 123.995C53.5985 123.962 53.372 124.081 52.5912 124.063C51.9446 124.063 51.9684 123.431 52.171 122.716C52.2455 122.442 52.3558 122.12 52.469 121.73C52.4986 121.619 52.564 121.521 52.655 121.45C52.7461 121.38 52.8578 121.342 52.9727 121.342H55.3209C55.4049 121.341 55.488 121.361 55.5624 121.4C55.6368 121.439 55.7003 121.496 55.747 121.566C56.0023 121.933 56.3345 122.24 56.7204 122.466C57.1064 122.692 57.5369 122.831 57.982 122.874C59.0489 123.02 58.3456 124.063 57.544 124.063Z" fill="#263238"/>
<path d="M54.5521 70.3281C54.5521 70.3281 54.9157 84.6321 55.2405 93.5274C55.5653 102.423 54.868 118.166 54.868 118.166C54.8025 118.598 52.5347 118.425 52.1503 118.166C52.1503 118.166 47.8144 105.412 49.4683 94.3767C43.6632 80.0727 45.338 70.6798 45.338 70.6798L54.5521 70.3281Z" fill="#6633F2"/>
<path opacity="0.3" d="M54.5521 70.3281C54.5521 70.3281 54.9157 84.6321 55.2405 93.5274C55.5653 102.423 54.868 118.166 54.868 118.166C54.8025 118.598 52.5347 118.425 52.1503 118.166C52.1503 118.166 47.8144 105.412 49.4683 94.3767C43.6632 80.0727 45.338 70.6798 45.338 70.6798L54.5521 70.3281Z" fill="black"/>
<path d="M55.1779 116.956C55.1779 117.254 55.2047 117.776 55.2316 118.148C55.235 118.21 55.2148 118.271 55.1749 118.319C55.1351 118.366 55.0786 118.397 55.017 118.404C54.0179 118.487 53.0132 118.476 52.0161 118.372C51.9682 118.368 51.9229 118.348 51.8873 118.316C51.8517 118.283 51.8279 118.24 51.8195 118.193L51.6168 117.141C51.6089 117.106 51.6088 117.069 51.6167 117.034C51.6247 116.998 51.6403 116.965 51.6625 116.937C51.6848 116.908 51.713 116.885 51.7453 116.869C51.7776 116.853 51.8131 116.844 51.8493 116.843L54.9455 116.718C54.977 116.716 55.0085 116.721 55.038 116.732C55.0674 116.744 55.094 116.761 55.116 116.784C55.1381 116.806 55.155 116.834 55.1657 116.863C55.1764 116.893 55.1805 116.925 55.1779 116.956V116.956Z" fill="#263238"/>
<path d="M44.6408 67.8188C44.5916 68.6555 44.4921 69.4884 44.3428 70.3131H54.445L54.5523 67.7413C54.5523 67.7413 46.7566 67.3003 44.6408 67.8188Z" fill="#7F3E3B"/>
<path d="M55.5235 57.3171C55.5841 58.8708 55.5603 60.4267 55.452 61.9778C55.3686 64.0042 55.75 64.4989 55.452 67.8186C54.3434 68.4653 47.0514 68.4415 43.4665 67.9766C43.684 65.1068 43.9492 63.1728 42.0063 56.7152C41.5563 55.2252 42.5605 53.7799 44.1668 53.6249C44.5959 53.5862 45.0608 53.5504 45.5167 53.5295C47.1548 53.4192 48.7985 53.4192 50.4367 53.5295C50.9701 53.5742 51.5244 53.6398 52.0548 53.7083C53.956 53.9587 55.4639 55.5232 55.5235 57.3171Z" fill="#263238"/>
<path d="M70.2804 64.8417L69.8782 64.1414C69.8022 64.0121 69.6968 63.9025 69.5704 63.8217C69.444 63.7409 69.3003 63.6912 69.151 63.6766L67.7385 63.5425C67.4607 63.5162 67.1805 63.5566 66.9214 63.6602C66.6623 63.7639 66.4316 63.9278 66.2485 64.1385L66.019 64.4067C66.615 65.5987 68.1408 66.4927 68.1408 66.4927L68.5491 66.7907C68.6311 66.8537 68.7248 66.8998 68.8247 66.9264C68.9247 66.953 69.0289 66.9596 69.1314 66.9458C69.2339 66.9319 69.3326 66.8979 69.4219 66.8457C69.5112 66.7935 69.5893 66.7242 69.6517 66.6417L70.2477 65.84C70.3519 65.6958 70.4106 65.5237 70.4165 65.3459C70.4223 65.1681 70.375 64.9925 70.2804 64.8417V64.8417Z" fill="#7F3E3B"/>
<path d="M56.4442 58.0412L56.5753 58.2439C56.6319 58.3303 56.6856 58.4197 56.7511 58.5091C56.8763 58.6879 57.0164 58.8637 57.1594 59.0395C57.4558 59.395 57.7701 59.7351 58.1011 60.0587C58.4378 60.3835 58.7924 60.6994 59.1649 61.0004C59.5374 61.3014 59.9278 61.5964 60.3242 61.8586L60.0917 61.7513C60.6409 61.9504 61.1999 62.1215 61.7665 62.2639C62.3625 62.4159 62.9585 62.5619 63.5545 62.7109L65.3812 63.146C65.9921 63.295 66.606 63.444 67.2139 63.59C67.3742 63.6278 67.5148 63.7234 67.6088 63.8585C67.7028 63.9937 67.7436 64.1588 67.7232 64.3221C67.7029 64.4855 67.6229 64.6356 67.4987 64.7436C67.3744 64.8516 67.2146 64.9098 67.05 64.9072C66.4034 64.9072 65.7686 64.8774 65.1309 64.8476C64.4932 64.8178 63.8555 64.7611 63.2148 64.7015C62.5741 64.6419 61.9363 64.5645 61.2927 64.4631C60.6183 64.3689 59.9512 64.2285 59.2961 64.043C59.2359 64.0259 59.1779 64.0019 59.1232 63.9714L59.0606 63.9357C58.8193 63.7956 58.5749 63.6615 58.3335 63.5185C58.0921 63.3754 57.8537 63.2205 57.6243 63.0566C57.1526 62.7371 56.7026 62.3867 56.2773 62.0076C55.8418 61.6241 55.4354 61.2088 55.0615 60.765C54.8737 60.5385 54.692 60.306 54.5191 60.0557C54.4327 59.9335 54.3463 59.8024 54.2658 59.6683C54.2241 59.5998 54.1854 59.5342 54.1436 59.4567C54.1019 59.3793 54.0691 59.3256 54.0066 59.1945C53.8555 58.8873 53.8283 58.5338 53.9305 58.207C54.0327 57.8803 54.2565 57.6053 54.5557 57.4389C54.8549 57.2724 55.2065 57.2273 55.538 57.3128C55.8695 57.3983 56.1555 57.6079 56.3369 57.8982L56.4442 58.0412Z" fill="#7F3E3B"/>
<path d="M52.496 53.8545C54.4628 54.376 56.1495 56.0627 58.456 59.3913C58.1342 60.7502 55.178 62.3207 55.178 62.3207C55.178 62.3207 49.0214 56.1878 52.496 53.8545Z" fill="#263238"/>
<path d="M51.0029 45.0604C51.0744 45.266 51.2443 45.4001 51.3784 45.3584C51.5125 45.3166 51.5602 45.1229 51.4857 44.9173C51.4112 44.7117 51.2443 44.5746 51.1102 44.6193C50.9761 44.664 50.9284 44.8547 51.0029 45.0604Z" fill="#263238"/>
<path d="M51.0566 44.6463L51.4947 44.3662C51.4947 44.3662 51.3815 44.8222 51.0566 44.6463Z" fill="#263238"/>
<path d="M51.1577 45.4448C51.5067 45.8623 51.9072 46.2338 52.3497 46.5504C52.2701 46.6556 52.1675 46.7412 52.0497 46.8006C51.932 46.86 51.8022 46.8916 51.6703 46.8931L51.1577 45.4448Z" fill="#630F0F"/>
<path d="M50.69 43.3527C50.7053 43.35 50.7198 43.3441 50.7326 43.3353C50.7455 43.3266 50.7563 43.3153 50.7645 43.3021C50.7807 43.2727 50.7848 43.2382 50.7759 43.2059C50.767 43.1736 50.7458 43.1461 50.7168 43.1292C50.5437 43.0188 50.3477 42.9494 50.1437 42.9262C49.9398 42.9029 49.7332 42.9265 49.5397 42.9951C49.5248 43.0017 49.5115 43.0114 49.5007 43.0234C49.4898 43.0355 49.4815 43.0497 49.4765 43.0652C49.4714 43.0806 49.4697 43.0969 49.4713 43.1131C49.473 43.1293 49.478 43.1449 49.486 43.159C49.502 43.189 49.5285 43.212 49.5604 43.2236C49.5924 43.2351 49.6274 43.2344 49.6589 43.2216C49.8125 43.1692 49.9761 43.1524 50.1372 43.1725C50.2983 43.1926 50.4526 43.2492 50.5886 43.3378C50.6192 43.3557 50.6555 43.361 50.69 43.3527V43.3527Z" fill="#263238"/>
<path d="M43.9432 46.2259C44.9266 48.6337 45.2901 49.6708 46.9649 50.5797C49.483 51.9445 52.2395 50.386 51.9981 47.7755C51.7835 45.4272 50.2101 41.887 47.4625 41.586C46.8745 41.5023 46.2748 41.5772 45.7255 41.8032C45.1762 42.0291 44.6973 42.3977 44.3383 42.871C43.9794 43.3442 43.7535 43.9048 43.684 44.4946C43.6145 45.0845 43.704 45.6822 43.9432 46.2259Z" fill="#7F3E3B"/>
<path d="M49.5335 46.1691C50.3411 47.9392 50.2368 52.9575 45.7281 51.4019C41.2193 49.8464 41.5352 47.3998 42.7481 45.4419C40.3015 43.2516 43.4633 41.5143 46.3688 40.7246C49.2743 39.9349 51.8251 40.6441 49.5335 46.1691Z" fill="#263238"/>
<path d="M45.1171 46.014C45.1955 46.387 45.1614 46.7749 45.0191 47.1285C44.8768 47.4821 44.6328 47.7855 44.3179 48.0002C44.0031 48.215 43.6315 48.3315 43.2504 48.3349C42.8693 48.3383 42.4957 48.2285 42.1771 48.0194C41.8584 47.8103 41.609 47.5113 41.4604 47.1603C41.3118 46.8093 41.2708 46.4222 41.3425 46.0478C41.4141 45.6735 41.5953 45.3289 41.8631 45.0576C42.1308 44.7863 42.473 44.6006 42.8464 44.524C43.3448 44.4234 43.8628 44.5234 44.288 44.8024C44.7131 45.0813 45.0111 45.5167 45.1171 46.014V46.014Z" fill="#6633F2"/>
<path d="M43.7018 49.1344C44.5958 47.3464 43.8687 45.1233 42.483 43.6869C39.8606 40.9662 36.225 42.7542 37.2382 45.4451C38.4302 48.6546 32.1483 51.9535 35.8108 53.8547C39.3867 55.7172 45.3467 52.4332 43.672 49.1999C43.6809 49.1701 43.6928 49.1701 43.7018 49.1344Z" fill="#263238"/>
<path d="M48.5325 46.3002C48.6616 46.515 48.8344 46.7004 49.0398 46.8441C49.2452 46.9879 49.4784 47.0868 49.7245 47.1346C50.3205 47.2299 50.5172 46.5386 50.252 45.871C50.0106 45.275 49.4057 44.5151 48.8424 44.7237C48.2792 44.9323 48.1749 45.734 48.5325 46.3002Z" fill="#7F3E3B"/>
<path d="M44.0562 53.6396C42.2921 53.9108 41.5858 54.4472 40.1465 57.9904C40.7991 59.3106 43.8596 60.5771 43.8596 60.5771C43.8596 60.5771 45.8919 55.9998 44.0562 53.6396Z" fill="#263238"/>
<path d="M54.5698 71.0875C50.9556 71.4864 47.3081 71.4784 43.6958 71.0637C43.6581 71.0578 43.6224 71.0434 43.5912 71.0215C43.5601 70.9996 43.5345 70.9707 43.5163 70.9373C43.4981 70.9038 43.4879 70.8667 43.4865 70.8286C43.4851 70.7906 43.4924 70.7527 43.508 70.718C43.5974 70.5094 43.6838 70.3008 43.7703 70.0922C43.7891 70.0464 43.8221 70.0078 43.8645 69.982C43.9068 69.9563 43.9563 69.9448 44.0057 69.9491C47.4798 70.3321 50.9854 70.3321 54.4595 69.9491C54.4904 69.9467 54.5216 69.9504 54.551 69.96C54.5805 69.9697 54.6079 69.985 54.6314 70.0052C54.6549 70.0255 54.6742 70.0501 54.6882 70.0778C54.7022 70.1055 54.7105 70.1357 54.7128 70.1667C54.7337 70.3842 54.7575 70.5988 54.7784 70.8163C54.786 70.8798 54.7684 70.9438 54.7294 70.9945C54.6904 71.0452 54.6331 71.0786 54.5698 71.0875V71.0875Z" fill="#263238"/>
</svg>
