<svg width="151" height="151" viewBox="0 0 151 151" fill="none" xmlns="http://www.w3.org/2000/svg">
<path fill-rule="evenodd" clip-rule="evenodd" d="M68.4887 22.4694C78.4373 23.3848 87.4879 27.7325 95.5053 33.7483C103.445 39.7059 110.628 46.9623 113.757 56.4358C116.901 65.9541 116.91 76.6942 112.694 85.7802C108.722 94.3382 99.9769 99.0564 91.8224 103.7C84.5564 107.837 76.6797 109.355 68.4887 110.952C58.0454 112.988 47.1441 118.89 37.5361 114.285C27.5812 109.513 21.3883 98.3301 19.3511 87.3979C17.4293 77.0854 23.8805 67.6851 26.9861 57.6708C30.1373 47.5094 29.5637 35.2739 37.6397 28.424C45.856 21.4552 57.801 21.4861 68.4887 22.4694Z" fill="#FFDE29"/>
<path d="M135.87 120.344H125.868V120.42H135.87V120.344Z" fill="#EBEBEB"/>
<path d="M100.029 121.166H97.4043V121.242H100.029V121.166Z" fill="#EBEBEB"/>
<path d="M125.565 117.542H119.77V117.618H125.565V117.542Z" fill="#EBEBEB"/>
<path d="M28.8862 118.049H15.8428V118.124H28.8862V118.049Z" fill="#EBEBEB"/>
<path d="M33.4888 118.049H31.5771V118.125H33.4888V118.049Z" fill="#EBEBEB"/>
<path d="M67.9955 119.323H39.7041V119.399H67.9955V119.323Z" fill="#EBEBEB"/>
<path d="M71.5741 102.016H13.264C12.8066 102.016 12.368 101.834 12.0446 101.511C11.7212 101.187 11.5396 100.749 11.5396 100.292V18.3197C11.5435 17.8649 11.727 17.4302 12.0499 17.1101C12.3729 16.7899 12.8092 16.6103 13.264 16.6104H71.5741C72.0315 16.6104 72.4701 16.792 72.7935 17.1154C73.1169 17.4388 73.2985 17.8774 73.2985 18.3348V100.292C73.2985 100.749 73.1169 101.187 72.7935 101.511C72.4701 101.834 72.0315 102.016 71.5741 102.016V102.016ZM13.264 16.6708C12.8269 16.6716 12.408 16.8455 12.0989 17.1546C11.7898 17.4637 11.6158 17.8826 11.6151 18.3197V100.292C11.6158 100.729 11.7898 101.148 12.0989 101.457C12.408 101.766 12.8269 101.94 13.264 101.94H71.5741C72.0112 101.94 72.4301 101.766 72.7392 101.457C73.0483 101.148 73.2222 100.729 73.223 100.292V18.3197C73.2222 17.8826 73.0483 17.4637 72.7392 17.1546C72.4301 16.8455 72.0112 16.6716 71.5741 16.6708H13.264Z" fill="#EBEBEB"/>
<path d="M136.899 102.016H78.5833C78.1262 102.015 77.6881 101.833 77.3648 101.51C77.0416 101.187 76.8597 100.749 76.8589 100.292V18.3197C76.8637 17.8652 77.0473 17.4309 77.3701 17.1109C77.6929 16.791 78.1288 16.6111 78.5833 16.6104H136.899C137.353 16.6119 137.788 16.7922 138.11 17.1122C138.431 17.4322 138.614 17.866 138.618 18.3197V100.292C138.618 100.748 138.437 101.186 138.115 101.509C137.793 101.832 137.356 102.014 136.899 102.016V102.016ZM78.5833 16.6708C78.1462 16.6716 77.7273 16.8455 77.4182 17.1546C77.1092 17.4637 76.9352 17.8826 76.9344 18.3197V100.292C76.9352 100.729 77.1092 101.148 77.4182 101.457C77.7273 101.766 78.1462 101.94 78.5833 101.94H136.899C137.337 101.94 137.756 101.766 138.065 101.457C138.374 101.148 138.548 100.729 138.548 100.292V18.3197C138.548 17.8826 138.374 17.4637 138.065 17.1546C137.756 16.8455 137.337 16.6716 136.899 16.6708H78.5833Z" fill="#EBEBEB"/>
<path d="M151 115.485H0V115.561H151V115.485Z" fill="#EBEBEB"/>
<path d="M65.0084 30.7046C64.8298 30.7042 64.6529 30.7391 64.4879 30.8072C64.3228 30.8754 64.1728 30.9755 64.0466 31.1017C63.9203 31.228 63.8202 31.378 63.7521 31.5431C63.6839 31.7081 63.649 31.885 63.6494 32.0636V34.4283H66.3674V32.0636C66.3678 31.885 66.3329 31.7081 66.2648 31.5431C66.1966 31.378 66.0965 31.228 65.9703 31.1017C65.844 30.9755 65.694 30.8754 65.529 30.8072C65.3639 30.7391 65.187 30.7042 65.0084 30.7046ZM65.0084 32.6918C64.9236 32.6918 64.8407 32.6666 64.7702 32.6195C64.6996 32.5724 64.6447 32.5054 64.6122 32.427C64.5798 32.3487 64.5713 32.2624 64.5878 32.1792C64.6044 32.0961 64.6452 32.0197 64.7052 31.9597C64.7652 31.8997 64.8416 31.8589 64.9248 31.8423C65.0079 31.8258 65.0942 31.8343 65.1725 31.8667C65.2509 31.8992 65.3179 31.9541 65.365 32.0247C65.4121 32.0952 65.4373 32.1781 65.4373 32.2629C65.4373 32.3766 65.3921 32.4857 65.3117 32.5661C65.2312 32.6466 65.1222 32.6918 65.0084 32.6918V32.6918Z" fill="#E0E0E0"/>
<path d="M120.879 30.7046C120.7 30.7042 120.523 30.7391 120.358 30.8072C120.193 30.8754 120.043 30.9755 119.917 31.1017C119.79 31.228 119.69 31.378 119.622 31.5431C119.554 31.7081 119.519 31.885 119.52 32.0636V34.4283H122.238V32.0636C122.238 31.885 122.203 31.7081 122.135 31.5431C122.067 31.378 121.967 31.228 121.84 31.1017C121.714 30.9755 121.564 30.8754 121.399 30.8072C121.234 30.7391 121.057 30.7042 120.879 30.7046V30.7046ZM120.879 32.6918C120.794 32.6918 120.711 32.6666 120.64 32.6195C120.57 32.5724 120.515 32.5054 120.482 32.427C120.45 32.3487 120.441 32.2624 120.458 32.1792C120.474 32.0961 120.515 32.0197 120.575 31.9597C120.635 31.8997 120.712 31.8589 120.795 31.8423C120.878 31.8258 120.964 31.8343 121.043 31.8667C121.121 31.8992 121.188 31.9541 121.235 32.0247C121.282 32.0952 121.307 32.1781 121.307 32.2629C121.307 32.3192 121.296 32.375 121.275 32.427C121.253 32.4791 121.222 32.5263 121.182 32.5661C121.142 32.606 121.095 32.6376 121.043 32.6591C120.991 32.6807 120.935 32.6918 120.879 32.6918V32.6918Z" fill="#E0E0E0"/>
<path d="M128.567 33.5225H57.3164V74.3861H128.567V33.5225Z" fill="#EBEBEB"/>
<path d="M126.605 35.4854H59.2798V72.423H126.605V35.4854Z" fill="#F5F5F5"/>
<path d="M129.89 73H56V76.1046H129.89V73Z" fill="#F0F0F0"/>
<path d="M80.0302 41.9785H67.3462V63.1185H118.535V41.9785H80.0302ZM108.608 52.3975H99.2857V49.2265H108.611L108.608 52.3975ZM108.608 55.8705H99.2857V52.6995H108.611L108.608 55.8705ZM108.608 59.3435H99.2857V56.1725H108.611L108.608 59.3435ZM71.1242 56.1725H79.7282V59.3435H71.1212L71.1242 56.1725ZM71.1242 52.6995H79.7282V55.8705H71.1212L71.1242 52.6995ZM71.1242 49.2265H79.7282V52.3975H71.1212L71.1242 49.2265ZM71.1242 45.7535H79.7282V48.9245H71.1212L71.1242 45.7535ZM98.9837 52.3975H89.661V49.2265H98.9837V52.3975ZM98.9837 55.8705H89.661V52.6995H98.9837V55.8705ZM80.0302 52.6995H89.356V55.8705H80.0302V52.6995ZM89.356 52.3975H80.0302V49.2265H89.356V52.3975ZM80.0302 56.1725H89.356V59.3435H80.0302V56.1725ZM89.658 56.1725H98.9807V59.3435H89.661L89.658 56.1725ZM98.9807 48.9245H80.0302V45.7535H98.9807V48.9245ZM67.6482 42.2805H79.7282V45.4515H67.6482V42.2805ZM67.6482 45.7535H70.8192V48.9245H67.6482V45.7535ZM67.6482 49.2265H70.8192V52.3975H67.6482V49.2265ZM67.6482 52.6995H70.8192V55.8705H67.6482V52.6995ZM67.6482 56.1725H70.8192V59.3435H67.6482V56.1725ZM70.8192 62.8165H67.6482V59.6455H70.8192V62.8165ZM79.7282 62.8165H71.1212V59.6455H79.7282V62.8165ZM89.356 62.8165H80.0302V59.6455H89.356V62.8165ZM98.9807 62.8165H89.661V59.6455H98.9837L98.9807 62.8165ZM108.608 62.8165H99.2857V59.6455H108.611L108.608 62.8165ZM118.233 62.8165H108.913V59.6455H118.236L118.233 62.8165ZM118.233 59.3435H108.913V56.1725H118.236L118.233 59.3435ZM118.233 55.8705H108.913V52.6995H118.236L118.233 55.8705ZM118.233 52.3975H108.913V49.2265H118.236L118.233 52.3975ZM118.233 48.9245H99.2857V45.7535H118.236L118.233 48.9245ZM99.2827 45.4515H80.0302V42.2805H118.233V45.4515H99.2827Z" fill="#E0E0E0"/>
<path d="M27.1768 58.54H20.3818V115.612H27.1768V58.54Z" fill="#E0E0E0"/>
<path d="M45.5084 58.54H26.4341V115.612H45.5084V58.54Z" fill="#EBEBEB"/>
<path d="M43.5665 60.4819H28.3789V75.6695H43.5665V60.4819Z" fill="#FAFAFA"/>
<path d="M40.0815 69.418H31.8641C31.8091 69.4184 31.7546 69.4079 31.7037 69.3871C31.6528 69.3664 31.6065 69.3357 31.5675 69.297C31.5284 69.2583 31.4975 69.2122 31.4763 69.1614C31.4552 69.1107 31.4443 69.0562 31.4443 69.0012V69.0012C31.4443 68.9463 31.4552 68.8918 31.4763 68.841C31.4975 68.7903 31.5284 68.7442 31.5675 68.7055C31.6065 68.6667 31.6528 68.6361 31.7037 68.6153C31.7546 68.5946 31.8091 68.5841 31.8641 68.5845H40.0815C40.1921 68.5845 40.2981 68.6284 40.3762 68.7065C40.4544 68.7847 40.4983 68.8907 40.4983 69.0012V69.0012C40.4983 69.1118 40.4544 69.2178 40.3762 69.2959C40.2981 69.3741 40.1921 69.418 40.0815 69.418V69.418Z" fill="#E0E0E0"/>
<path d="M40.0815 71.088H31.8641C31.7528 71.088 31.646 71.0438 31.5673 70.9651C31.4886 70.8863 31.4443 70.7796 31.4443 70.6682C31.4443 70.6133 31.4552 70.5588 31.4763 70.508C31.4975 70.4573 31.5284 70.4112 31.5675 70.3725C31.6065 70.3337 31.6528 70.3031 31.7037 70.2823C31.7546 70.2616 31.8091 70.2511 31.8641 70.2515H40.0815C40.1921 70.2515 40.2981 70.2954 40.3762 70.3735C40.4544 70.4517 40.4983 70.5577 40.4983 70.6682V70.6682C40.4987 70.7232 40.4882 70.7777 40.4674 70.8287C40.4467 70.8796 40.416 70.9259 40.3773 70.9649C40.3386 71.0039 40.2925 71.0349 40.2417 71.056C40.191 71.0771 40.1365 71.088 40.0815 71.088V71.088Z" fill="#E0E0E0"/>
<path d="M40.0815 72.7554H31.8641C31.8091 72.7558 31.7546 72.7453 31.7037 72.7246C31.6528 72.7038 31.6065 72.6732 31.5675 72.6344C31.5284 72.5957 31.4975 72.5496 31.4763 72.4988C31.4552 72.4481 31.4443 72.3936 31.4443 72.3386V72.3386C31.4443 72.2837 31.4552 72.2292 31.4763 72.1785C31.4975 72.1277 31.5284 72.0816 31.5675 72.0429C31.6065 72.0041 31.6528 71.9735 31.7037 71.9527C31.7546 71.932 31.8091 71.9215 31.8641 71.9219H40.0815C40.1921 71.9219 40.2981 71.9658 40.3762 72.044C40.4544 72.1221 40.4983 72.2281 40.4983 72.3386V72.3386C40.4983 72.4492 40.4544 72.5552 40.3762 72.6333C40.2981 72.7115 40.1921 72.7554 40.0815 72.7554V72.7554Z" fill="#E0E0E0"/>
<path d="M37.5901 66.3376H34.3526L33.501 65.4829V63.6589L34.3526 62.8042H37.5901L38.4447 63.6589V65.4829L37.5901 66.3376Z" fill="#EBEBEB"/>
<path d="M43.5665 77.125H28.3789V92.3126H43.5665V77.125Z" fill="#FAFAFA"/>
<path d="M40.0815 86.0703H31.8641C31.8091 86.0707 31.7546 86.0602 31.7037 86.0395C31.6528 86.0187 31.6065 85.9881 31.5675 85.9493C31.5284 85.9106 31.4975 85.8645 31.4763 85.8138C31.4552 85.763 31.4443 85.7086 31.4443 85.6536V85.6536C31.4443 85.5986 31.4552 85.5442 31.4763 85.4934C31.4975 85.4426 31.5284 85.3966 31.5675 85.3578C31.6065 85.3191 31.6528 85.2884 31.7037 85.2677C31.7546 85.2469 31.8091 85.2364 31.8641 85.2368H40.0815C40.1921 85.2368 40.2981 85.2807 40.3762 85.3589C40.4544 85.4371 40.4983 85.5431 40.4983 85.6536V85.6536C40.4983 85.7641 40.4544 85.8701 40.3762 85.9483C40.2981 86.0264 40.1921 86.0703 40.0815 86.0703V86.0703Z" fill="#E0E0E0"/>
<path d="M40.0815 87.7286H31.8641C31.8091 87.7289 31.7546 87.7185 31.7037 87.6977C31.6528 87.6769 31.6065 87.6463 31.5675 87.6076C31.5284 87.5688 31.4975 87.5227 31.4763 87.472C31.4552 87.4212 31.4443 87.3668 31.4443 87.3118V87.3118C31.4443 87.2568 31.4552 87.2024 31.4763 87.1516C31.4975 87.1008 31.5284 87.0548 31.5675 87.016C31.6065 86.9773 31.6528 86.9466 31.7037 86.9259C31.7546 86.9051 31.8091 86.8946 31.8641 86.895H40.0815C40.1921 86.895 40.2981 86.9389 40.3762 87.0171C40.4544 87.0953 40.4983 87.2013 40.4983 87.3118V87.3118C40.4983 87.4223 40.4544 87.5283 40.3762 87.6065C40.2981 87.6846 40.1921 87.7286 40.0815 87.7286V87.7286Z" fill="#E0E0E0"/>
<path d="M40.0815 89.3921H31.8641C31.8091 89.3925 31.7546 89.382 31.7037 89.3613C31.6528 89.3405 31.6065 89.3099 31.5675 89.2711C31.5284 89.2324 31.4975 89.1863 31.4763 89.1356C31.4552 89.0848 31.4443 89.0304 31.4443 88.9754V88.9754C31.4443 88.9204 31.4552 88.8659 31.4763 88.8152C31.4975 88.7644 31.5284 88.7183 31.5675 88.6796C31.6065 88.6409 31.6528 88.6102 31.7037 88.5895C31.7546 88.5687 31.8091 88.5582 31.8641 88.5586H40.0815C40.1921 88.5586 40.2981 88.6025 40.3762 88.6807C40.4544 88.7588 40.4983 88.8648 40.4983 88.9754V88.9754C40.4983 89.0859 40.4544 89.1919 40.3762 89.2701C40.2981 89.3482 40.1921 89.3921 40.0815 89.3921V89.3921Z" fill="#E0E0E0"/>
<path d="M37.5901 82.9776H34.3526L33.501 82.123V80.3019L34.3526 79.4473H37.5901L38.4447 80.3019V82.123L37.5901 82.9776Z" fill="#EBEBEB"/>
<path d="M43.5665 93.7651H28.3789V108.953H43.5665V93.7651Z" fill="#FAFAFA"/>
<path d="M40.0815 102.702H31.8641C31.8091 102.702 31.7546 102.692 31.7037 102.671C31.6528 102.65 31.6065 102.619 31.5675 102.581C31.5284 102.542 31.4975 102.496 31.4763 102.445C31.4552 102.394 31.4443 102.34 31.4443 102.285V102.285C31.4443 102.23 31.4552 102.176 31.4763 102.125C31.4975 102.074 31.5284 102.028 31.5675 101.989C31.6065 101.95 31.6528 101.92 31.7037 101.899C31.7546 101.878 31.8091 101.868 31.8641 101.868H40.0815C40.1921 101.868 40.2981 101.912 40.3762 101.99C40.4544 102.068 40.4983 102.174 40.4983 102.285V102.285C40.4983 102.395 40.4544 102.501 40.3762 102.58C40.2981 102.658 40.1921 102.702 40.0815 102.702V102.702Z" fill="#E0E0E0"/>
<path d="M40.0815 104.372H31.8641C31.8091 104.372 31.7546 104.362 31.7037 104.341C31.6528 104.32 31.6065 104.289 31.5675 104.251C31.5284 104.212 31.4975 104.166 31.4763 104.115C31.4552 104.064 31.4443 104.01 31.4443 103.955V103.955C31.4443 103.844 31.4886 103.737 31.5673 103.658C31.646 103.579 31.7528 103.535 31.8641 103.535H40.0815C40.1365 103.535 40.191 103.546 40.2417 103.567C40.2925 103.588 40.3386 103.619 40.3773 103.658C40.416 103.697 40.4467 103.744 40.4674 103.795C40.4882 103.845 40.4987 103.9 40.4983 103.955V103.955C40.4983 104.065 40.4544 104.171 40.3762 104.25C40.2981 104.328 40.1921 104.372 40.0815 104.372V104.372Z" fill="#E0E0E0"/>
<path d="M40.0815 106.039H31.8641C31.8091 106.039 31.7546 106.029 31.7037 106.008C31.6528 105.987 31.6065 105.956 31.5675 105.918C31.5284 105.879 31.4975 105.833 31.4763 105.782C31.4552 105.731 31.4443 105.677 31.4443 105.622V105.622C31.4443 105.567 31.4552 105.512 31.4763 105.462C31.4975 105.411 31.5284 105.365 31.5675 105.326C31.6065 105.287 31.6528 105.257 31.7037 105.236C31.7546 105.215 31.8091 105.205 31.8641 105.205H40.0815C40.1921 105.205 40.2981 105.249 40.3762 105.327C40.4544 105.405 40.4983 105.511 40.4983 105.622V105.622C40.4983 105.732 40.4544 105.838 40.3762 105.917C40.2981 105.995 40.1921 106.039 40.0815 106.039V106.039Z" fill="#E0E0E0"/>
<path d="M37.5901 99.6213H34.3526L33.501 98.7666V96.9425L34.3526 96.0879H37.5901L38.4447 96.9425V98.7666L37.5901 99.6213Z" fill="#EBEBEB"/>
<path d="M35.8173 124.37L28.2069 121.567L20.512 124.373C20.4504 124.395 20.3843 124.402 20.3193 124.394C20.2544 124.385 20.1925 124.361 20.1389 124.323C20.0852 124.286 20.0415 124.236 20.0113 124.177C19.981 124.119 19.9653 124.055 19.9653 123.989C19.9652 123.912 19.9873 123.836 20.0291 123.77C20.0708 123.705 20.1305 123.653 20.2009 123.621L28.2069 119.894L36.1314 123.609C36.2016 123.641 36.261 123.693 36.3028 123.759C36.3445 123.824 36.3667 123.9 36.367 123.977C36.3687 124.044 36.354 124.11 36.3243 124.169C36.2945 124.229 36.2506 124.281 36.1964 124.319C36.1421 124.358 36.0792 124.383 36.0131 124.392C35.947 124.4 35.8798 124.393 35.8173 124.37Z" fill="#263238"/>
<path opacity="0.3" d="M35.8173 124.37L28.2069 121.567L20.512 124.373C20.4504 124.395 20.3843 124.402 20.3193 124.394C20.2544 124.385 20.1925 124.361 20.1389 124.323C20.0852 124.286 20.0415 124.236 20.0113 124.177C19.981 124.119 19.9653 124.055 19.9653 123.989C19.9652 123.912 19.9873 123.836 20.0291 123.77C20.0708 123.705 20.1305 123.653 20.2009 123.621L28.2069 119.894L36.1314 123.609C36.2016 123.641 36.261 123.693 36.3028 123.759C36.3445 123.824 36.3667 123.9 36.367 123.977C36.3687 124.044 36.354 124.11 36.3243 124.169C36.2945 124.229 36.2506 124.281 36.1964 124.319C36.1421 124.358 36.0792 124.383 36.0131 124.392C35.947 124.4 35.8798 124.393 35.8173 124.37Z" fill="white"/>
<path opacity="0.2" d="M26.4126 122.22L28.2065 121.567L29.9158 122.198V120.707L28.2065 119.906L26.4126 120.737V122.22Z" fill="black"/>
<path d="M28.1645 124.424C27.9961 124.426 27.8331 124.365 27.707 124.253C27.5809 124.142 27.5007 123.987 27.482 123.82L27.2676 121.564V102.84H29.0524V121.564L28.838 123.82C28.8201 123.986 28.7414 124.139 28.6171 124.251C28.4927 124.362 28.3315 124.424 28.1645 124.424V124.424Z" fill="#263238"/>
<path opacity="0.3" d="M28.1645 124.424C27.9961 124.426 27.8331 124.365 27.707 124.253C27.5809 124.142 27.5007 123.987 27.482 123.82L27.2676 121.564V102.84H29.0524V121.564L28.838 123.82C28.8201 123.986 28.7414 124.139 28.6171 124.251C28.4927 124.362 28.3315 124.424 28.1645 124.424V124.424Z" fill="white"/>
<path opacity="0.2" d="M29.0521 102.837H27.2764V105.017H29.0521V102.837Z" fill="black"/>
<path d="M24.1841 83.5422C24.3218 83.5387 24.4578 83.5732 24.5771 83.6419C24.6965 83.7107 24.7946 83.811 24.8606 83.9318C28.1102 89.3761 29.2775 95.8132 28.1464 102.052C28.1291 102.209 28.0559 102.355 27.9401 102.463C27.8243 102.572 27.6735 102.634 27.5152 102.641C27.0229 102.677 18.2589 102.641 17.9418 102.641C17.812 102.644 17.683 102.618 17.5642 102.566C17.4455 102.513 17.3397 102.435 17.2546 102.337C17.1695 102.239 17.1071 102.123 17.0719 101.998C17.0367 101.873 17.0295 101.742 17.0509 101.614C18.0744 95.8053 16.9666 89.8224 13.9312 84.7653C13.861 84.6396 13.8255 84.4976 13.8283 84.3536C13.831 84.2097 13.872 84.0691 13.947 83.9462C14.0219 83.8233 14.1282 83.7225 14.2549 83.6542C14.3816 83.5859 14.5242 83.5524 14.6681 83.5573C14.9218 83.5362 23.6254 83.5513 24.1841 83.5422Z" fill="#6633F2"/>
<path opacity="0.2" d="M24.1841 83.5422C24.3218 83.5387 24.4578 83.5732 24.5771 83.6419C24.6965 83.7107 24.7946 83.811 24.8606 83.9318C28.1102 89.3761 29.2775 95.8132 28.1464 102.052C28.1291 102.209 28.0559 102.355 27.9401 102.463C27.8243 102.572 27.6735 102.634 27.5152 102.641C27.0229 102.677 18.2589 102.641 17.9418 102.641C17.812 102.644 17.683 102.618 17.5642 102.566C17.4455 102.513 17.3397 102.435 17.2546 102.337C17.1695 102.239 17.1071 102.123 17.0719 101.998C17.0367 101.873 17.0295 101.742 17.0509 101.614C18.0744 95.8053 16.9666 89.8224 13.9312 84.7653C13.861 84.6396 13.8255 84.4976 13.8283 84.3536C13.831 84.2097 13.872 84.0691 13.947 83.9462C14.0219 83.8233 14.1282 83.7225 14.2549 83.6542C14.3816 83.5859 14.5242 83.5524 14.6681 83.5573C14.9218 83.5362 23.6254 83.5513 24.1841 83.5422Z" fill="black"/>
<path d="M17.0508 101.608C18.0743 95.7993 16.9665 89.8164 13.9311 84.7593C13.3875 83.8533 14.8039 83.0289 15.3475 83.9319C18.5956 89.3767 19.7627 95.8133 18.6333 102.052C18.446 103.088 16.8636 102.656 17.0508 101.617V101.608Z" fill="#6633F2"/>
<g opacity="0.1">
<path opacity="0.1" d="M17.0508 101.608C18.0743 95.7993 16.9665 89.8164 13.9311 84.7593C13.3875 83.8533 14.8039 83.0289 15.3475 83.9319C18.5956 89.3767 19.7627 95.8133 18.6333 102.052C18.446 103.088 16.8636 102.656 17.0508 101.617V101.608Z" fill="white"/>
</g>
<path d="M44.3938 101.134C42.3844 100.622 40.3239 100.339 38.2511 100.288C36.1159 100.234 28.1341 100.288 26.2375 100.288C23.9256 100.285 21.6225 100.572 19.3821 101.143C17.9748 101.502 18.4066 103.532 19.6841 103.559C19.7958 103.559 43.9347 103.559 44.0223 103.559C45.33 103.607 45.8162 101.499 44.3938 101.134Z" fill="#6633F2"/>
<path opacity="0.3" d="M44.3938 101.134C42.3844 100.622 40.3239 100.339 38.2511 100.288C36.1159 100.234 28.1341 100.288 26.2375 100.288C23.9256 100.285 21.6225 100.572 19.3821 101.143C17.9748 101.502 18.4066 103.532 19.6841 103.559C19.7958 103.559 43.9347 103.559 44.0223 103.559C45.33 103.607 45.8162 101.499 44.3938 101.134Z" fill="black"/>
<path d="M20.0194 103.504C24.0889 102.468 28.353 102.468 32.4225 103.504C33.9567 103.894 34.612 101.523 33.0779 101.133C28.5789 99.992 23.8661 99.992 19.3671 101.133C17.8329 101.523 18.4822 103.894 20.0194 103.504V103.504Z" fill="#6633F2"/>
<g opacity="0.3">
<path opacity="0.3" d="M20.0194 103.504C24.0889 102.468 28.353 102.468 32.4225 103.504C33.9567 103.894 34.612 101.523 33.0779 101.133C28.5789 99.992 23.8661 99.992 19.3671 101.133C17.8329 101.523 18.4822 103.894 20.0194 103.504V103.504Z" fill="white"/>
</g>
<path d="M42.2378 88.2988L45.0132 88.181L45.8437 87.6495C45.9405 87.5868 46.0492 87.5447 46.163 87.526C46.2768 87.5073 46.3933 87.5123 46.5051 87.5408L47.1091 87.6888C47.2615 87.727 47.4216 87.722 47.5714 87.6746C47.7213 87.6271 47.855 87.539 47.9577 87.42C48.0402 87.324 48.1001 87.2107 48.1332 87.0885C48.1662 86.9663 48.1715 86.8382 48.1486 86.7137C48.1257 86.5892 48.0753 86.4714 48.001 86.3689C47.9266 86.2664 47.8303 86.1818 47.7191 86.1214L46.8131 85.6322C46.6718 85.5551 46.5114 85.5201 46.3508 85.5314C46.1903 85.5426 46.0363 85.5996 45.9071 85.6956L44.4454 86.7767L42.2438 86.6227L42.2378 88.2988Z" fill="#EBB376"/>
<path d="M39.2329 77.5415L38.2725 85.9975L43.6753 86.3841L43.4367 88.3259C43.4367 88.3259 37.9735 89.2803 35.9713 88.7336C33.969 88.187 36.6357 79.0364 36.6357 79.0364L39.2329 77.5415Z" fill="#6633F2"/>
<path opacity="0.2" d="M39.2329 77.5415L38.2725 85.9975L43.6753 86.3841L43.4367 88.3259C43.4367 88.3259 37.9735 89.2803 35.9713 88.7336C33.969 88.187 36.6357 79.0364 36.6357 79.0364L39.2329 77.5415Z" fill="white"/>
<path opacity="0.1" d="M37.4994 87.9727C36.089 87.2389 37.9826 80.1992 38.65 77.8799L36.6357 79.0426C36.6357 79.0426 33.969 88.1932 35.9713 88.7398C37.2034 89.075 39.7402 88.8455 41.513 88.616C40.305 88.616 38.5383 88.5133 37.4994 87.9727Z" fill="black"/>
<path d="M34.4518 94.0672C30.4629 94.8111 26.395 95.0405 22.3477 94.7497C22.3477 94.7497 23.2778 83.923 26.5757 77.9978C27.1003 77.0566 27.9644 76.3512 28.9917 76.0257C31.3593 75.2889 35.1676 74.6275 39.2204 77.5357C39.2325 77.5418 37.1819 81.3651 34.4518 94.0672Z" fill="#6633F2"/>
<path opacity="0.4" d="M34.4518 94.0672C30.4629 94.8111 26.395 95.0405 22.3477 94.7497C22.3477 94.7497 23.2778 83.923 26.5757 77.9978C27.1003 77.0566 27.9644 76.3512 28.9917 76.0257C31.3593 75.2889 35.1676 74.6275 39.2204 77.5357C39.2325 77.5418 37.1819 81.3651 34.4518 94.0672Z" fill="white"/>
<path d="M36.4209 80.2383C36.4209 80.3028 36.4017 80.3658 36.3659 80.4195C36.3301 80.4731 36.2791 80.5149 36.2195 80.5396C36.1599 80.5643 36.0944 80.5707 36.0311 80.5582C35.9678 80.5456 35.9097 80.5145 35.8641 80.4689C35.8185 80.4233 35.7874 80.3652 35.7748 80.3019C35.7622 80.2386 35.7687 80.1731 35.7934 80.1135C35.8181 80.0539 35.8599 80.0029 35.9135 79.9671C35.9671 79.9312 36.0302 79.9121 36.0947 79.9121C36.1812 79.9121 36.2642 79.9465 36.3253 80.0076C36.3865 80.0688 36.4209 80.1518 36.4209 80.2383Z" fill="#6633F2"/>
<path d="M35.2734 83.5635C35.2734 83.628 35.2543 83.691 35.2185 83.7447C35.1826 83.7983 35.1317 83.8401 35.0721 83.8648C35.0125 83.8895 34.9469 83.8959 34.8836 83.8834C34.8204 83.8708 34.7622 83.8397 34.7166 83.7941C34.671 83.7485 34.6399 83.6904 34.6274 83.6271C34.6148 83.5638 34.6212 83.4983 34.6459 83.4387C34.6706 83.3791 34.7124 83.3281 34.7661 83.2923C34.8197 83.2564 34.8827 83.2373 34.9473 83.2373C35.0338 83.2373 35.1167 83.2717 35.1779 83.3328C35.2391 83.394 35.2734 83.477 35.2734 83.5635V83.5635Z" fill="#6633F2"/>
<path d="M33.9053 88.2988C34.0854 88.2988 34.2314 88.1528 34.2314 87.9726C34.2314 87.7925 34.0854 87.6465 33.9053 87.6465C33.7251 87.6465 33.5791 87.7925 33.5791 87.9726C33.5791 88.1528 33.7251 88.2988 33.9053 88.2988Z" fill="#6633F2"/>
<path d="M33.374 91.642C33.3746 91.7066 33.356 91.77 33.3205 91.824C33.285 91.878 33.2343 91.9203 33.1747 91.9455C33.1152 91.9706 33.0495 91.9775 32.9861 91.9653C32.9226 91.953 32.8642 91.9222 32.8183 91.8767C32.7724 91.8312 32.741 91.7731 32.7282 91.7098C32.7153 91.6464 32.7216 91.5807 32.7462 91.5209C32.7708 91.4611 32.8126 91.41 32.8663 91.374C32.92 91.3381 32.9832 91.3189 33.0478 91.3188C33.1338 91.3188 33.2163 91.3528 33.2774 91.4133C33.3385 91.4738 33.3732 91.556 33.374 91.642V91.642Z" fill="#6633F2"/>
<path opacity="0.1" d="M36.8226 84.4239L32.7214 85.3481L29.49 84.4602L28.2156 80.8181L27.9408 78.7705H27.0348C27.0348 78.7705 26.168 85.2937 29.1276 87.9724C30.9728 89.6425 33.9868 88.5553 35.9921 87.4983C36.284 86.3628 36.5608 85.338 36.8226 84.4239Z" fill="black"/>
<path d="M39.4771 113.757L38.0547 119.951L39.8214 120.637L42.3642 114.407L39.4771 113.757Z" fill="#EBB376"/>
<path d="M39.7189 120.229L38.1153 119.372C38.0811 119.354 38.0421 119.348 38.0043 119.356C37.9666 119.363 37.9323 119.382 37.9069 119.411L36.7623 120.737C36.7376 120.764 36.7186 120.796 36.7065 120.831C36.6943 120.866 36.6892 120.903 36.6914 120.94C36.6937 120.977 36.7032 121.013 36.7196 121.046C36.7359 121.079 36.7586 121.108 36.7865 121.132C36.8011 121.146 36.8173 121.159 36.8348 121.169C37.5082 121.516 38.1213 121.8 38.9488 122.247C39.9303 122.775 39.6162 122.757 40.7608 123.394C41.4493 123.778 42.002 123.056 41.7272 122.86C40.4739 121.954 40.3048 121.35 40.0451 120.583C39.9819 120.43 39.8662 120.305 39.7189 120.229Z" fill="#263238"/>
<path d="M25.1655 94.5441L33.8239 94.0669C33.8239 94.0669 48.2323 96.3198 48.0179 100.348C47.8034 104.377 41.9779 117.079 41.9779 117.079L38.5411 116.125C38.5411 116.125 41.1594 103.353 42.8658 101.236C42.8658 101.236 32.1055 99.974 29.4116 99.2583C27.9167 98.8627 24.3441 99.5301 25.1655 94.5441Z" fill="#263238"/>
<path opacity="0.2" d="M41.395 101.061C41.4472 99.8669 41.2208 98.6769 40.7336 97.5852C39.9333 95.7732 33.3377 94.689 30.1818 94.2632L25.1655 94.538C24.3441 99.524 27.9168 98.8566 29.3935 99.2522C31.4773 99.8109 38.3539 100.69 41.395 101.061Z" fill="black"/>
<path d="M33.5854 115.464L33.3589 121.815L35.2705 121.906L36.542 115.554L33.5854 115.464Z" fill="#EBB376"/>
<path d="M35.1346 121.329L33.2803 121.368C33.2411 121.368 33.2033 121.382 33.1734 121.407C33.1436 121.433 33.1237 121.468 33.1173 121.507L32.7609 123.252C32.7486 123.326 32.7644 123.402 32.8052 123.466C32.8459 123.529 32.9087 123.574 32.9814 123.594H33.0418C33.8149 123.566 34.4974 123.512 35.4578 123.494C36.5933 123.473 36.3064 123.615 37.6412 123.609C38.4445 123.609 38.5744 122.703 38.2452 122.651C36.6839 122.485 36.2248 122.017 35.6148 121.47C35.4781 121.365 35.3068 121.314 35.1346 121.329Z" fill="#263238"/>
<path d="M27.482 94.5439C27.482 94.5439 39.0909 94.9547 39.7764 98.5062C40.462 102.058 36.5662 117.967 36.5662 117.967H33.0871C33.0871 117.967 33.4948 103.695 34.6575 100.69C34.6575 100.69 25.0962 102.2 22.5775 100.022C20.7655 98.473 22.9188 94.5439 22.9188 94.5439H27.482Z" fill="#263238"/>
<path d="M38.2515 115.373L42.5791 116.578L41.7879 118.242L37.8438 117.264L38.2515 115.373Z" fill="#263238"/>
<path opacity="0.3" d="M38.2515 115.373L42.5791 116.578L41.7879 118.242L37.8438 117.264L38.2515 115.373Z" fill="black"/>
<path d="M38.0518 83.2313L41.5097 82.0928L43.7233 83.0833C43.8272 83.1291 43.9184 83.1995 43.9889 83.2884C44.0594 83.3773 44.1071 83.4821 44.128 83.5937L44.3605 84.8531C44.3796 84.9539 44.3763 85.0577 44.3506 85.1571C44.325 85.2565 44.2778 85.349 44.2123 85.428C44.1468 85.507 44.0647 85.5706 43.9719 85.6143C43.879 85.6579 43.7776 85.6806 43.675 85.6805C43.512 85.6801 43.3542 85.6236 43.228 85.5205L41.2832 83.9138L38.2632 85.1218L38.0518 83.2313Z" fill="#EBB376"/>
<path d="M32.7427 117.079L37.1156 117.284L36.7049 119.027L32.7427 118.822V117.079Z" fill="#263238"/>
<path opacity="0.3" d="M32.7427 117.079L37.1156 117.284L36.7049 119.027L32.7427 118.822V117.079Z" fill="black"/>
<path d="M27.2584 77.5417C27.9318 76.533 29.0039 75.479 31.7189 84.3699L39.8638 82.3676L40.1024 84.5873C40.1024 84.5873 33.4584 88.1479 30.7918 87.6496C28.1251 87.1513 25.4071 80.314 27.2584 77.5417Z" fill="#6633F2"/>
<path opacity="0.2" d="M27.2584 77.5417C27.9318 76.533 29.0039 75.479 31.7189 84.3699L39.8638 82.3676L40.1024 84.5873C40.1024 84.5873 33.4584 88.1479 30.7918 87.6496C28.1251 87.1513 25.4071 80.314 27.2584 77.5417Z" fill="white"/>
<path d="M35.7717 74.4463L34.2285 75.8929C34.2285 75.8929 34.8325 77.7683 36.3697 77.7683C37.9069 77.7683 36.9737 75.3946 36.9737 75.3946L35.7717 74.4463Z" fill="#EBB376"/>
<path d="M36.5871 78.8552L37.3361 78.4626L37.6532 77.9855L37.5203 76.5057C36.2829 75.8833 34.9338 75.5137 33.552 75.4185L33.4946 76.107L34.3312 78.523L35.3066 78.8461L36.5871 78.8552Z" fill="#EBB376"/>
<path opacity="0.1" d="M36.9768 75.3946L35.7688 74.4463L35.5634 74.6365C35.4457 75.3432 35.3098 76.8109 36.0919 77.3878C36.2126 77.4861 36.3552 77.5539 36.5077 77.5854C36.6601 77.6169 36.8179 77.6113 36.9677 77.569C37.608 77.0103 36.9768 75.3946 36.9768 75.3946Z" fill="black"/>
<path d="M36.1585 79.0427L37.3182 79.6467C38.1336 78.6773 37.9222 77.3183 37.744 76.6086C37.6081 76.5361 37.4722 76.4666 37.3363 76.4032C37.4904 77.4753 37.3665 78.6531 36.0891 78.6894C34.0868 78.7498 33.7878 76.1888 33.7425 75.4217L33.3107 75.3945C32.6765 78.2303 34.4522 79.6467 34.4522 79.6467L36.1585 79.0427Z" fill="#6633F2"/>
<path opacity="0.2" d="M36.1585 79.0427L37.3182 79.6467C38.1336 78.6773 37.9222 77.3183 37.744 76.6086C37.6081 76.5361 37.4722 76.4666 37.3363 76.4032C37.4904 77.4753 37.3665 78.6531 36.0891 78.6894C34.0868 78.7498 33.7878 76.1888 33.7425 75.4217L33.3107 75.3945C32.6765 78.2303 34.4522 79.6467 34.4522 79.6467L36.1585 79.0427Z" fill="white"/>
<path d="M41.1109 70.8584C42.2163 71.5741 41.8901 73.368 40.7365 74.1049C40.4103 72.0513 41.1109 70.8584 41.1109 70.8584Z" fill="#263238"/>
<path opacity="0.4" d="M41.1109 70.8584C42.2163 71.5741 41.8901 73.368 40.7365 74.1049C40.4103 72.0513 41.1109 70.8584 41.1109 70.8584Z" fill="black"/>
<path d="M36.0494 72.039C35.6357 73.9295 35.2944 75.0107 35.9497 76.267C36.2533 76.8614 36.7803 77.311 37.415 77.5171C38.0498 77.7232 38.7404 77.669 39.3352 77.3663C39.7897 77.1327 40.1633 76.7675 40.4073 76.3184C41.277 74.7812 41.8085 71.9484 40.223 70.6317C39.8876 70.3366 39.4804 70.1351 39.0424 70.0475C38.6043 69.9598 38.1509 69.9891 37.7278 70.1324C37.3047 70.2757 36.9268 70.5279 36.6322 70.8637C36.3375 71.1995 36.1365 71.6069 36.0494 72.0451V72.039Z" fill="#EBB376"/>
<path d="M35.8503 73.8028C36.862 74.3223 37.5113 72.5496 37.3603 71.6889C38.674 72.5949 41.6276 72.4559 42.4943 71.257C43.4396 69.9433 42.0202 68.841 40.7367 68.4333C40.6526 68.4111 40.5649 68.4066 40.479 68.42C40.3931 68.4334 40.3109 68.4646 40.2377 68.5114C40.1645 68.5582 40.1017 68.6198 40.0535 68.6921C40.0053 68.7644 39.9726 68.846 39.9575 68.9316C39.9437 68.99 39.9107 69.0421 39.8639 69.0796C39.5928 68.8482 39.2982 68.6457 38.9851 68.4756C38.7659 68.3678 38.5182 68.3325 38.2777 68.3749C38.0371 68.4172 37.8163 68.535 37.6472 68.7111C37.4962 68.847 37.1338 68.8742 36.403 68.6296C34.893 68.1162 34.6302 69.7651 35.3671 70.0852C34.6997 70.4929 33.5974 71.6134 34.1923 72.5979C34.7873 73.5824 35.2976 74.884 34.9624 75.0984C35.2795 75.2222 35.8261 74.8961 35.8503 73.8028Z" fill="#263238"/>
<path d="M34.9053 73.386C34.9152 73.8189 35.0864 74.2325 35.3855 74.5457C35.7811 74.9473 36.2371 74.6453 36.3398 74.1108C36.4304 73.6276 36.3398 72.8394 35.8324 72.64C35.3251 72.4407 34.9023 72.8454 34.9053 73.386Z" fill="#EBB376"/>
<path d="M38.6832 73.4552C38.641 73.6062 38.6832 73.7572 38.7859 73.7783C38.8886 73.7995 38.9973 73.7119 39.0426 73.5609C39.0879 73.4099 39.0426 73.2589 38.9369 73.2408C38.8312 73.2227 38.7255 73.3042 38.6832 73.4552Z" fill="#263238"/>
<path d="M40.3712 73.9902C40.329 74.1412 40.3712 74.2922 40.4739 74.3103C40.5766 74.3284 40.6853 74.2439 40.7306 74.0929C40.7759 73.9419 40.7306 73.7909 40.6249 73.7727C40.5192 73.7546 40.4165 73.8482 40.3712 73.9902Z" fill="#263238"/>
<path d="M39.8126 73.9023C39.8611 74.4185 39.9768 74.9262 40.1569 75.4124C40.0322 75.4533 39.9001 75.4667 39.7697 75.4516C39.6394 75.4364 39.5138 75.3932 39.4019 75.3248L39.8126 73.9023Z" fill="#D58745"/>
<path d="M38.3209 72.7366C38.3056 72.7337 38.2912 72.7275 38.2786 72.7184C38.2618 72.701 38.2524 72.6777 38.2524 72.6535C38.2524 72.6293 38.2618 72.606 38.2786 72.5886V72.5886C38.3941 72.4984 38.5297 72.4375 38.6738 72.4112C38.8179 72.3849 38.9662 72.3939 39.1061 72.4376C39.1172 72.4419 39.1274 72.4484 39.136 72.4567C39.1446 72.4649 39.1515 72.4748 39.1563 72.4858C39.161 72.4967 39.1636 72.5085 39.1638 72.5204C39.164 72.5324 39.1618 72.5442 39.1574 72.5553V72.5553C39.1531 72.5665 39.1466 72.5766 39.1383 72.5852C39.1301 72.5938 39.1202 72.6007 39.1092 72.6055C39.0983 72.6103 39.0865 72.6128 39.0746 72.613C39.0626 72.6132 39.0508 72.6111 39.0397 72.6067V72.6067C38.9311 72.5726 38.816 72.5653 38.704 72.5852C38.592 72.6052 38.4865 72.652 38.3964 72.7215C38.386 72.73 38.3737 72.7358 38.3605 72.7385C38.3474 72.7411 38.3338 72.7404 38.3209 72.7366Z" fill="#263238"/>
<path d="M41.2624 73.6491C41.2489 73.6425 41.2371 73.6328 41.2282 73.6207C41.2193 73.6086 41.2134 73.5945 41.211 73.5797C41.1949 73.4631 41.1522 73.3519 41.0862 73.2544C41.0203 73.157 40.9328 73.0761 40.8305 73.0179C40.8101 73.0039 40.7961 72.9823 40.7916 72.958C40.7871 72.9337 40.7924 72.9085 40.8063 72.8881C40.8172 72.8717 40.8331 72.8594 40.8516 72.8528C40.8702 72.8463 40.8903 72.8459 40.909 72.8518V72.8518C41.0381 72.9224 41.1488 73.0223 41.2322 73.1435C41.3156 73.2646 41.3694 73.4037 41.3892 73.5495C41.3914 73.5612 41.3912 73.5732 41.3888 73.5848C41.3863 73.5965 41.3816 73.6075 41.3749 73.6173C41.3681 73.6271 41.3595 73.6355 41.3496 73.642C41.3396 73.6485 41.3284 73.653 41.3167 73.6552V73.6552C41.2984 73.6577 41.2797 73.6556 41.2624 73.6491V73.6491Z" fill="#263238"/>
<path d="M38.5504 75.8386C38.6343 75.863 38.7202 75.8802 38.8071 75.89C38.8203 75.8927 38.834 75.8901 38.8453 75.8827C38.8566 75.8754 38.8646 75.8639 38.8675 75.8507C38.8683 75.8437 38.8677 75.8367 38.8657 75.8299C38.8637 75.8232 38.8603 75.8169 38.8558 75.8115C38.8512 75.8062 38.8456 75.8018 38.8393 75.7986C38.833 75.7955 38.8262 75.7937 38.8191 75.7933C38.6002 75.7692 38.3899 75.6943 38.2049 75.5748C38.0198 75.4553 37.8652 75.2944 37.7531 75.1048C37.7502 75.0986 37.7461 75.093 37.741 75.0884C37.7359 75.0838 37.7299 75.0803 37.7234 75.078C37.717 75.0758 37.7101 75.0749 37.7033 75.0753C37.6964 75.0757 37.6898 75.0775 37.6836 75.0806C37.6771 75.0832 37.6712 75.0871 37.6664 75.0921C37.6615 75.0971 37.6578 75.1032 37.6555 75.1098C37.6532 75.1164 37.6524 75.1234 37.6531 75.1304C37.6537 75.1373 37.6559 75.144 37.6595 75.1501C37.7543 75.3187 37.882 75.4665 38.035 75.5848C38.1881 75.7031 38.3633 75.7894 38.5504 75.8386V75.8386Z" fill="#263238"/>
<path d="M35.6177 70.1457C35.406 70.0932 35.2121 69.9853 35.0561 69.8329C34.9 69.6805 34.7874 69.4893 34.7298 69.2789C34.7169 69.2393 34.6923 69.2044 34.6593 69.1789C34.6263 69.1533 34.5864 69.1383 34.5448 69.1357C34.5031 69.1331 34.4616 69.143 34.4257 69.1643C34.3898 69.1855 34.3611 69.217 34.3433 69.2548C34.0866 69.8014 33.9688 70.5564 35.6177 70.1457Z" fill="#2E353A"/>
<path d="M48.3801 72.4561H47.5133C47.1439 72.4623 46.7896 72.6037 46.5174 72.8536C46.2453 73.1035 46.0742 73.4445 46.0365 73.812L45.2846 82.268C45.2631 82.4409 45.2794 82.6164 45.3322 82.7825C45.3849 82.9485 45.473 83.1012 45.5904 83.23C45.7077 83.3588 45.8515 83.4607 46.0119 83.5287C46.1723 83.5967 46.3456 83.6292 46.5197 83.624H47.3865L48.3801 72.4561Z" fill="#6633F2"/>
<path opacity="0.3" d="M48.3801 72.4561H47.5133C47.1439 72.4623 46.7896 72.6037 46.5174 72.8536C46.2453 73.1035 46.0742 73.4445 46.0365 73.812L45.2846 82.268C45.2631 82.4409 45.2794 82.6164 45.3322 82.7825C45.3849 82.9485 45.473 83.1012 45.5904 83.23C45.7077 83.3588 45.8515 83.4607 46.0119 83.5287C46.1723 83.5967 46.3456 83.6292 46.5197 83.624H47.3865L48.3801 72.4561Z" fill="white"/>
<path d="M61.2396 83.6299H47.112C46.9379 83.6352 46.7646 83.6027 46.6042 83.5347C46.4438 83.4667 46.3 83.3648 46.1826 83.236C46.0653 83.1071 45.9772 82.9545 45.9244 82.7884C45.8717 82.6224 45.8554 82.4469 45.8768 82.274L46.6288 73.8179C46.6665 73.4504 46.8375 73.1094 47.1097 72.8595C47.3819 72.6096 47.7362 72.4682 48.1056 72.462H62.2332C62.4073 72.4567 62.5805 72.4892 62.741 72.5572C62.9014 72.6252 63.0452 72.7271 63.1625 72.8559C63.2799 72.9848 63.368 73.1374 63.4207 73.3035C63.4735 73.4695 63.4898 73.645 63.4683 73.8179L62.7164 82.274C62.6787 82.6415 62.5076 82.9825 62.2355 83.2324C61.9633 83.4823 61.609 83.6237 61.2396 83.6299V83.6299Z" fill="#6633F2"/>
<path opacity="0.2" d="M61.2396 83.6299H47.112C46.9379 83.6352 46.7646 83.6027 46.6042 83.5347C46.4438 83.4667 46.3 83.3648 46.1826 83.236C46.0653 83.1071 45.9772 82.9545 45.9244 82.7884C45.8717 82.6224 45.8554 82.4469 45.8768 82.274L46.6288 73.8179C46.6665 73.4504 46.8375 73.1094 47.1097 72.8595C47.3819 72.6096 47.7362 72.4682 48.1056 72.462H62.2332C62.4073 72.4567 62.5805 72.4892 62.741 72.5572C62.9014 72.6252 63.0452 72.7271 63.1625 72.8559C63.2799 72.9848 63.368 73.1374 63.4207 73.3035C63.4735 73.4695 63.4898 73.645 63.4683 73.8179L62.7164 82.274C62.6787 82.6415 62.5076 82.9825 62.2355 83.2324C61.9633 83.4823 61.609 83.6237 61.2396 83.6299V83.6299Z" fill="black"/>
<path opacity="0.5" d="M54.9217 77.2243C54.9224 77.1538 54.9326 77.0837 54.9519 77.0159C54.8616 76.9894 54.7681 76.9752 54.6741 76.9736C54.4626 76.9736 54.2559 77.0363 54.0801 77.1538C53.9043 77.2713 53.7673 77.4382 53.6864 77.6336C53.6054 77.8289 53.5843 78.0439 53.6255 78.2513C53.6668 78.4587 53.7686 78.6492 53.9181 78.7987C54.0676 78.9482 54.2581 79.05 54.4655 79.0913C54.6729 79.1325 54.8878 79.1113 55.0832 79.0304C55.2785 78.9495 55.4455 78.8125 55.563 78.6367C55.6804 78.4609 55.7431 78.2542 55.7431 78.0427C55.6354 78.0431 55.5287 78.0222 55.429 77.9813C55.3294 77.9403 55.2388 77.8801 55.1625 77.8041C55.0862 77.728 55.0256 77.6377 54.9843 77.5382C54.943 77.4387 54.9217 77.332 54.9217 77.2243V77.2243Z" fill="white"/>
<path d="M54.0277 87.6858H55.1149L54.6861 82.7692C54.674 82.6341 54.6119 82.5084 54.5118 82.4167C54.4118 82.3251 54.2811 82.2741 54.1455 82.2739C54.0704 82.2736 53.996 82.289 53.9272 82.3192C53.8584 82.3493 53.7967 82.3936 53.746 82.4491C53.6954 82.5046 53.6569 82.5701 53.6331 82.6413C53.6093 82.7126 53.6008 82.7881 53.6079 82.8628L54.0277 87.6858Z" fill="#263238"/>
<path opacity="0.3" d="M54.0277 87.6858H55.1149L54.6861 82.7692C54.674 82.6341 54.6119 82.5084 54.5118 82.4167C54.4118 82.3251 54.2811 82.2741 54.1455 82.2739C54.0704 82.2736 53.996 82.289 53.9272 82.3192C53.8584 82.3493 53.7967 82.3936 53.746 82.4491C53.6954 82.5046 53.6569 82.5701 53.6331 82.6413C53.6093 82.7126 53.6008 82.7881 53.6079 82.8628L54.0277 87.6858Z" fill="white"/>
<path d="M57.4616 89.1142C57.4741 88.7318 57.4095 88.3508 57.2718 87.9939C57.134 87.6369 56.9259 87.3114 56.6598 87.0365C56.3937 86.7616 56.0751 86.543 55.7228 86.3937C55.3705 86.2444 54.9919 86.1675 54.6093 86.1675C54.2267 86.1675 53.848 86.2444 53.4957 86.3937C53.1435 86.543 52.8248 86.7616 52.5587 87.0365C52.2926 87.3114 52.0845 87.6369 51.9468 87.9939C51.809 88.3508 51.7444 88.7318 51.7569 89.1142H57.4616Z" fill="#6633F2"/>
<path opacity="0.5" d="M57.4616 89.1142C57.4741 88.7318 57.4095 88.3508 57.2718 87.9939C57.134 87.6369 56.9259 87.3114 56.6598 87.0365C56.3937 86.7616 56.0751 86.543 55.7228 86.3937C55.3705 86.2444 54.9919 86.1675 54.6093 86.1675C54.2267 86.1675 53.848 86.2444 53.4957 86.3937C53.1435 86.543 52.8248 86.7616 52.5587 87.0365C52.2926 87.3114 52.0845 87.6369 51.9468 87.9939C51.809 88.3508 51.7444 88.7318 51.7569 89.1142H57.4616Z" fill="white"/>
<path d="M50.7602 89.1143H46.2544C46.1115 89.1135 45.9748 89.0562 45.8741 88.9549C45.7733 88.8536 45.7168 88.7165 45.7168 88.5737V88.5737C45.7168 88.4311 45.7734 88.2944 45.8742 88.1936C45.9751 88.0928 46.1118 88.0361 46.2544 88.0361H50.7602C50.9028 88.0361 51.0395 88.0928 51.1403 88.1936C51.2411 88.2944 51.2978 88.4311 51.2978 88.5737V88.5737C51.2978 88.7165 51.2412 88.8536 51.1405 88.9549C51.0398 89.0562 50.9031 89.1135 50.7602 89.1143V89.1143Z" fill="#6633F2"/>
<path opacity="0.3" d="M50.7602 89.1143H46.2544C46.1115 89.1135 45.9748 89.0562 45.8741 88.9549C45.7733 88.8536 45.7168 88.7165 45.7168 88.5737V88.5737C45.7168 88.4311 45.7734 88.2944 45.8742 88.1936C45.9751 88.0928 46.1118 88.0361 46.2544 88.0361H50.7602C50.9028 88.0361 51.0395 88.0928 51.1403 88.1936C51.2411 88.2944 51.2978 88.4311 51.2978 88.5737V88.5737C51.2978 88.7165 51.2412 88.8536 51.1405 88.9549C51.0398 89.0562 50.9031 89.1135 50.7602 89.1143V89.1143Z" fill="white"/>
<path d="M46.5321 89.1143H42.0293C41.9584 89.1143 41.8883 89.1003 41.8229 89.0731C41.7574 89.0458 41.698 89.006 41.6481 88.9557C41.5981 88.9055 41.5586 88.8459 41.5318 88.7803C41.5049 88.7148 41.4913 88.6445 41.4917 88.5737C41.4917 88.4311 41.5483 88.2944 41.6492 88.1936C41.75 88.0928 41.8867 88.0361 42.0293 88.0361H46.5321C46.6749 88.0361 46.812 88.0927 46.9133 88.1934C47.0146 88.2941 47.0719 88.4308 47.0727 88.5737V88.5737C47.0727 88.6447 47.0587 88.715 47.0315 88.7806C47.0043 88.8461 46.9645 88.9057 46.9143 88.9559C46.8641 89.0061 46.8045 89.0459 46.739 89.0731C46.6734 89.1003 46.6031 89.1143 46.5321 89.1143V89.1143Z" fill="#6633F2"/>
<path opacity="0.5" d="M46.5321 89.1143H42.0293C41.9584 89.1143 41.8883 89.1003 41.8229 89.0731C41.7574 89.0458 41.698 89.006 41.6481 88.9557C41.5981 88.9055 41.5586 88.8459 41.5318 88.7803C41.5049 88.7148 41.4913 88.6445 41.4917 88.5737C41.4917 88.4311 41.5483 88.2944 41.6492 88.1936C41.75 88.0928 41.8867 88.0361 42.0293 88.0361H46.5321C46.6749 88.0361 46.812 88.0927 46.9133 88.1934C47.0146 88.2941 47.0719 88.4308 47.0727 88.5737V88.5737C47.0727 88.6447 47.0587 88.715 47.0315 88.7806C47.0043 88.8461 46.9645 88.9057 46.9143 88.9559C46.8641 89.0061 46.8045 89.0459 46.739 89.0731C46.6734 89.1003 46.6031 89.1143 46.5321 89.1143V89.1143Z" fill="white"/>
<path d="M84.2308 83.6086C84.0927 83.6052 83.9564 83.6397 83.8366 83.7084C83.7168 83.7771 83.6181 83.8773 83.5513 83.9982C80.3033 89.443 79.1361 95.8796 80.2655 102.118C80.2834 102.275 80.3567 102.421 80.4725 102.529C80.5882 102.637 80.7386 102.7 80.8967 102.707C81.389 102.74 90.153 102.707 90.4701 102.707C90.5998 102.71 90.7285 102.684 90.847 102.631C90.9655 102.578 91.071 102.5 91.156 102.402C91.241 102.304 91.3034 102.189 91.3389 102.064C91.3743 101.939 91.3819 101.808 91.361 101.68C90.3389 95.8717 91.4466 89.8893 94.4807 84.8317C94.5509 84.706 94.5864 84.564 94.5836 84.42C94.5809 84.2761 94.5399 84.1355 94.4649 84.0126C94.39 83.8897 94.2837 83.7889 94.157 83.7206C94.0303 83.6523 93.8877 83.6188 93.7438 83.6237C93.4901 83.6026 84.7895 83.6177 84.2308 83.6086Z" fill="#6633F2"/>
<path opacity="0.2" d="M84.2308 83.6086C84.0927 83.6052 83.9564 83.6397 83.8366 83.7084C83.7168 83.7771 83.6181 83.8773 83.5513 83.9982C80.3033 89.443 79.1361 95.8796 80.2655 102.118C80.2834 102.275 80.3567 102.421 80.4725 102.529C80.5882 102.637 80.7386 102.7 80.8967 102.707C81.389 102.74 90.153 102.707 90.4701 102.707C90.5998 102.71 90.7285 102.684 90.847 102.631C90.9655 102.578 91.071 102.5 91.156 102.402C91.241 102.304 91.3034 102.189 91.3389 102.064C91.3743 101.939 91.3819 101.808 91.361 101.68C90.3389 95.8717 91.4466 89.8893 94.4807 84.8317C94.5509 84.706 94.5864 84.564 94.5836 84.42C94.5809 84.2761 94.5399 84.1355 94.4649 84.0126C94.39 83.8897 94.2837 83.7889 94.157 83.7206C94.0303 83.6523 93.8877 83.6188 93.7438 83.6237C93.4901 83.6026 84.7895 83.6177 84.2308 83.6086Z" fill="black"/>
<path d="M91.361 101.674C90.3389 95.8657 91.4466 89.8833 94.4807 84.8257C95.0273 83.9197 93.6079 83.0953 93.0643 83.9983C89.817 89.4434 88.6509 95.88 89.7815 102.118C89.9688 103.154 91.5482 102.722 91.361 101.683V101.674Z" fill="#6633F2"/>
<g opacity="0.2">
<path opacity="0.2" d="M91.361 101.674C90.3389 95.8657 91.4466 89.8833 94.4807 84.8257C95.0273 83.9197 93.6079 83.0953 93.0643 83.9983C89.817 89.4434 88.6509 95.88 89.7815 102.118C89.9688 103.154 91.5482 102.722 91.361 101.683V101.674Z" fill="white"/>
</g>
<path d="M85.9883 124.424L78.3779 121.621L70.6829 124.427C70.6212 124.449 70.555 124.456 70.4899 124.447C70.4249 124.439 70.3628 124.414 70.309 124.377C70.2551 124.339 70.2111 124.289 70.1805 124.231C70.15 124.173 70.1338 124.109 70.1333 124.043V124.043C70.1334 123.965 70.156 123.889 70.1983 123.824C70.2406 123.758 70.3009 123.707 70.3719 123.675L78.3779 119.96L86.3024 123.672C86.3718 123.705 86.4304 123.757 86.4715 123.822C86.5127 123.888 86.5346 123.963 86.5349 124.04C86.535 124.105 86.5192 124.17 86.489 124.228C86.4588 124.286 86.415 124.336 86.3614 124.374C86.3078 124.412 86.2459 124.436 86.1809 124.444C86.116 124.453 86.0499 124.446 85.9883 124.424V124.424Z" fill="#263238"/>
<path opacity="0.3" d="M85.9883 124.424L78.3779 121.621L70.6829 124.427C70.6212 124.449 70.555 124.456 70.4899 124.447C70.4249 124.439 70.3628 124.414 70.309 124.377C70.2551 124.339 70.2111 124.289 70.1805 124.231C70.15 124.173 70.1338 124.109 70.1333 124.043V124.043C70.1334 123.965 70.156 123.889 70.1983 123.824C70.2406 123.758 70.3009 123.707 70.3719 123.675L78.3779 119.96L86.3024 123.672C86.3718 123.705 86.4304 123.757 86.4715 123.822C86.5127 123.888 86.5346 123.963 86.5349 124.04C86.535 124.105 86.5192 124.17 86.489 124.228C86.4588 124.286 86.415 124.336 86.3614 124.374C86.3078 124.412 86.2459 124.436 86.1809 124.444C86.116 124.453 86.0499 124.446 85.9883 124.424V124.424Z" fill="white"/>
<path opacity="0.2" d="M76.5845 122.286L78.3784 121.633L80.0877 122.261V120.773L78.3784 119.969L76.5845 120.803V122.286Z" fill="black"/>
<path d="M78.3356 124.499C78.1686 124.499 78.0074 124.438 77.8831 124.326C77.7588 124.215 77.6801 124.061 77.6622 123.895L77.4478 121.639V102.915H79.2235V121.639L79.0091 123.895C78.9912 124.061 78.9125 124.215 78.7882 124.326C78.6638 124.438 78.5027 124.499 78.3356 124.499V124.499Z" fill="#263238"/>
<path opacity="0.3" d="M78.3356 124.499C78.1686 124.499 78.0074 124.438 77.8831 124.326C77.7588 124.215 77.6801 124.061 77.6622 123.895L77.4478 121.639V102.915H79.2235V121.639L79.0091 123.895C78.9912 124.061 78.9125 124.215 78.7882 124.326C78.6638 124.438 78.5027 124.499 78.3356 124.499V124.499Z" fill="white"/>
<path opacity="0.2" d="M79.2235 102.903H77.4478V105.084H79.2235V102.903Z" fill="black"/>
<path d="M64.3082 101.197C66.318 100.688 68.3783 100.405 70.4509 100.351C72.583 100.3 80.5678 100.351 82.4644 100.351C84.7762 100.35 87.0791 100.637 89.3198 101.206C90.7271 101.565 90.2923 103.598 89.0178 103.622C88.9061 103.622 64.7702 103.622 64.6827 103.622C63.3539 103.67 62.8707 101.565 64.3082 101.197Z" fill="#6633F2"/>
<path opacity="0.3" d="M64.3082 101.197C66.318 100.688 68.3783 100.405 70.4509 100.351C72.583 100.3 80.5678 100.351 82.4644 100.351C84.7762 100.35 87.0791 100.637 89.3198 101.206C90.7271 101.565 90.2923 103.598 89.0178 103.622C88.9061 103.622 64.7702 103.622 64.6827 103.622C63.3539 103.67 62.8707 101.565 64.3082 101.197Z" fill="black"/>
<path d="M88.6675 103.568C84.5966 102.535 80.3322 102.535 76.2613 103.568C74.7302 103.96 74.0748 101.59 75.609 101.197C80.108 100.055 84.8208 100.055 89.3198 101.197C90.8509 101.59 90.2016 103.96 88.6675 103.568Z" fill="#6633F2"/>
<g opacity="0.3">
<path opacity="0.3" d="M88.6675 103.568C84.5966 102.535 80.3322 102.535 76.2613 103.568C74.7302 103.96 74.0748 101.59 75.609 101.197C80.108 100.055 84.8208 100.055 89.3198 101.197C90.8509 101.59 90.2016 103.96 88.6675 103.568Z" fill="white"/>
</g>
<path d="M76.962 73.5427C76.962 73.5427 75.4761 73.3977 75.9382 71.1901C76.4003 68.9825 76.361 66.8866 79.6407 67.1252C79.6407 67.1252 82.2379 66.4759 82.9627 68.9161C83.6875 71.3562 84.7747 73.0867 83.0473 73.8054C80.8729 74.7114 80.3293 72.7062 80.3293 72.7062L77.1492 73.0082L76.962 73.5427Z" fill="#263238"/>
<path d="M76.4755 76.7746C74.594 76.5059 75.5 83.0502 73.8119 84.2582C72.8787 84.9045 68.1856 83.168 68.1856 83.168L67.5242 81.054C67.5077 80.9999 67.4794 80.9501 67.4413 80.9083C67.4031 80.8665 67.3561 80.8337 67.3038 80.8124L66.3253 80.4228C66.2608 80.3992 66.1912 80.3935 66.1238 80.4063C66.0563 80.419 65.9936 80.4498 65.9422 80.4953C65.8908 80.5408 65.8527 80.5993 65.8319 80.6647C65.8111 80.7301 65.8083 80.7999 65.824 80.8667L66.1773 82.4281C66.1921 82.4962 66.2256 82.559 66.2739 82.6093L67.636 84.0558C67.636 84.0558 73.232 86.7738 74.582 86.3178C76.1644 85.7954 76.7503 82.9143 77.1429 81.1989C77.451 79.9003 77.916 76.98 76.4755 76.7746Z" fill="#B97964"/>
<path d="M74.2892 115.989L74.86 120.401L73.2533 120.444L72.0967 116.186L74.2892 115.989Z" fill="#B97964"/>
<path d="M73.232 120.196H75.0651C75.1036 120.197 75.1407 120.21 75.1707 120.234C75.2007 120.258 75.222 120.292 75.2312 120.329L75.6057 122.044C75.6142 122.08 75.6154 122.117 75.6093 122.154C75.6032 122.19 75.59 122.225 75.5703 122.256C75.5506 122.287 75.5249 122.314 75.4947 122.336C75.4645 122.357 75.4304 122.372 75.3943 122.379C75.3743 122.382 75.3539 122.382 75.3339 122.379C74.5759 122.379 73.9024 122.319 72.9572 122.319C71.8428 122.319 72.1237 122.452 70.813 122.467C70.0248 122.467 69.8828 121.576 70.209 121.534C71.7431 121.344 72.178 120.882 72.7699 120.326C72.9023 120.226 73.0672 120.18 73.232 120.196V120.196Z" fill="#263238"/>
<path opacity="0.1" d="M72.7671 118.656L72.0967 116.186L74.2892 115.989L74.6184 118.538L72.7671 118.656Z" fill="black"/>
<path d="M79.8187 89.5005H77.2246C76.7964 90.6681 76.5213 91.8862 76.4061 93.1245C76.2703 94.9667 79.8187 93.6017 79.8187 93.6017L80.1207 91.0769L79.8187 89.5005Z" fill="#263238"/>
<path d="M63.2962 109.877L61.5868 114.863L60.1523 114.452L61.315 109.194L63.2962 109.877Z" fill="#B97964"/>
<path d="M60.1796 114.068L61.9433 114.603C61.9805 114.613 62.0133 114.635 62.0364 114.665C62.0594 114.696 62.0713 114.734 62.0701 114.772L62.0037 116.524C62.003 116.562 61.9945 116.6 61.9787 116.634C61.9629 116.669 61.9402 116.7 61.9119 116.726C61.8836 116.752 61.8504 116.772 61.8142 116.784C61.7781 116.796 61.7398 116.801 61.7017 116.798C61.6827 116.801 61.6633 116.801 61.6443 116.798C60.9135 116.593 60.2702 116.385 59.3551 116.146C58.277 115.865 58.5156 116.065 57.2411 115.751C56.4741 115.563 56.5616 114.657 56.8969 114.7C58.428 114.899 58.9716 114.491 59.6813 114.111C59.8361 114.034 60.0141 114.019 60.1796 114.068V114.068Z" fill="#263238"/>
<path opacity="0.1" d="M62.363 112.595L60.6597 112.157L61.315 109.194L63.2961 109.877L62.363 112.595Z" fill="black"/>
<path d="M84.989 89.2646C84.989 89.2646 87.6284 93.6799 87.1724 97.3673C86.7164 101.055 83.3068 103.006 70.197 96.7241C70.197 96.7241 67.5062 99.5085 63.0456 111.434L60.7686 110.752C60.7686 110.752 63.3416 96.9657 65.6398 93.0427C67.938 89.1197 78.1577 93.7252 78.9278 92.9521C79.6164 92.2635 79.0184 89.5395 79.0184 89.5395L84.989 89.2646Z" fill="#263238"/>
<path d="M63.6013 111.208L63.1241 112.129L60.394 111.208V110.151L63.6013 111.208Z" fill="#6633F2"/>
<path d="M86.0519 77.4628L76.7624 76.7682C76.6299 76.7573 76.4968 76.7757 76.3722 76.8221C76.2477 76.8684 76.1349 76.9416 76.0419 77.0364C75.9488 77.1312 75.8777 77.2453 75.8336 77.3707C75.7896 77.496 75.7736 77.6295 75.7869 77.7617C75.8763 78.2768 75.9288 78.7975 75.9439 79.3201C75.8624 80.3046 75.3399 81.7783 75.5091 82.4518C75.651 82.9894 76.2157 83.5994 76.4392 84.2064C76.9254 85.5201 77.007 89.7753 77.007 89.7753C80.0089 90.2615 85.3513 89.5397 85.3513 89.5397C84.1433 85.2181 85.9553 80.1777 86.4958 78.0819C86.5136 78.0115 86.5159 77.9382 86.5024 77.8669C86.4889 77.7956 86.46 77.7281 86.4177 77.6691C86.3755 77.6102 86.3208 77.5612 86.2576 77.5255C86.1944 77.4899 86.1242 77.4685 86.0519 77.4628Z" fill="#6633F2"/>
<path opacity="0.7" d="M86.0519 77.4628L76.7624 76.7682C76.6299 76.7573 76.4968 76.7757 76.3722 76.8221C76.2477 76.8684 76.1349 76.9416 76.0419 77.0364C75.9488 77.1312 75.8777 77.2453 75.8336 77.3707C75.7896 77.496 75.7736 77.6295 75.7869 77.7617C75.8763 78.2768 75.9288 78.7975 75.9439 79.3201C75.8624 80.3046 75.3399 81.7783 75.5091 82.4518C75.651 82.9894 76.2157 83.5994 76.4392 84.2064C76.9254 85.5201 77.007 89.7753 77.007 89.7753C80.0089 90.2615 85.3513 89.5397 85.3513 89.5397C84.1433 85.2181 85.9553 80.1777 86.4958 78.0819C86.5136 78.0115 86.5159 77.9382 86.5024 77.8669C86.4889 77.7956 86.46 77.7281 86.4177 77.6691C86.3755 77.6102 86.3208 77.5612 86.2576 77.5255C86.1944 77.4899 86.1242 77.4685 86.0519 77.4628Z" fill="white"/>
<path opacity="0.1" d="M84.6688 82.5664L81.4585 85.8522L76.8832 86.7733H76.853C76.8953 87.2776 76.9255 87.785 76.9497 88.2319C78.2151 88.2319 82.3494 88.1443 83.5423 87.1055C84.1452 86.5292 84.6375 85.8476 84.995 85.0941C85.0518 84.3567 85.1476 83.6229 85.2819 82.8956L84.6688 82.5664Z" fill="black"/>
<path opacity="0.2" d="M68.6992 97.9629L67.9834 97.4072C67.9834 97.4072 65.4557 98.7753 66.712 102.671C67.3837 101.243 68.1287 99.8514 68.9438 98.5005L68.6992 97.9629Z" fill="black"/>
<path d="M79.6497 100.352C77.267 99.7808 74.1836 98.6362 70.1971 96.7275C70.1971 96.7275 67.1198 96.7698 66.9144 99.056C66.709 101.342 72.1058 117.176 72.1058 117.176L74.5973 116.962C74.5973 116.962 73.1296 101.185 72.7853 100.367L79.6497 100.352Z" fill="#263238"/>
<path opacity="0.2" d="M70.1971 96.7246C69.8405 96.7383 69.4863 96.7889 69.1401 96.8756C70.8118 98.3037 72.6866 99.4752 74.703 100.352H79.6497C77.267 99.7808 74.1835 98.6363 70.1971 96.7246Z" fill="black"/>
<path d="M74.8959 116.536L74.9623 117.559L72.0601 117.786L71.6494 116.813L74.8959 116.536Z" fill="#6633F2"/>
<path d="M81.6669 73.1382L79.6405 75.1284C79.9787 76.7652 78.7798 76.9192 78.7798 76.9192C78.7798 76.9192 78.8764 77.496 80.3442 77.4175C81.0011 77.4104 81.6553 77.3314 82.2951 77.182C81.4102 76.4753 81.5401 74.322 81.6669 73.1382Z" fill="#B97964"/>
<path opacity="0.1" d="M79.6587 76.0524C79.7187 75.7466 79.7125 75.4315 79.6406 75.1283L81.4526 73.3525L81.6278 73.5579C81.6278 73.5579 81.2624 75.8229 79.6587 76.0524Z" fill="black"/>
<path d="M81.8422 70.5018C81.9902 72.4527 82.0959 73.2772 81.2563 74.4037C79.9909 76.1039 77.5629 75.8593 76.832 73.9899C76.1767 72.3078 76.0438 69.3995 77.8316 68.3667C78.225 68.1379 78.6702 68.0134 79.1251 68.0049C79.58 67.9963 80.0296 68.1041 80.4312 68.3179C80.8329 68.5317 81.1733 68.8445 81.4202 69.2267C81.6671 69.6089 81.8124 70.0478 81.8422 70.5018V70.5018Z" fill="#B97964"/>
<path d="M77.8525 72.4795C77.7621 72.8596 77.6199 73.2254 77.4297 73.5667C77.5181 73.6127 77.6155 73.639 77.7151 73.6437C77.8147 73.6484 77.9141 73.6314 78.0065 73.5939L77.8525 72.4795Z" fill="#A24E3F"/>
<path d="M79.3296 71.1421C79.3423 71.138 79.3537 71.1307 79.3628 71.121C79.3701 71.1139 79.3759 71.1055 79.3799 71.0961C79.3839 71.0868 79.3859 71.0767 79.3859 71.0666C79.3859 71.0564 79.3839 71.0464 79.3799 71.0371C79.3759 71.0277 79.3701 71.0193 79.3628 71.0122C79.2534 70.9162 79.1224 70.8479 78.981 70.8132C78.8396 70.7785 78.6919 70.7784 78.5504 70.8129C78.5308 70.8185 78.5142 70.8317 78.5043 70.8495C78.4944 70.8674 78.492 70.8884 78.4976 70.908C78.5032 70.9277 78.5164 70.9443 78.5342 70.9542C78.5521 70.9641 78.5731 70.9665 78.5927 70.9609C78.7101 70.9345 78.8321 70.9364 78.9486 70.9663C79.0652 70.9963 79.173 71.0534 79.2632 71.133C79.2728 71.1396 79.2838 71.1438 79.2953 71.1453C79.3068 71.1469 79.3186 71.1458 79.3296 71.1421V71.1421Z" fill="#2E353A"/>
<path d="M76.4456 71.4108C76.4582 71.4067 76.4697 71.3994 76.4788 71.3897C76.5562 71.2987 76.654 71.2273 76.7642 71.1811C76.8743 71.1349 76.9938 71.1153 77.113 71.1239C77.1332 71.126 77.1534 71.1207 77.1701 71.1091C77.1867 71.0974 77.1986 71.0802 77.2036 71.0605V71.0605C77.2053 71.0398 77.1991 71.0192 77.1862 71.0029C77.1733 70.9867 77.1547 70.9759 77.1341 70.9729C76.9893 70.9598 76.8434 70.9818 76.7088 71.037C76.5742 71.0922 76.4549 71.179 76.361 71.29C76.3537 71.2971 76.3479 71.3055 76.3439 71.3149C76.3399 71.3242 76.3379 71.3342 76.3379 71.3444C76.3379 71.3545 76.3399 71.3646 76.3439 71.3739C76.3479 71.3833 76.3537 71.3917 76.361 71.3987C76.3721 71.4092 76.386 71.4162 76.401 71.4189C76.416 71.4216 76.4315 71.4198 76.4456 71.4138V71.4108Z" fill="#2E353A"/>
<path d="M78.9276 72.06C78.9518 72.2171 78.8854 72.362 78.7797 72.362C78.6739 72.362 78.5773 72.2624 78.5562 72.1023C78.535 71.9422 78.6015 71.8003 78.7041 71.8003C78.8068 71.8003 78.9065 71.903 78.9276 72.06Z" fill="#2E353A"/>
<path d="M77.1458 72.3076C77.17 72.4646 77.1035 72.6096 77.0008 72.6096C76.8982 72.6096 76.7985 72.5069 76.7743 72.3499C76.7502 72.1928 76.8196 72.0479 76.9223 72.0479C77.025 72.0479 77.1277 72.1475 77.1458 72.3076Z" fill="#2E353A"/>
<path d="M76.9678 72.051L76.5752 71.9937C76.5752 71.9937 76.8108 72.2624 76.9678 72.051Z" fill="#2E353A"/>
<path d="M78.7495 71.8034L78.3569 71.749C78.3569 71.749 78.5925 72.0148 78.7495 71.8034Z" fill="#2E353A"/>
<path d="M79.0544 73.6576C79.0854 73.6025 79.1117 73.5449 79.1329 73.4854C79.135 73.4811 79.1361 73.4764 79.1363 73.4716C79.1365 73.4668 79.1357 73.462 79.134 73.4575C79.1323 73.453 79.1297 73.4489 79.1265 73.4454C79.1232 73.4419 79.1192 73.4391 79.1148 73.4371V73.4371C79.1101 73.4352 79.105 73.4344 79.0999 73.4346C79.0948 73.4348 79.0898 73.4361 79.0853 73.4384C79.0807 73.4407 79.0767 73.4439 79.0734 73.4478C79.0702 73.4518 79.0678 73.4564 79.0665 73.4613C79.0124 73.6129 78.9236 73.7497 78.8071 73.8608C78.6907 73.972 78.55 74.0544 78.3961 74.1015C78.3861 74.1037 78.3775 74.1096 78.3718 74.1181C78.3662 74.1265 78.3641 74.1368 78.3659 74.1468C78.3669 74.1516 78.3689 74.1562 78.3718 74.1602C78.3747 74.1643 78.3784 74.1676 78.3826 74.1702C78.3869 74.1727 78.3916 74.1744 78.3965 74.175C78.4014 74.1757 78.4064 74.1753 78.4112 74.174C78.5475 74.1353 78.6746 74.0696 78.7851 73.9809C78.8956 73.8922 78.9872 73.7823 79.0544 73.6576Z" fill="#263238"/>
<path d="M80.3321 67.6478C79.0788 67.3458 77.7801 67.992 77.7801 67.992C77.7801 67.992 76.3306 69.2816 76.6628 70.5288C76.8159 70.4159 76.9891 70.3329 77.1731 70.2842C77.1226 69.8115 77.2544 69.3373 77.5416 68.9584C77.4641 69.3695 77.4806 69.7928 77.5899 70.1966C78.1951 70.1368 78.8061 70.209 79.3808 70.408C79.3808 70.408 79.6314 69.8916 79.3808 68.7712C79.7081 69.3553 79.8807 70.0133 79.8821 70.6829C79.8972 71.8425 81.3921 72.1234 81.3921 72.1234C81.3921 72.1234 82.3253 72.0237 82.3162 70.7735C82.3071 69.5232 81.5854 67.9709 80.3321 67.6478Z" fill="#263238"/>
<path d="M79.7796 67.5844C79.7796 67.5844 79.1756 66.1167 78.0069 66.4761C76.8382 66.8355 78.8918 66.8324 79.7796 67.5844Z" fill="#263238"/>
<path d="M82.5064 71.9691C82.4778 72.1543 82.4129 72.3321 82.3155 72.4922C82.2181 72.6524 82.09 72.7917 81.9387 72.9023C81.531 73.2043 81.1565 72.8721 81.1233 72.398C81.0961 71.9721 81.2743 71.3047 81.7545 71.1899C81.8591 71.1702 81.9671 71.1766 82.0687 71.2086C82.1703 71.2406 82.2624 71.2973 82.3368 71.3735C82.4113 71.4497 82.4657 71.5431 82.4953 71.6455C82.5249 71.7478 82.5287 71.8559 82.5064 71.96V71.9691Z" fill="#B97964"/>
<path d="M86.1699 77.4206C85.2458 77.1186 83.9804 80.643 83.4519 81.7423C83.2345 82.1983 82.8842 83.219 82.6184 84.0254C82.5081 84.3702 82.3145 84.6826 82.0549 84.9349C81.7952 85.1872 81.4774 85.3716 81.1295 85.4719L76.1798 86.8763L74.1684 86.2723C74.094 86.2496 74.0154 86.2441 73.9385 86.2562C73.8616 86.2682 73.7885 86.2974 73.7245 86.3417L72.7128 87.0303C72.6388 87.081 72.5784 87.1491 72.5368 87.2286C72.4953 87.3081 72.4738 87.3966 72.4742 87.4863V87.4863C72.4728 87.5608 72.4869 87.6348 72.5156 87.7036C72.5443 87.7723 72.5869 87.8344 72.6409 87.8858C72.6949 87.9372 72.7589 87.9768 72.829 88.0021C72.8991 88.0275 72.9737 88.0379 73.048 88.0329L76.0378 87.7974C76.0378 87.7974 80.8698 88.0782 82.9838 86.8914C85.0978 85.7045 87.7735 77.9703 86.1699 77.4206Z" fill="#B97964"/>
<path d="M82.316 88.0449H65.1624C65.0383 88.0449 64.9192 88.0942 64.8314 88.182C64.7437 88.2698 64.6943 88.3889 64.6943 88.513C64.6943 88.6372 64.7437 88.7562 64.8314 88.844C64.9192 88.9318 65.0383 88.9811 65.1624 88.9811H82.316C82.4402 88.9811 82.5592 88.9318 82.647 88.844C82.7348 88.7562 82.7841 88.6372 82.7841 88.513C82.7841 88.3889 82.7348 88.2698 82.647 88.182C82.5592 88.0942 82.4402 88.0449 82.316 88.0449Z" fill="#263238"/>
<path opacity="0.3" d="M82.316 88.0449H65.1624C65.0383 88.0449 64.9192 88.0942 64.8314 88.182C64.7437 88.2698 64.6943 88.3889 64.6943 88.513C64.6943 88.6372 64.7437 88.7562 64.8314 88.844C64.9192 88.9318 65.0383 88.9811 65.1624 88.9811H82.316C82.4402 88.9811 82.5592 88.9318 82.647 88.844C82.7348 88.7562 82.7841 88.6372 82.7841 88.513C82.7841 88.3889 82.7348 88.2698 82.647 88.182C82.5592 88.0942 82.4402 88.0449 82.316 88.0449Z" fill="white"/>
<path d="M65.4163 88.6942H71.2721C71.3084 88.6947 71.3443 88.6864 71.3765 88.6697C71.4088 88.6531 71.4365 88.6288 71.4571 88.5989C71.4777 88.5691 71.4907 88.5345 71.4947 88.4985C71.4988 88.4624 71.4939 88.4259 71.4805 88.3922L68.2732 79.2144C68.23 79.0892 68.1483 78.981 68.0398 78.9051C67.9313 78.8291 67.8016 78.7894 67.6692 78.7916H61.8134C61.7774 78.7917 61.7419 78.8006 61.71 78.8174C61.6782 78.8342 61.6508 78.8585 61.6304 78.8881C61.6099 78.9178 61.5969 78.952 61.5925 78.9878C61.5881 79.0235 61.5924 79.0598 61.6051 79.0936L64.8214 88.2804C64.8657 88.4024 64.9466 88.5076 65.0532 88.5817C65.1597 88.6558 65.2866 88.6951 65.4163 88.6942V88.6942Z" fill="#263238"/>
<path opacity="0.5" d="M65.4163 88.6942H71.2721C71.3084 88.6947 71.3443 88.6864 71.3765 88.6697C71.4088 88.6531 71.4365 88.6288 71.4571 88.5989C71.4777 88.5691 71.4907 88.5345 71.4947 88.4985C71.4988 88.4624 71.4939 88.4259 71.4805 88.3922L68.2732 79.2144C68.23 79.0892 68.1483 78.981 68.0398 78.9051C67.9313 78.8291 67.8016 78.7894 67.6692 78.7916H61.8134C61.7774 78.7917 61.7419 78.8006 61.71 78.8174C61.6782 78.8342 61.6508 78.8585 61.6304 78.8881C61.6099 78.9178 61.5969 78.952 61.5925 78.9878C61.5881 79.0235 61.5924 79.0598 61.6051 79.0936L64.8214 88.2804C64.8657 88.4024 64.9466 88.5076 65.0532 88.5817C65.1597 88.6558 65.2866 88.6951 65.4163 88.6942V88.6942Z" fill="white"/>
<path d="M65.1326 88.6941H70.9975C71.0338 88.6947 71.0696 88.6863 71.1019 88.6697C71.1342 88.6531 71.1619 88.6288 71.1825 88.5989C71.2031 88.569 71.216 88.5345 71.2201 88.4984C71.2242 88.4623 71.2193 88.4258 71.2058 88.3921L67.9926 79.2143C67.9485 79.0897 67.8666 78.982 67.7583 78.9061C67.65 78.8303 67.5207 78.7903 67.3886 78.7915H61.5328C61.4965 78.7912 61.4606 78.7997 61.4284 78.8163C61.3961 78.8329 61.3683 78.8571 61.3475 78.8868C61.3267 78.9166 61.3135 78.9509 61.3089 78.987C61.3043 79.023 61.3086 79.0595 61.3214 79.0935L64.5377 88.2743C64.5813 88.3972 64.662 88.5035 64.7685 88.5786C64.875 88.6538 65.0022 88.6941 65.1326 88.6941V88.6941Z" fill="#263238"/>
<path d="M66.409 84.376C66.6156 84.3049 66.6867 83.9672 66.5679 83.6218C66.449 83.2764 66.1852 83.0541 65.9786 83.1252C65.772 83.1963 65.7008 83.5339 65.8197 83.8793C65.9386 84.2247 66.2024 84.4471 66.409 84.376Z" fill="white"/>
<path opacity="0.2" d="M72.033 88.9811C71.9089 88.9811 71.7898 88.9318 71.702 88.844C71.6143 88.7562 71.5649 88.6372 71.5649 88.513C71.5649 88.3889 71.6143 88.2698 71.702 88.182C71.7898 88.0942 71.9089 88.0449 72.033 88.0449H82.301C82.4252 88.0449 82.5442 88.0942 82.632 88.182C82.7198 88.2698 82.7691 88.3889 82.7691 88.513C82.7691 88.6372 82.7198 88.7562 82.632 88.844C82.5442 88.9318 82.4252 88.9811 82.301 88.9811H72.033Z" fill="white"/>
<path d="M123.114 124.424C123.196 124.422 123.278 124.404 123.354 124.37C123.429 124.336 123.497 124.287 123.554 124.226C123.61 124.165 123.653 124.094 123.682 124.016C123.71 123.938 123.722 123.855 123.718 123.772L122.038 91.002H120.263L122.485 123.847C122.492 124.007 122.563 124.158 122.68 124.266C122.798 124.374 122.954 124.431 123.114 124.424Z" fill="#263238"/>
<path opacity="0.5" d="M123.114 124.424C123.196 124.422 123.278 124.404 123.354 124.37C123.429 124.336 123.497 124.287 123.554 124.226C123.61 124.165 123.653 124.094 123.682 124.016C123.71 123.938 123.722 123.855 123.718 123.772L122.038 91.002H120.263L122.485 123.847C122.492 124.007 122.563 124.158 122.68 124.266C122.798 124.374 122.954 124.431 123.114 124.424Z" fill="white"/>
<path opacity="0.2" d="M122.051 91.0137H120.275L120.423 93.1971H122.162L122.051 91.0137Z" fill="black"/>
<path d="M98.2924 124.424C98.2095 124.422 98.1278 124.403 98.0522 124.369C97.9766 124.335 97.9087 124.286 97.8523 124.226C97.796 124.165 97.7525 124.093 97.7243 124.015C97.6961 123.937 97.6839 123.854 97.6884 123.772L99.3584 91.0137H101.134L98.9145 123.859C98.9008 124.014 98.8292 124.159 98.7139 124.263C98.5986 124.368 98.4481 124.425 98.2924 124.424V124.424Z" fill="#263238"/>
<path opacity="0.5" d="M98.2924 124.424C98.2095 124.422 98.1278 124.403 98.0522 124.369C97.9766 124.335 97.9087 124.286 97.8523 124.226C97.796 124.165 97.7525 124.093 97.7243 124.015C97.6961 123.937 97.6839 123.854 97.6884 123.772L99.3584 91.0137H101.134L98.9145 123.859C98.9008 124.014 98.8292 124.159 98.7139 124.263C98.5986 124.368 98.4481 124.425 98.2924 124.424V124.424Z" fill="white"/>
<path opacity="0.2" d="M99.2437 93.1971H100.983L101.131 91.0137H99.3554L99.2437 93.1971Z" fill="black"/>
<path d="M58.7753 124.424C58.8582 124.422 58.9399 124.404 59.0155 124.369C59.0911 124.335 59.1591 124.286 59.2154 124.226C59.2717 124.165 59.3153 124.093 59.3434 124.015C59.3716 123.937 59.3838 123.854 59.3793 123.772L57.7123 91.0137H55.9365L58.1562 123.859C58.1698 124.014 58.241 124.158 58.3557 124.262C58.4704 124.367 58.6201 124.425 58.7753 124.424V124.424Z" fill="#263238"/>
<path opacity="0.5" d="M58.7753 124.424C58.8582 124.422 58.9399 124.404 59.0155 124.369C59.0911 124.335 59.1591 124.286 59.2154 124.226C59.2717 124.165 59.3153 124.093 59.3434 124.015C59.3716 123.937 59.3838 123.854 59.3793 123.772L57.7123 91.0137H55.9365L58.1562 123.859C58.1698 124.014 58.241 124.158 58.3557 124.262C58.4704 124.367 58.6201 124.425 58.7753 124.424V124.424Z" fill="white"/>
<path opacity="0.2" d="M57.7123 91.0137H55.9365L56.0845 93.1971H57.824L57.7123 91.0137Z" fill="black"/>
<path d="M33.954 124.424C33.8711 124.422 33.7895 124.404 33.7139 124.369C33.6383 124.335 33.5703 124.286 33.514 124.226C33.4576 124.165 33.4141 124.093 33.3859 124.015C33.3578 123.937 33.3456 123.854 33.35 123.772L35.0322 91.0137H36.8079L34.5852 123.859C34.5751 124.017 34.5032 124.165 34.3852 124.271C34.2671 124.376 34.1123 124.431 33.954 124.424V124.424Z" fill="#263238"/>
<path opacity="0.5" d="M33.954 124.424C33.8711 124.422 33.7895 124.404 33.7139 124.369C33.6383 124.335 33.5703 124.286 33.514 124.226C33.4576 124.165 33.4141 124.093 33.3859 124.015C33.3578 123.937 33.3456 123.854 33.35 123.772L35.0322 91.0137H36.8079L34.5852 123.859C34.5751 124.017 34.5032 124.165 34.3852 124.271C34.2671 124.376 34.1123 124.431 33.954 124.424V124.424Z" fill="white"/>
<path opacity="0.2" d="M34.9053 93.1971H36.6448L36.7928 91.0137H35.017L34.9053 93.1971Z" fill="black"/>
<path d="M123.479 89.9746H33.3047V91.0135H123.479V89.9746Z" fill="#263238"/>
<path opacity="0.3" d="M123.479 89.9746H33.3047V91.0135H123.479V89.9746Z" fill="white"/>
<path opacity="0.2" d="M123.479 89.9746H97.6431V91.0135H123.479V89.9746Z" fill="black"/>
<path d="M125.801 88.936H30.9824V89.9749H125.801V88.936Z" fill="#6633F2"/>
<path opacity="0.3" d="M125.801 88.936H95.3203V89.9749H125.801V88.936Z" fill="black"/>
<path d="M104.833 88.9814H100.328C100.185 88.9814 100.048 88.9247 99.9475 88.8239C99.8467 88.7231 99.79 88.5864 99.79 88.4438V88.4438C99.79 88.3012 99.8467 88.1645 99.9475 88.0637C100.048 87.9629 100.185 87.9062 100.328 87.9062H104.833C104.976 87.9062 105.113 87.9629 105.214 88.0637C105.314 88.1645 105.371 88.3012 105.371 88.4438V88.4438C105.371 88.5864 105.314 88.7231 105.214 88.8239C105.113 88.9247 104.976 88.9814 104.833 88.9814V88.9814Z" fill="#6633F2"/>
<path opacity="0.3" d="M104.833 88.9814H100.328C100.185 88.9814 100.048 88.9247 99.9475 88.8239C99.8467 88.7231 99.79 88.5864 99.79 88.4438V88.4438C99.79 88.3012 99.8467 88.1645 99.9475 88.0637C100.048 87.9629 100.185 87.9062 100.328 87.9062H104.833C104.976 87.9062 105.113 87.9629 105.214 88.0637C105.314 88.1645 105.371 88.3012 105.371 88.4438V88.4438C105.371 88.5864 105.314 88.7231 105.214 88.8239C105.113 88.9247 104.976 88.9814 104.833 88.9814V88.9814Z" fill="white"/>
<path d="M100.605 88.9814H96.1026C95.9597 88.9814 95.8227 88.9248 95.7214 88.8241C95.6201 88.7234 95.5628 88.5867 95.562 88.4438V88.4438C95.5628 88.301 95.6201 88.1642 95.7214 88.0635C95.8227 87.9628 95.9597 87.9062 96.1026 87.9063H100.605C100.748 87.9062 100.885 87.9628 100.987 88.0635C101.088 88.1642 101.145 88.301 101.146 88.4438V88.4438C101.145 88.5867 101.088 88.7234 100.987 88.8241C100.885 88.9248 100.748 88.9814 100.605 88.9814Z" fill="#6633F2"/>
<path opacity="0.5" d="M100.605 88.9814H96.1026C95.9597 88.9814 95.8227 88.9248 95.7214 88.8241C95.6201 88.7234 95.5628 88.5867 95.562 88.4438V88.4438C95.5628 88.301 95.6201 88.1642 95.7214 88.0635C95.8227 87.9628 95.9597 87.9062 96.1026 87.9063H100.605C100.748 87.9062 100.885 87.9628 100.987 88.0635C101.088 88.1642 101.145 88.301 101.146 88.4438V88.4438C101.145 88.5867 101.088 88.7234 100.987 88.8241C100.885 88.9248 100.748 88.9814 100.605 88.9814Z" fill="white"/>
<path d="M85.5023 72.6276H84.6356C84.4612 72.6219 84.2876 72.6541 84.1268 72.7219C83.966 72.7897 83.8218 72.8915 83.7041 73.0204C83.5865 73.1492 83.4981 73.3021 83.4452 73.4683C83.3922 73.6346 83.3759 73.8104 83.3974 73.9836L84.1373 82.4396C84.1742 82.8077 84.345 83.1494 84.6172 83.3999C84.8894 83.6504 85.2442 83.7923 85.6141 83.7986H86.4808L85.5023 72.6276Z" fill="#6633F2"/>
<path d="M85.5023 72.6276H84.6356C84.4612 72.6219 84.2876 72.6541 84.1268 72.7219C83.966 72.7897 83.8218 72.8915 83.7041 73.0204C83.5865 73.1492 83.4981 73.3021 83.4452 73.4683C83.3922 73.6346 83.3759 73.8104 83.3974 73.9836L84.1373 82.4396C84.1742 82.8077 84.345 83.1494 84.6172 83.3999C84.8894 83.6504 85.2442 83.7923 85.6141 83.7986H86.4808L85.5023 72.6276Z" fill="#6633F2"/>
<path d="M92.8318 87.5559H91.7446L92.2188 82.144H93.306L92.8318 87.5559Z" fill="#263238"/>
<path opacity="0.3" d="M92.8318 87.5559H91.7446L92.2188 82.144H93.306L92.8318 87.5559Z" fill="white"/>
<path d="M100.333 83.8015H86.2058C85.836 83.7952 85.4812 83.6534 85.209 83.4029C84.9368 83.1523 84.766 82.8106 84.7291 82.4425L83.9892 73.9865C83.9677 73.8133 83.984 73.6376 84.037 73.4713C84.0899 73.305 84.1783 73.1522 84.2959 73.0233C84.4136 72.8945 84.5578 72.7926 84.7186 72.7248C84.8794 72.657 85.0529 72.6248 85.2274 72.6305H99.3579C99.7274 72.6367 100.082 72.7782 100.354 73.0281C100.626 73.278 100.797 73.619 100.835 73.9865L101.575 82.4425C101.594 82.6156 101.575 82.7908 101.521 82.9563C101.467 83.1218 101.379 83.2739 101.261 83.4025C101.144 83.5311 101 83.6331 100.84 83.7019C100.68 83.7708 100.507 83.8047 100.333 83.8015V83.8015Z" fill="#6633F2"/>
<path opacity="0.5" d="M100.333 83.8015H86.2058C85.836 83.7952 85.4812 83.6534 85.209 83.4029C84.9368 83.1523 84.766 82.8106 84.7291 82.4425L83.9892 73.9865C83.9677 73.8133 83.984 73.6376 84.037 73.4713C84.0899 73.305 84.1783 73.1522 84.2959 73.0233C84.4136 72.8945 84.5578 72.7926 84.7186 72.7248C84.8794 72.657 85.0529 72.6248 85.2274 72.6305H99.3579C99.7274 72.6367 100.082 72.7782 100.354 73.0281C100.626 73.278 100.797 73.619 100.835 73.9865L101.575 82.4425C101.594 82.6156 101.575 82.7908 101.521 82.9563C101.467 83.1218 101.379 83.2739 101.261 83.4025C101.144 83.5311 101 83.6331 100.84 83.7019C100.68 83.7708 100.507 83.8047 100.333 83.8015V83.8015Z" fill="white"/>
<path opacity="0.5" d="M99.4034 73.1744H85.2759C85.1722 73.1725 85.0692 73.1928 84.9739 73.2337C84.8786 73.2747 84.7932 73.3355 84.7232 73.412C84.6532 73.4886 84.6003 73.5792 84.568 73.6778C84.5357 73.7763 84.5248 73.8807 84.536 73.9838L85.2759 82.4398C85.2986 82.6594 85.4008 82.8631 85.5632 83.0127C85.7256 83.1623 85.937 83.2475 86.1577 83.2522H100.285C100.389 83.2536 100.492 83.233 100.587 83.1917C100.683 83.1504 100.768 83.0893 100.838 83.0125C100.908 82.9358 100.961 82.845 100.993 82.7463C101.025 82.6475 101.036 82.5431 101.025 82.4398L100.285 73.9838C100.262 73.7647 100.159 73.5617 99.997 73.4128C99.8347 73.2638 99.6237 73.1791 99.4034 73.1744V73.1744Z" fill="white"/>
<path d="M89.6729 88.9813C89.6969 88.2409 90.008 87.5388 90.5403 87.0235C91.0726 86.5083 91.7844 86.2202 92.5252 86.2202C93.2661 86.2202 93.9779 86.5083 94.5102 87.0235C95.0425 87.5388 95.3535 88.2409 95.3776 88.9813H89.6729Z" fill="#6633F2"/>
<path opacity="0.5" d="M89.6729 88.9813C89.6969 88.2409 90.008 87.5388 90.5403 87.0235C91.0726 86.5083 91.7844 86.2202 92.5252 86.2202C93.2661 86.2202 93.9779 86.5083 94.5102 87.0235C95.0425 87.5388 95.3535 88.2409 95.3776 88.9813H89.6729Z" fill="white"/>
<path d="M96.2174 75.252H88.4469C88.4083 75.2513 88.3699 75.2589 88.3345 75.2742C88.299 75.2895 88.2672 75.3122 88.2412 75.3408C88.2152 75.3694 88.1956 75.4032 88.1837 75.44C88.1717 75.4767 88.1678 75.5156 88.1721 75.554C88.1809 75.6357 88.2192 75.7115 88.2797 75.7671C88.3403 75.8227 88.4191 75.8543 88.5013 75.856H96.2717C96.3104 75.8567 96.3487 75.8491 96.3842 75.8338C96.4197 75.8185 96.4515 75.7957 96.4775 75.7672C96.5035 75.7386 96.5231 75.7048 96.535 75.668C96.5469 75.6313 96.5509 75.5924 96.5466 75.554C96.5384 75.472 96.5003 75.3959 96.4396 75.3402C96.3789 75.2845 96.2998 75.2531 96.2174 75.252V75.252Z" fill="white"/>
<path d="M95.2541 76.5176H88.5587C88.5201 76.5169 88.4818 76.5245 88.4463 76.5398C88.4108 76.5552 88.379 76.5779 88.353 76.6064C88.327 76.635 88.3074 76.6688 88.2955 76.7056C88.2836 76.7423 88.2796 76.7812 88.2839 76.8196C88.2921 76.9016 88.3301 76.9777 88.3909 77.0334C88.4516 77.0891 88.5307 77.1205 88.6131 77.1216H95.3084C95.3471 77.1223 95.3854 77.1147 95.4209 77.0994C95.4564 77.0841 95.4882 77.0614 95.5142 77.0328C95.5402 77.0042 95.5598 76.9704 95.5717 76.9337C95.5836 76.8969 95.5876 76.858 95.5833 76.8196C95.5745 76.7379 95.5362 76.6621 95.4756 76.6065C95.415 76.551 95.3363 76.5193 95.2541 76.5176V76.5176Z" fill="white"/>
<path d="M96.0358 77.7832H88.6701C88.6314 77.7826 88.5931 77.7902 88.5576 77.8055C88.5221 77.8208 88.4903 77.8435 88.4643 77.8721C88.4383 77.9007 88.4187 77.9345 88.4068 77.9712C88.3949 78.008 88.3909 78.0468 88.3952 78.0852C88.402 78.1672 88.4393 78.2437 88.4996 78.2996C88.56 78.3555 88.6391 78.3868 88.7214 78.3873H96.0811C96.1199 78.3884 96.1585 78.3812 96.1942 78.366C96.2299 78.3509 96.2619 78.3282 96.288 78.2995C96.3142 78.2708 96.3337 78.2368 96.3455 78.1998C96.3572 78.1628 96.3608 78.1237 96.356 78.0852C96.3486 78.0045 96.312 77.9293 96.2531 77.8736C96.1941 77.818 96.1169 77.7859 96.0358 77.7832Z" fill="white"/>
<path d="M95.0638 79.045H88.7882C88.7496 79.0443 88.7113 79.0519 88.6758 79.0672C88.6403 79.0826 88.6085 79.1053 88.5825 79.1338C88.5565 79.1624 88.5369 79.1962 88.525 79.233C88.513 79.2697 88.5091 79.3086 88.5134 79.347C88.5222 79.4288 88.5605 79.5045 88.621 79.5601C88.6816 79.6157 88.7604 79.6473 88.8426 79.649H95.1302C95.1689 79.6497 95.2072 79.6421 95.2427 79.6268C95.2782 79.6115 95.31 79.5888 95.336 79.5602C95.362 79.5316 95.3816 79.4978 95.3935 79.4611C95.4054 79.4243 95.4094 79.3854 95.4051 79.347C95.3967 79.2629 95.3569 79.1851 95.2936 79.1291C95.2304 79.0731 95.1483 79.0431 95.0638 79.045Z" fill="white"/>
<g opacity="0.6">
<path opacity="0.6" d="M96.2174 75.252H88.4469C88.4083 75.2513 88.3699 75.2589 88.3345 75.2742C88.299 75.2895 88.2672 75.3122 88.2412 75.3408C88.2152 75.3694 88.1956 75.4032 88.1837 75.44C88.1717 75.4767 88.1678 75.5156 88.1721 75.554C88.1809 75.6357 88.2192 75.7115 88.2797 75.7671C88.3403 75.8227 88.4191 75.8543 88.5013 75.856H96.2717C96.3104 75.8567 96.3487 75.8491 96.3842 75.8338C96.4197 75.8185 96.4515 75.7957 96.4775 75.7672C96.5035 75.7386 96.5231 75.7048 96.535 75.668C96.5469 75.6313 96.5509 75.5924 96.5466 75.554C96.5384 75.472 96.5003 75.3959 96.4396 75.3402C96.3789 75.2845 96.2998 75.2531 96.2174 75.252V75.252Z" fill="white"/>
<path opacity="0.6" d="M95.2541 76.5171H88.5587C88.5201 76.5165 88.4818 76.524 88.4463 76.5394C88.4108 76.5547 88.379 76.5774 88.353 76.606C88.327 76.6345 88.3074 76.6683 88.2955 76.7051C88.2836 76.7419 88.2796 76.7807 88.2839 76.8191C88.2921 76.9011 88.3301 76.9772 88.3909 77.033C88.4516 77.0887 88.5307 77.12 88.6131 77.1211H95.3084C95.3471 77.1218 95.3854 77.1142 95.4209 77.0989C95.4564 77.0836 95.4882 77.0609 95.5142 77.0323C95.5402 77.0037 95.5598 76.9699 95.5717 76.9332C95.5836 76.8964 95.5876 76.8575 95.5833 76.8191C95.5745 76.7374 95.5362 76.6616 95.4756 76.6061C95.415 76.5505 95.3363 76.5189 95.2541 76.5171V76.5171Z" fill="white"/>
<path opacity="0.6" d="M96.0363 77.7828H88.6705C88.6319 77.7821 88.5936 77.7897 88.5581 77.805C88.5226 77.8203 88.4908 77.843 88.4648 77.8716C88.4388 77.9002 88.4192 77.934 88.4073 77.9707C88.3954 78.0075 88.3914 78.0464 88.3957 78.0848C88.4025 78.1668 88.4398 78.2432 88.5001 78.2991C88.5605 78.355 88.6396 78.3863 88.7219 78.3868H96.0816C96.1204 78.3879 96.159 78.3807 96.1947 78.3655C96.2304 78.3504 96.2624 78.3277 96.2885 78.299C96.3146 78.2703 96.3342 78.2363 96.346 78.1993C96.3577 78.1623 96.3613 78.1233 96.3564 78.0848C96.3491 78.004 96.3125 77.9288 96.2536 77.8731C96.1946 77.8175 96.1173 77.7854 96.0363 77.7828Z" fill="white"/>
<path opacity="0.6" d="M95.0638 79.045H88.7882C88.7496 79.0443 88.7113 79.0519 88.6758 79.0672C88.6403 79.0826 88.6085 79.1053 88.5825 79.1338C88.5565 79.1624 88.5369 79.1962 88.525 79.233C88.513 79.2697 88.5091 79.3086 88.5134 79.347C88.5222 79.4288 88.5605 79.5045 88.621 79.5601C88.6816 79.6157 88.7604 79.6473 88.8426 79.649H95.1302C95.1689 79.6497 95.2072 79.6421 95.2427 79.6268C95.2782 79.6115 95.31 79.5888 95.336 79.5602C95.362 79.5316 95.3816 79.4978 95.3935 79.4611C95.4054 79.4243 95.4094 79.3854 95.4051 79.347C95.3967 79.2629 95.3569 79.1851 95.2936 79.1291C95.2304 79.0731 95.1483 79.0431 95.0638 79.045Z" fill="white"/>
</g>
<path d="M111.994 68.1646C111.994 68.1646 110.206 68.5058 110.236 67.4156C110.266 66.3254 112.112 66.8327 112.112 66.8327L111.994 68.1646Z" fill="#1A2E35"/>
<path opacity="0.4" d="M111.994 68.1646C111.994 68.1646 110.206 68.5058 110.236 67.4156C110.266 66.3254 112.112 66.8327 112.112 66.8327L111.994 68.1646Z" fill="black"/>
<path d="M110.877 70.7734L110.058 72.06C110.209 72.1553 110.379 72.2139 110.557 72.2312C110.734 72.2486 110.913 72.224 111.079 72.1596L110.877 70.7734Z" fill="#A24E3F"/>
<path d="M110.381 70.5955C110.381 70.7616 110.465 70.8975 110.574 70.8975C110.683 70.8975 110.779 70.7585 110.776 70.5955C110.773 70.4324 110.695 70.2935 110.583 70.2935C110.471 70.2935 110.387 70.4294 110.381 70.5955Z" fill="#1A2E35"/>
<path d="M116.781 69.5595C116.853 71.7641 116.932 72.6972 115.932 73.9264C114.349 75.231 111.704 75.385 110.97 73.2469C110.315 71.3201 110.306 68.0464 112.368 66.9592C112.823 66.723 113.33 66.6061 113.842 66.6197C114.354 66.6333 114.854 66.7768 115.295 67.0368C115.736 67.2969 116.104 67.6648 116.364 68.1061C116.624 68.5474 116.767 69.0475 116.781 69.5595V69.5595Z" fill="#B97964"/>
<path opacity="0.2" d="M113.685 74.8657L113.67 74.7569C113.661 74.7008 113.641 74.6471 113.61 74.5994C113.579 74.5516 113.538 74.5109 113.491 74.4799C113.443 74.4488 113.39 74.4281 113.334 74.4191C113.278 74.4102 113.22 74.4131 113.165 74.4278L112.259 74.6724C112.711 74.8545 113.201 74.921 113.685 74.8657V74.8657Z" fill="black"/>
<path d="M110.979 69.8436C110.965 69.8455 110.95 69.8438 110.936 69.8385C110.922 69.8333 110.91 69.8246 110.901 69.8134C110.833 69.7294 110.747 69.6626 110.649 69.6185C110.551 69.5744 110.443 69.5542 110.336 69.5597C110.313 69.5615 110.291 69.5548 110.273 69.5408C110.255 69.5268 110.243 69.5066 110.239 69.4842C110.238 69.4729 110.238 69.4613 110.241 69.4502C110.244 69.4391 110.249 69.4287 110.256 69.4197C110.263 69.4106 110.272 69.4031 110.282 69.3976C110.292 69.3921 110.303 69.3887 110.315 69.3876C110.45 69.3755 110.586 69.3967 110.712 69.4494C110.837 69.502 110.947 69.5845 111.033 69.6896C111.05 69.706 111.059 69.7283 111.059 69.7515C111.059 69.7747 111.05 69.797 111.033 69.8134C111.027 69.822 111.019 69.8291 111.01 69.8343C111 69.8395 110.99 69.8427 110.979 69.8436V69.8436Z" fill="#1A2E35"/>
<path d="M113.604 74.3098L114.087 77.5804L116.82 77.0157L115.944 73.6665L113.604 74.3098Z" fill="#B97964"/>
<path d="M112.504 71.136L112.042 71.5044C111.846 70.6663 111.907 69.7885 112.217 68.9857L111.668 68.1492L111.752 67.5844C111.752 67.5844 110.897 66.2013 111.565 65.7906C112.232 65.3798 112.658 66.2345 112.658 66.2345C112.658 66.2345 113.117 64.8695 113.92 65.0567C114.724 65.2439 114.313 66.0986 114.313 66.0986C114.313 66.0986 115.612 65.1594 116.225 65.6214C116.838 66.0835 116.071 66.7298 116.071 66.7298C116.071 66.7298 117.626 66.766 117.677 67.3791C117.729 67.9921 117.043 68.0465 117.043 68.0465C117.043 68.0465 118.07 68.4029 118.052 68.9525C118.034 69.5021 117.233 69.5323 117.233 69.5323C117.233 69.5323 118.275 70.1967 118.052 70.7766C117.996 70.9344 117.881 71.0642 117.731 71.1382C117.581 71.2121 117.408 71.2243 117.249 71.1722C117.249 71.1722 117.789 71.8638 117.608 72.2383C117.545 72.3486 117.451 72.4383 117.338 72.4967C117.225 72.5551 117.097 72.5797 116.971 72.5674L116.083 74.1439C115.848 74.0645 115.597 74.0479 115.354 74.0955C115.11 74.1432 114.884 74.2536 114.697 74.4157L113.102 71.7943L112.504 71.136Z" fill="#1A2E35"/>
<path d="M112.229 70.5411C112.19 70.7611 112.195 70.9867 112.243 71.2048C112.291 71.423 112.382 71.6295 112.51 71.8125C112.855 72.2988 113.416 72.0813 113.628 71.5619C113.827 71.0908 113.884 70.2723 113.383 69.9703C113.273 69.905 113.149 69.8682 113.021 69.8634C112.893 69.8585 112.766 69.8856 112.651 69.9423C112.537 69.9991 112.438 70.0836 112.364 70.1881C112.291 70.2927 112.244 70.4141 112.229 70.5411V70.5411Z" fill="#B97964"/>
<path d="M117.373 76.6599L116.832 75.1317C116.141 74.8733 115.395 74.7931 114.665 74.8987C113.934 75.0043 113.242 75.2921 112.652 75.7357L114.187 76.6417L117.373 76.6599Z" fill="#263238"/>
<path opacity="0.2" d="M117.122 75.9557C115.887 75.6659 114.595 75.7489 113.407 76.1942L114.186 76.6593H117.372L117.122 75.9557Z" fill="black"/>
<path d="M107.814 86.7314L105.797 85.7197C105.738 85.6936 105.675 85.6802 105.611 85.6802C105.547 85.6802 105.484 85.6936 105.425 85.7197L103.776 86.372C103.696 86.4031 103.626 86.4566 103.575 86.5262C103.524 86.5958 103.495 86.6786 103.489 86.7646L103.459 87.3022C103.455 87.3768 103.469 87.4513 103.501 87.5191C103.532 87.587 103.58 87.646 103.64 87.691C103.699 87.7361 103.769 87.7658 103.843 87.7775C103.917 87.7892 103.992 87.7826 104.063 87.7582L104.667 87.5468C105.641 87.9399 106.722 87.972 107.717 87.6374L107.814 86.7314Z" fill="#B97964"/>
<path d="M100.152 86.8491L98.1499 85.8253C98.0925 85.7969 98.0297 85.7808 97.9657 85.7782C97.9017 85.7756 97.8379 85.7865 97.7784 85.8102L96.1265 86.4777C96.0461 86.5103 95.9768 86.5651 95.9265 86.6357C95.8762 86.7063 95.8471 86.7897 95.8426 86.8763L95.8124 87.4199C95.8078 87.4948 95.8217 87.5697 95.853 87.6379C95.8843 87.7061 95.9319 87.7656 95.9916 87.811C96.0514 87.8564 96.1214 87.8863 96.1955 87.8982C96.2696 87.91 96.3455 87.9034 96.4164 87.8789L97.0204 87.6675C97.993 88.0641 99.0761 88.0963 100.071 87.7581L100.152 86.8491Z" fill="#B97964"/>
<path d="M118.478 77.2364C117.49 78.0759 115.02 80.5402 111.812 86.3115H107.714C107.714 86.3115 107.134 86.7826 107.373 87.9694C107.373 87.9694 111.577 89.4643 112.718 88.9539C113.86 88.4436 117.55 82.7871 119.205 80.7728C119.779 80.0752 120.767 79.142 119.341 77.327C119.291 77.2632 119.229 77.21 119.158 77.1708C119.087 77.1315 119.009 77.107 118.929 77.0985C118.848 77.0901 118.767 77.0979 118.689 77.1216C118.612 77.1453 118.54 77.1843 118.478 77.2364V77.2364Z" fill="#263238"/>
<path opacity="0.2" d="M113.899 85.3329L112.915 84.4058C112.558 85.0098 112.19 85.6289 111.812 86.3114H110.834L111.456 89.0294C111.881 89.1092 112.319 89.0864 112.734 88.9629C113.036 88.827 113.51 88.3378 114.077 87.6523L113.899 85.3329Z" fill="black"/>
<path d="M113.156 116.669L114.092 121.205L115.938 120.93L115.494 116.515L113.156 116.669Z" fill="#B97964"/>
<path opacity="0.2" d="M115.787 119.426L115.494 116.515L113.156 116.669L113.742 119.504L115.787 119.426Z" fill="black"/>
<path d="M124.122 95.7549C124.122 95.7549 125.058 100.671 121.851 100.671C118.644 100.671 114.37 101.722 114.37 101.722C114.37 101.722 115.6 102.888 115.88 117.768L113.217 117.882C113.217 117.882 108.793 101.088 109.665 99.243C110.894 96.6428 117.261 95.7549 117.261 95.7549H124.122Z" fill="#6633F2"/>
<path d="M112.909 117.357L115.986 117.267L116.143 118.768L113.105 118.9L112.909 117.357Z" fill="#6633F2"/>
<path opacity="0.5" d="M112.909 117.357L115.986 117.267L116.143 118.768L113.105 118.9L112.909 117.357Z" fill="white"/>
<path d="M113.25 121.488C113.052 121.535 112.843 121.507 112.664 121.41C112.641 121.383 112.627 121.35 112.624 121.315C112.621 121.279 112.628 121.244 112.646 121.213C112.658 121.185 112.676 121.159 112.698 121.138C112.721 121.117 112.747 121.1 112.776 121.09C113.078 120.963 113.803 121.265 113.836 121.277C113.845 121.281 113.852 121.287 113.856 121.295C113.861 121.304 113.864 121.313 113.863 121.322C113.862 121.332 113.858 121.34 113.852 121.348C113.846 121.355 113.839 121.361 113.83 121.364C113.641 121.422 113.447 121.464 113.25 121.488V121.488ZM112.897 121.153C112.868 121.156 112.839 121.163 112.812 121.174C112.794 121.18 112.777 121.19 112.763 121.203C112.749 121.216 112.738 121.232 112.731 121.25C112.704 121.31 112.731 121.334 112.731 121.349C112.834 121.464 113.32 121.407 113.673 121.322C113.431 121.219 113.172 121.161 112.909 121.153H112.897Z" fill="#6633F2"/>
<path d="M113.836 121.365H113.815C113.573 121.292 113.063 120.93 113.078 120.709C113.078 120.655 113.108 120.589 113.232 120.558C113.323 120.539 113.417 120.557 113.495 120.607C113.695 120.797 113.83 121.045 113.881 121.316C113.885 121.323 113.887 121.33 113.887 121.338C113.887 121.345 113.885 121.352 113.881 121.359C113.876 121.365 113.868 121.369 113.86 121.37C113.851 121.371 113.843 121.369 113.836 121.365ZM113.271 120.643H113.25C113.172 120.661 113.169 120.694 113.166 120.706C113.166 120.836 113.513 121.126 113.77 121.241C113.72 121.025 113.605 120.83 113.44 120.682C113.393 120.649 113.335 120.635 113.277 120.643H113.271Z" fill="#6633F2"/>
<path d="M114.005 121.072L116.119 120.821C116.158 120.816 116.197 120.825 116.23 120.845C116.263 120.865 116.288 120.896 116.3 120.933L116.883 122.594C116.896 122.629 116.902 122.666 116.901 122.703C116.899 122.74 116.89 122.777 116.874 122.811C116.859 122.844 116.836 122.874 116.809 122.9C116.781 122.925 116.749 122.944 116.714 122.956L116.654 122.971C115.896 123.05 115.219 123.089 114.277 123.201C113.166 123.337 113.462 123.437 112.163 123.612C111.378 123.714 111.127 122.839 111.453 122.754C112.963 122.377 113.063 121.896 113.588 121.28C113.698 121.163 113.846 121.089 114.005 121.072Z" fill="#263238"/>
<path opacity="0.1" d="M115.219 99.8442H110.532L109.539 100.264C109.632 101.685 109.823 103.097 110.109 104.492L114.824 103.133C114.564 101.91 114.362 101.72 114.362 101.72C114.362 101.72 114.79 101.614 115.476 101.469L115.219 99.8442Z" fill="black"/>
<path opacity="0.1" d="M118.384 100.185C118.327 100.443 118.294 100.706 118.284 100.97C119.364 100.804 120.453 100.704 121.546 100.668C121.893 100.304 122.1 99.8279 122.127 99.3252C122.155 98.8225 122.002 98.3265 121.697 97.9263L119.818 98.7809L118.384 100.185Z" fill="black"/>
<path d="M107.754 117.885L109.493 122.113L111.191 121.772L110.025 117.248L107.754 117.885Z" fill="#B97964"/>
<path opacity="0.2" d="M110.801 120.268L110.025 117.248L107.754 117.885L108.886 120.633L110.801 120.268Z" fill="black"/>
<path d="M121.812 96.0361C121.812 96.0361 122.751 100.953 119.541 100.953C116.33 100.953 106.702 103.912 106.702 103.912C106.702 103.912 108.119 104.435 110.577 118.161L107.796 118.792C107.796 118.792 100.85 103.825 101.716 101.979C102.946 99.3823 114.944 96.0361 114.944 96.0361H121.812Z" fill="#6633F2"/>
<path d="M107.455 118.61L110.755 117.903L111.097 119.268L107.932 119.999L107.455 118.61Z" fill="#6633F2"/>
<path opacity="0.5" d="M107.455 118.61L110.755 117.903L111.097 119.268L107.932 119.999L107.455 118.61Z" fill="white"/>
<path d="M108.445 122.31C108.248 122.354 108.041 122.326 107.863 122.231C107.839 122.204 107.825 122.17 107.822 122.134C107.818 122.099 107.826 122.063 107.844 122.032C107.856 122.003 107.874 121.978 107.897 121.956C107.919 121.935 107.945 121.919 107.974 121.908C108.276 121.781 109.001 122.083 109.031 122.095C109.04 122.099 109.047 122.106 109.052 122.114C109.058 122.122 109.061 122.131 109.061 122.141C109.061 122.15 109.057 122.159 109.051 122.167C109.045 122.174 109.037 122.18 109.028 122.183C108.838 122.242 108.643 122.284 108.445 122.31V122.31ZM108.095 121.971C108.066 121.974 108.037 121.981 108.01 121.993C107.992 121.998 107.975 122.007 107.961 122.02C107.946 122.034 107.936 122.05 107.929 122.068C107.902 122.128 107.929 122.153 107.929 122.168C108.032 122.282 108.518 122.228 108.871 122.141C108.626 122.035 108.362 121.976 108.095 121.968V121.971Z" fill="#6633F2"/>
<path d="M109.022 122.18H109.001C108.759 122.107 108.246 121.745 108.261 121.525C108.261 121.47 108.291 121.404 108.415 121.377C108.46 121.366 108.506 121.364 108.551 121.372C108.596 121.38 108.639 121.397 108.678 121.422C108.879 121.611 109.016 121.86 109.067 122.132C109.071 122.138 109.073 122.145 109.073 122.153C109.073 122.16 109.071 122.167 109.067 122.174C109.062 122.18 109.054 122.184 109.046 122.185C109.038 122.186 109.029 122.184 109.022 122.18V122.18ZM108.457 121.458H108.418C108.337 121.476 108.337 121.51 108.334 121.522C108.334 121.655 108.681 121.944 108.938 122.056C108.889 121.841 108.775 121.645 108.611 121.497C108.564 121.464 108.506 121.45 108.448 121.458H108.457Z" fill="#6633F2"/>
<path d="M109.191 121.887L111.29 121.636C111.329 121.631 111.368 121.639 111.401 121.659C111.434 121.68 111.459 121.711 111.471 121.748L112.057 123.409C112.083 123.48 112.079 123.558 112.046 123.626C112.014 123.694 111.956 123.746 111.885 123.772L111.828 123.787C111.07 123.865 110.393 123.904 109.451 124.019C108.337 124.152 108.636 124.252 107.337 124.427C106.552 124.533 106.298 123.654 106.627 123.569C108.137 123.195 108.237 122.712 108.76 122.096C108.874 121.976 109.027 121.902 109.191 121.887V121.887Z" fill="#263238"/>
<path d="M110.432 77.0579C110.431 76.9624 110.448 76.8675 110.484 76.779C110.52 76.6905 110.573 76.6102 110.641 76.5428C110.709 76.4754 110.789 76.4223 110.878 76.3868C110.967 76.3513 111.062 76.3341 111.157 76.3361L117.345 76.4569C118.087 76.4717 118.812 76.6808 119.448 77.0634C120.084 77.446 120.608 77.9887 120.969 78.6373C122.404 81.1983 124.291 86.438 124.246 96.3013H113.978C113.978 96.3013 110.493 83.4995 110.432 77.0579Z" fill="#263238"/>
<path opacity="0.4" d="M110.583 79.5463C110.731 81.0291 110.973 82.6629 111.266 84.3149C112.821 81.0563 111.988 78.3896 111.988 78.3896L110.583 79.5463Z" fill="black"/>
<path d="M110.453 76.6112C109.732 77.4538 108.611 79.1389 105.217 85.3179L100.025 86.4232C100.025 86.4232 99.4455 86.9003 99.6841 88.1023C99.6841 88.1023 105.256 89.0596 106.398 88.5432C107.539 88.0268 110.453 83.6418 111.791 81.3737C112.344 80.4375 112.637 78.5923 110.976 76.6172C110.944 76.5792 110.904 76.5485 110.859 76.5273C110.815 76.506 110.766 76.4947 110.716 76.4942C110.666 76.4936 110.617 76.5037 110.572 76.5239C110.527 76.5441 110.486 76.5739 110.453 76.6112V76.6112Z" fill="#263238"/>
<path d="M128.528 124.364L120.915 121.561L113.22 124.367C113.158 124.389 113.092 124.396 113.027 124.388C112.962 124.379 112.901 124.355 112.847 124.317C112.793 124.279 112.749 124.229 112.719 124.171C112.689 124.113 112.673 124.049 112.673 123.983V123.983C112.674 123.906 112.696 123.83 112.738 123.765C112.78 123.7 112.839 123.648 112.909 123.615L120.915 119.894L128.842 123.609C128.912 123.642 128.971 123.694 129.012 123.759C129.053 123.824 129.075 123.9 129.075 123.977C129.076 124.043 129.061 124.108 129.031 124.167C129.002 124.226 128.958 124.277 128.904 124.315C128.85 124.353 128.788 124.378 128.722 124.386C128.657 124.394 128.59 124.387 128.528 124.364V124.364Z" fill="#263238"/>
<path opacity="0.3" d="M128.528 124.364L120.915 121.561L113.22 124.367C113.158 124.389 113.092 124.396 113.027 124.388C112.962 124.379 112.901 124.355 112.847 124.317C112.793 124.279 112.749 124.229 112.719 124.171C112.689 124.113 112.673 124.049 112.673 123.983V123.983C112.674 123.906 112.696 123.83 112.738 123.765C112.78 123.7 112.839 123.648 112.909 123.615L120.915 119.894L128.842 123.609C128.912 123.642 128.971 123.694 129.012 123.759C129.053 123.824 129.075 123.9 129.075 123.977C129.076 124.043 129.061 124.108 129.031 124.167C129.002 124.226 128.958 124.277 128.904 124.315C128.85 124.353 128.788 124.378 128.722 124.386C128.657 124.394 128.59 124.387 128.528 124.364V124.364Z" fill="white"/>
<path opacity="0.2" d="M119.121 122.216L120.915 121.561L122.627 122.192V120.703L120.915 119.9L119.121 120.733V122.216Z" fill="black"/>
<path d="M120.876 124.424C120.709 124.424 120.547 124.362 120.423 124.251C120.299 124.139 120.22 123.986 120.202 123.82L119.988 121.564V102.84H121.764V121.564L121.546 123.82C121.528 123.985 121.45 124.138 121.326 124.25C121.203 124.361 121.042 124.423 120.876 124.424V124.424Z" fill="#263238"/>
<path opacity="0.3" d="M120.876 124.424C120.709 124.424 120.547 124.362 120.423 124.251C120.299 124.139 120.22 123.986 120.202 123.82L119.988 121.564V102.84H121.764V121.564L121.546 123.82C121.528 123.985 121.45 124.138 121.326 124.25C121.203 124.361 121.042 124.423 120.876 124.424V124.424Z" fill="white"/>
<path opacity="0.2" d="M121.764 102.831H119.988V105.011H121.764V102.831Z" fill="black"/>
<path d="M133.224 101.128C131.215 100.616 129.154 100.332 127.082 100.282C124.946 100.228 116.965 100.282 115.068 100.282C112.756 100.281 110.453 100.568 108.213 101.137C106.805 101.496 107.237 103.525 108.515 103.553C108.629 103.553 132.765 103.553 132.853 103.553C134.176 103.601 134.662 101.493 133.224 101.128Z" fill="#6633F2"/>
<path opacity="0.3" d="M133.224 101.128C131.215 100.616 129.154 100.332 127.082 100.282C124.946 100.228 116.965 100.282 115.068 100.282C112.756 100.281 110.453 100.568 108.213 101.137C106.805 101.496 107.237 103.525 108.515 103.553C108.629 103.553 132.765 103.553 132.853 103.553C134.176 103.601 134.662 101.493 133.224 101.128Z" fill="black"/>
<path d="M108.865 103.498C112.934 102.463 117.199 102.463 121.268 103.498C122.802 103.888 123.458 101.517 121.923 101.128C117.424 99.9861 112.712 99.9861 108.213 101.128C106.681 101.517 107.331 103.891 108.865 103.498V103.498Z" fill="#6633F2"/>
<g opacity="0.3">
<path opacity="0.3" d="M108.865 103.498C112.934 102.463 117.199 102.463 121.268 103.498C122.802 103.888 123.458 101.517 121.923 101.128C117.424 99.9861 112.712 99.9861 108.213 101.128C106.681 101.517 107.331 103.891 108.865 103.498V103.498Z" fill="white"/>
</g>
<path d="M126.768 83.5358C126.629 83.5327 126.493 83.5677 126.373 83.6369C126.253 83.7062 126.154 83.807 126.088 83.9284C122.84 89.3734 121.674 95.8102 122.805 102.048C122.82 102.208 122.892 102.357 123.008 102.468C123.124 102.579 123.276 102.644 123.436 102.652C123.929 102.686 132.69 102.652 133.01 102.652C133.14 102.656 133.269 102.63 133.387 102.577C133.506 102.525 133.612 102.447 133.697 102.349C133.782 102.251 133.845 102.135 133.88 102.01C133.915 101.885 133.922 101.754 133.901 101.626C132.878 95.817 133.985 89.8343 137.02 84.7771C137.395 84.1549 136.842 83.5691 136.284 83.5691C136.03 83.5298 127.326 83.5479 126.768 83.5358Z" fill="#6633F2"/>
<path opacity="0.2" d="M126.768 83.5358C126.629 83.5327 126.493 83.5677 126.373 83.6369C126.253 83.7062 126.154 83.807 126.088 83.9284C122.84 89.3734 121.674 95.8102 122.805 102.048C122.82 102.208 122.892 102.357 123.008 102.468C123.124 102.579 123.276 102.644 123.436 102.652C123.929 102.686 132.69 102.652 133.01 102.652C133.14 102.656 133.269 102.63 133.387 102.577C133.506 102.525 133.612 102.447 133.697 102.349C133.782 102.251 133.845 102.135 133.88 102.01C133.915 101.885 133.922 101.754 133.901 101.626C132.878 95.817 133.985 89.8343 137.02 84.7771C137.395 84.1549 136.842 83.5691 136.284 83.5691C136.03 83.5298 127.326 83.5479 126.768 83.5358Z" fill="black"/>
<path d="M124.385 101.602C123.363 95.7929 124.471 89.8106 127.504 84.753C128.051 83.847 126.632 83.0225 126.088 83.9285C122.84 89.3734 121.674 95.8103 122.805 102.048C122.993 103.084 124.572 102.652 124.385 101.614V101.602Z" fill="#6633F2"/>
<g opacity="0.2">
<path opacity="0.2" d="M124.385 101.602C123.363 95.7929 124.471 89.8106 127.504 84.753C128.051 83.847 126.632 83.0225 126.088 83.9285C122.84 89.3734 121.674 95.8103 122.805 102.048C122.993 103.084 124.572 102.652 124.385 101.614V101.602Z" fill="white"/>
</g>
</svg>
