<svg width="140" height="140" viewBox="0 0 140 140" fill="none" xmlns="http://www.w3.org/2000/svg">
<path fill-rule="evenodd" clip-rule="evenodd" d="M70.4887 12.4694C80.4373 13.3848 89.4879 17.7325 97.5053 23.7483C105.445 29.7059 112.628 36.9623 115.757 46.4358C118.901 55.9541 118.91 66.6942 114.694 75.7802C110.722 84.3382 101.977 89.0564 93.8224 93.6998C86.5564 97.8372 78.6797 99.3547 70.4887 100.952C60.0454 102.988 49.1441 108.89 39.5361 104.285C29.5812 99.5127 23.3883 88.3301 21.3511 77.3979C19.4293 67.0854 25.8805 57.6851 28.9861 47.6708C32.1373 37.5094 31.5637 25.2739 39.6397 18.424C47.856 11.4552 59.801 11.4861 70.4887 12.4694Z" fill="#FFDE29"/>
<path d="M125.972 111.577H116.698V111.647H125.972V111.577Z" fill="#EBEBEB"/>
<path d="M92.7418 112.339H90.3086V112.409H92.7418V112.339Z" fill="#EBEBEB"/>
<path d="M116.419 108.979H111.045V109.049H116.419V108.979Z" fill="#EBEBEB"/>
<path d="M26.7822 109.449H14.689V109.519H26.7822V109.449Z" fill="#EBEBEB"/>
<path d="M31.0493 109.449H29.2769V109.519H31.0493V109.449Z" fill="#EBEBEB"/>
<path d="M63.0419 110.631H36.8115V110.701H63.0419V110.631Z" fill="#EBEBEB"/>
<path d="M66.3599 94.5839H12.2975C11.8735 94.5839 11.4668 94.4155 11.167 94.1156C10.8672 93.8158 10.6987 93.4091 10.6987 92.9851V16.9847C10.7024 16.5631 10.8725 16.16 11.1719 15.8632C11.4714 15.5664 11.8759 15.3999 12.2975 15.3999H66.3599C66.784 15.3999 67.1906 15.5683 67.4905 15.8682C67.7903 16.168 67.9587 16.5747 67.9587 16.9987V92.9851C67.9587 93.4091 67.7903 93.8158 67.4905 94.1156C67.1906 94.4155 66.784 94.5839 66.3599 94.5839V94.5839ZM12.2975 15.4559C11.8923 15.4566 11.5039 15.6179 11.2173 15.9045C10.9308 16.191 10.7695 16.5795 10.7687 16.9847V92.9851C10.7695 93.3903 10.9308 93.7788 11.2173 94.0653C11.5039 94.3519 11.8923 94.5132 12.2975 94.5139H66.3599C66.7652 94.5132 67.1536 94.3519 67.4401 94.0653C67.7267 93.7788 67.888 93.3903 67.8887 92.9851V16.9847C67.888 16.5795 67.7267 16.191 67.4401 15.9045C67.1536 15.6179 66.7652 15.4566 66.3599 15.4559H12.2975Z" fill="#EBEBEB"/>
<path d="M126.927 94.5839H72.8586C72.4348 94.5832 72.0285 94.4145 71.7289 94.1148C71.4292 93.8151 71.2605 93.4089 71.2598 92.9851V16.9847C71.2642 16.5633 71.4345 16.1607 71.7338 15.864C72.033 15.5674 72.4372 15.4006 72.8586 15.3999H126.927C127.347 15.4014 127.75 15.5685 128.049 15.8652C128.347 16.1618 128.516 16.5641 128.52 16.9847V92.9851C128.52 93.4082 128.352 93.814 128.053 94.1136C127.755 94.4133 127.35 94.5824 126.927 94.5839V94.5839ZM72.8586 15.4559C72.4533 15.4566 72.0649 15.6179 71.7784 15.9045C71.4918 16.191 71.3305 16.5795 71.3298 16.9847V92.9851C71.3305 93.3903 71.4918 93.7788 71.7784 94.0653C72.0649 94.3519 72.4533 94.5132 72.8586 94.5139H126.927C127.332 94.5132 127.72 94.3519 128.007 94.0653C128.293 93.7788 128.455 93.3903 128.455 92.9851V16.9847C128.455 16.5795 128.293 16.191 128.007 15.9045C127.72 15.6179 127.332 15.4566 126.927 15.4559H72.8586Z" fill="#EBEBEB"/>
<path d="M140 107.072H0V107.142H140V107.072Z" fill="#EBEBEB"/>
<path d="M36.8647 92.4002C36.8983 92.4366 36.7079 92.6998 37.4751 92.585C38.6819 92.403 40.8351 91.2354 42.2351 90.4122C42.3806 90.3257 42.5036 90.2058 42.5938 90.0625C42.684 89.9192 42.7388 89.7565 42.7539 89.5878C42.7689 89.4191 42.7437 89.2493 42.6803 89.0923C42.6168 88.9352 42.517 88.7955 42.3891 88.6846C41.6667 88.049 40.8939 87.1782 40.9695 86.411C41.0507 85.599 42.7503 84.6526 44.1951 83.9918C44.3654 83.9139 44.5123 83.7928 44.6212 83.6405C44.7302 83.4881 44.7973 83.31 44.816 83.1236C44.8347 82.9373 44.8043 82.7493 44.7278 82.5784C44.6513 82.4075 44.5313 82.2596 44.3799 82.1494C43.9179 81.8134 43.5399 81.4298 43.5399 81.0546C43.5175 80.4946 44.7719 79.7806 45.9283 79.229C46.078 79.1572 46.2092 79.0519 46.3115 78.9211C46.4138 78.7903 46.4845 78.6376 46.5181 78.475C46.5517 78.3124 46.5473 78.1442 46.5052 77.9836C46.4631 77.823 46.3845 77.6742 46.2755 77.549C46.1937 77.4629 46.1364 77.3565 46.1093 77.2409C46.0823 77.1252 46.0865 77.0045 46.1215 76.891C46.2419 76.541 46.5107 75.6534 46.8019 74.6846C46.8693 74.4646 46.8639 74.2286 46.7866 74.0119C46.7092 73.7951 46.564 73.6091 46.3725 73.4814C46.181 73.3537 45.9534 73.2912 45.7236 73.3032C45.4937 73.3152 45.2739 73.401 45.0967 73.5478C44.205 74.319 43.2702 75.0388 42.2967 75.7038C42.194 75.7641 42.076 75.793 41.9571 75.787C41.8382 75.7811 41.7236 75.7405 41.6275 75.6702C41.481 75.5656 41.3106 75.4995 41.132 75.4779C40.9533 75.4563 40.7721 75.4798 40.6049 75.5464C40.4377 75.613 40.2899 75.7205 40.1751 75.8591C40.0602 75.9976 39.9819 76.1628 39.9475 76.3394C39.5891 78.2994 38.9843 80.6038 38.0771 81.1638C37.6474 81.4266 37.1376 81.526 36.6407 81.4438C36.498 81.4213 36.3523 81.4278 36.2122 81.4628C36.0722 81.4979 35.9406 81.5608 35.8253 81.6478C35.7101 81.7349 35.6135 81.8442 35.5415 81.9693C35.4694 82.0945 35.4233 82.2329 35.4059 82.3762C35.1147 84.857 34.8039 90.1042 36.8647 92.4002Z" fill="#F5F5F5"/>
<path d="M42.6944 81.074C42.1379 81.1144 41.5892 81.2274 41.062 81.41C41.4115 80.8834 41.7999 80.3836 42.224 79.9148C42.237 79.9021 42.2474 79.8868 42.2545 79.87C42.2615 79.8532 42.2652 79.8351 42.2652 79.8168C42.2652 79.7986 42.2615 79.7805 42.2545 79.7637C42.2474 79.7469 42.237 79.7316 42.224 79.7188C42.211 79.7057 42.1955 79.6953 42.1784 79.6882C42.1614 79.6811 42.1431 79.6774 42.1246 79.6774C42.1061 79.6774 42.0878 79.6811 42.0708 79.6882C42.0537 79.6953 42.0382 79.7057 42.0252 79.7188C41.1119 80.7431 40.3302 81.8775 39.6984 83.0956C39.1048 79.5144 40.6028 76.3756 40.6196 76.3532C40.6314 76.3283 40.633 76.2997 40.6241 76.2736C40.6152 76.2475 40.5965 76.2259 40.572 76.2132C40.5597 76.207 40.5463 76.2034 40.5326 76.2024C40.5188 76.2014 40.5051 76.2032 40.492 76.2077C40.479 76.2121 40.467 76.2191 40.4567 76.2282C40.4464 76.2373 40.438 76.2484 40.432 76.2608C40.4152 76.2944 38.8136 79.6348 39.5388 83.3924C39.3521 83.7658 39.1589 84.1606 38.9592 84.5768C38.2815 86.0839 37.7471 87.6513 37.3632 89.2585C36.6636 87.9393 36.2802 86.4756 36.2432 84.9829C36.2432 84.9691 36.2404 84.9555 36.235 84.9429C36.2296 84.9303 36.2217 84.919 36.2117 84.9095C36.2018 84.9001 36.19 84.8928 36.1771 84.8881C36.1642 84.8833 36.1505 84.8813 36.1368 84.882C36.1088 84.8835 36.0825 84.8956 36.0632 84.9159C36.0439 84.9363 36.0332 84.9632 36.0332 84.9913C36.0672 86.5921 36.4982 88.1594 37.2876 89.5524C36.5721 92.7145 36.3324 95.9656 36.5764 99.1985C36.5775 99.2169 36.5822 99.2349 36.5902 99.2514C36.5983 99.268 36.6095 99.2828 36.6233 99.2951C36.6371 99.3073 36.6531 99.3167 36.6706 99.3227C36.688 99.3287 36.7064 99.3312 36.7248 99.3301H36.7416C36.7754 99.3234 36.8057 99.3046 36.8268 99.2774C36.8479 99.2501 36.8584 99.2161 36.8564 99.1817C36.5092 94.1417 37.2624 90.1068 38.304 87.0436C38.8819 86.3739 39.673 85.924 40.544 85.7697C40.5712 85.7642 40.5954 85.7489 40.612 85.7267C40.6285 85.7044 40.6362 85.6769 40.6336 85.6493C40.6316 85.6356 40.6268 85.6224 40.6196 85.6106C40.6124 85.5988 40.6029 85.5885 40.5917 85.5804C40.5805 85.5724 40.5678 85.5666 40.5543 85.5635C40.5408 85.5604 40.5268 85.5601 40.5132 85.5624C39.7493 85.6922 39.0405 86.0437 38.4748 86.5732C39.0813 84.8691 39.8827 83.2409 40.8632 81.7208C41.4534 81.4733 42.0809 81.3266 42.7196 81.2868C42.7471 81.2833 42.7722 81.2695 42.7899 81.2482C42.8075 81.2269 42.8164 81.1997 42.8148 81.172C42.8142 81.1574 42.8105 81.143 42.8039 81.1299C42.7974 81.1168 42.7881 81.1052 42.7767 81.0959C42.7653 81.0866 42.7521 81.0799 42.7379 81.0761C42.7237 81.0724 42.7089 81.0716 42.6944 81.074V81.074Z" fill="#E0E0E0"/>
<path d="M34.44 93.4806C33.4488 93.4974 31.5924 92.3606 30.3604 91.5206C30.2419 91.4382 30.1445 91.3291 30.0761 91.202C30.0077 91.0749 29.9702 90.9335 29.9667 90.7893C29.9631 90.645 29.9936 90.5019 30.0557 90.3716C30.1178 90.2414 30.2097 90.1276 30.324 90.0394C30.4985 89.9261 30.6342 89.7621 30.7128 89.5694C30.7914 89.3767 30.8091 89.1645 30.7636 88.9614C30.6068 88.4014 29.274 88.1942 27.986 88.1382C27.8137 88.1311 27.6468 88.0762 27.5039 87.9797C27.3611 87.8831 27.2479 87.7488 27.177 87.5916C27.1061 87.4344 27.0803 87.2607 27.1025 87.0897C27.1248 86.9187 27.1941 86.7573 27.3028 86.6234C27.5221 86.4092 27.653 86.1204 27.6696 85.8142C27.6052 85.327 26.026 84.2994 24.7352 83.535C24.5939 83.4514 24.4774 83.3318 24.3973 83.1885C24.3173 83.0452 24.2766 82.8832 24.2794 82.7191C24.2823 82.5549 24.3285 82.3945 24.4135 82.254C24.4985 82.1136 24.6191 81.9981 24.7632 81.9194C25.1916 81.6786 25.4968 81.3958 25.3484 81.1214C25.2 80.847 24.906 80.259 24.5672 79.573C24.4777 79.3942 24.4483 79.1914 24.4833 78.9946C24.5182 78.7977 24.6157 78.6174 24.7613 78.4804C24.9068 78.3433 25.0926 78.2569 25.2912 78.2338C25.4897 78.2107 25.6905 78.2522 25.8636 78.3522C26.6479 78.8243 27.4584 79.2515 28.2912 79.6318C28.6692 79.769 29.1312 79.545 29.5428 79.2258C29.6696 79.1311 29.8186 79.0705 29.9755 79.0498C30.1324 79.029 30.292 79.0487 30.4391 79.1071C30.5862 79.1655 30.7159 79.2606 30.8158 79.3833C30.9157 79.506 30.9826 79.6523 31.01 79.8082C31.3796 81.827 32.0908 84.8818 33.0652 85.2766C33.3691 85.3961 33.7058 85.4031 34.0144 85.2962C34.1546 85.2556 34.3025 85.2489 34.4458 85.2768C34.5891 85.3048 34.7237 85.3665 34.8384 85.4568C34.9531 85.5471 35.0446 85.6635 35.1053 85.7963C35.166 85.929 35.1942 86.0744 35.1876 86.2202C35.1092 88.841 34.8992 93.4722 34.44 93.4806Z" fill="#E6E6E6"/>
<path d="M33.9247 91.5963C33.9481 91.587 33.9677 91.5703 33.9807 91.5487C34.5776 90.2341 34.8199 88.7861 34.6835 87.3487C34.6813 87.321 34.6684 87.2952 34.6475 87.2769C34.6265 87.2586 34.5993 87.2492 34.5715 87.2507C34.5435 87.2536 34.5177 87.2671 34.4995 87.2885C34.4812 87.3099 34.4719 87.3375 34.4735 87.3655C34.5912 88.7312 34.373 90.1048 33.8379 91.3667C33.1892 89.614 32.3891 87.9211 31.4467 86.3071C31.7267 82.9471 29.9963 80.1751 29.9795 80.1471C29.9723 80.1352 29.9628 80.1248 29.9515 80.1165C29.9403 80.1083 29.9274 80.1025 29.9138 80.0993C29.9002 80.0962 29.8862 80.0958 29.8724 80.0983C29.8587 80.1007 29.8456 80.1059 29.8339 80.1135C29.8107 80.129 29.7946 80.1529 29.7888 80.1801C29.783 80.2073 29.7882 80.2357 29.8031 80.2592C30.8048 81.997 31.3086 83.9771 31.2591 85.9823C30.1287 84.0459 28.7806 82.245 27.2411 80.6147C27.2141 80.592 27.1796 80.5802 27.1444 80.5818C27.1091 80.5834 27.0758 80.5983 27.051 80.6234C27.0263 80.6485 27.0119 80.6821 27.0108 80.7173C27.0097 80.7526 27.0219 80.7869 27.0451 80.8135C28.187 82.0093 29.2179 83.3064 30.1251 84.6887C29.1762 84.3339 28.1701 84.1564 27.1571 84.1651C27.1431 84.1655 27.1293 84.1686 27.1166 84.1743C27.1038 84.18 27.0923 84.1881 27.0827 84.1983C27.073 84.2084 27.0655 84.2204 27.0605 84.2334C27.0555 84.2465 27.0531 84.2604 27.0535 84.2744C27.0542 84.3013 27.0654 84.327 27.0848 84.3458C27.1041 84.3646 27.1301 84.3752 27.1571 84.3751V84.3751C28.2436 84.3657 29.3208 84.5762 30.3239 84.9939C30.9434 85.9429 31.5135 86.9233 32.0319 87.9311C31.6101 87.6385 31.1297 87.4408 30.6241 87.3519C30.1184 87.2629 29.5995 87.2848 29.1031 87.4159C29.0761 87.4232 29.053 87.4408 29.0389 87.4649C29.0247 87.489 29.0206 87.5177 29.0275 87.5447C29.031 87.5581 29.0372 87.5705 29.0456 87.5814C29.0541 87.5923 29.0646 87.6014 29.0766 87.6082C29.0886 87.615 29.1018 87.6193 29.1155 87.6209C29.1292 87.6225 29.143 87.6214 29.1563 87.6175C29.6944 87.4786 30.2585 87.4744 30.7986 87.6052C31.3387 87.7361 31.8383 87.9981 32.2531 88.3679C34.0616 91.9458 35.0931 95.8657 35.2799 99.8703C35.2813 99.9065 35.2967 99.9407 35.3228 99.9657C35.3489 99.9908 35.3837 100.005 35.4199 100.005C35.4383 100.004 35.4563 99.9997 35.4731 99.992C35.4898 99.9843 35.5048 99.9733 35.5173 99.9598C35.5298 99.9463 35.5395 99.9304 35.5458 99.9132C35.5522 99.8959 35.555 99.8775 35.5543 99.8591C35.4351 97.038 34.8856 94.2515 33.9247 91.5963V91.5963Z" fill="#F5F5F5"/>
<path d="M36.0558 97.6748H30.7358L31.9902 106.002C32.0306 106.275 32.1679 106.525 32.3771 106.705C32.5864 106.886 32.8535 106.985 33.1298 106.985H38.4274C38.7039 106.985 38.9711 106.885 39.1807 106.705C39.3903 106.525 39.5283 106.275 39.5698 106.002L40.8214 97.6748H36.0558Z" fill="#F0F0F0"/>
<path d="M40.5722 99.3296L40.8214 97.6748H36.0558H35.5014H30.7358L30.985 99.3296H40.5722Z" fill="#E0E0E0"/>
<path d="M41.6558 98.3751H29.8958C29.831 98.375 29.7672 98.3591 29.71 98.3288C29.6528 98.2985 29.6038 98.2547 29.5674 98.2012C29.531 98.1476 29.5082 98.086 29.501 98.0216C29.4938 97.9573 29.5024 97.8922 29.5262 97.8319L29.7698 97.2243C29.7994 97.1506 29.8505 97.0875 29.9163 97.043C29.9822 96.9986 30.0599 96.975 30.1394 96.9751H41.4122C41.4913 96.9748 41.5687 96.9984 41.6342 97.0429C41.6997 97.0873 41.7501 97.1506 41.779 97.2243L42.0226 97.8319C42.0469 97.8919 42.0561 97.957 42.0494 98.0214C42.0426 98.0858 42.0201 98.1476 41.9839 98.2012C41.9477 98.2549 41.8988 98.2988 41.8415 98.3292C41.7843 98.3595 41.7205 98.3752 41.6558 98.3751Z" fill="#F0F0F0"/>
<path d="M28.4397 57.9068L24.0381 57.2544C21.4509 56.9744 19.9137 58.0944 19.0205 59.7016C20.6553 61.4958 22.8583 62.6721 25.2586 63.0327C27.659 63.3932 30.1103 62.916 32.2001 61.6812C31.6961 57.8452 28.4397 57.9068 28.4397 57.9068Z" fill="#E0E0E0"/>
<path d="M25.2002 52.3599C25.2674 53.8187 25.161 56.4535 24.0298 57.2515C24.0298 57.2515 25.455 60.0823 27.5606 61.0259C28.8542 60.1467 28.4314 57.9039 28.4314 57.9039C26.9082 57.2935 27.1238 56.1259 27.5606 55.0591L25.2002 52.3599Z" fill="#F5F5F5"/>
<path d="M26.1686 53.48L27.5686 55.0816C27.4594 55.327 27.3732 55.5819 27.311 55.8432C26.7202 55.6668 25.9894 54.8828 26.0174 54.2416C26.0213 53.9807 26.0726 53.7226 26.1686 53.48V53.48Z" fill="#E6E6E6"/>
<path d="M24.1332 49.6945C24.3208 52.0801 24.3488 53.0965 25.578 54.3005C27.426 56.1121 30.3184 55.3617 30.8476 52.9649C31.3236 50.8089 30.9344 47.2781 28.5768 46.3541C28.058 46.1513 27.496 46.0845 26.9442 46.1601C26.3924 46.2356 25.869 46.4509 25.4238 46.7856C24.9786 47.1203 24.6263 47.5632 24.4004 48.0723C24.1745 48.5814 24.0825 49.1398 24.1332 49.6945Z" fill="#F5F5F5"/>
<path d="M29.271 50.5342C29.4524 50.9749 29.6936 51.3885 29.9878 51.7634C29.89 51.8364 29.7775 51.8873 29.6581 51.9125C29.5386 51.9376 29.4151 51.9364 29.2962 51.909L29.271 50.5342Z" fill="#E0E0E0"/>
<path d="M28.4451 52.6537C28.5541 52.6533 28.6628 52.643 28.7699 52.6229C28.7773 52.6219 28.7844 52.6194 28.7908 52.6156C28.7972 52.6118 28.8028 52.6067 28.8073 52.6007C28.8117 52.5947 28.8149 52.5879 28.8167 52.5807C28.8184 52.5734 28.8187 52.5659 28.8175 52.5585C28.8148 52.5441 28.8065 52.5313 28.7945 52.523C28.7824 52.5146 28.7676 52.5113 28.7531 52.5137C28.5158 52.5598 28.271 52.5499 28.0381 52.4848C27.8053 52.4196 27.5909 52.3011 27.4119 52.1385C27.4067 52.133 27.4004 52.1286 27.3934 52.1256C27.3864 52.1226 27.3789 52.1211 27.3713 52.1211C27.3637 52.1211 27.3562 52.1226 27.3492 52.1256C27.3422 52.1286 27.336 52.133 27.3307 52.1385C27.3203 52.1495 27.3145 52.164 27.3145 52.1791C27.3145 52.1942 27.3203 52.2088 27.3307 52.2197C27.6328 52.5019 28.0318 52.6572 28.4451 52.6537V52.6537Z" fill="#E0E0E0"/>
<path d="M27.0845 49.5964C27.0986 49.6026 27.1139 49.6057 27.1293 49.6057C27.1447 49.6057 27.16 49.6026 27.1741 49.5964C27.292 49.5137 27.4279 49.4602 27.5705 49.4402C27.7131 49.4203 27.8584 49.4344 27.9945 49.4816C28.0216 49.4899 28.0508 49.4879 28.0765 49.4759C28.1022 49.464 28.1226 49.443 28.1337 49.4169C28.1449 49.3908 28.146 49.3615 28.1368 49.3347C28.1276 49.3079 28.1089 49.2854 28.0841 49.2716C27.9152 49.2075 27.7332 49.1852 27.5538 49.2067C27.3744 49.2281 27.2028 49.2927 27.0537 49.3948C27.0288 49.4114 27.0113 49.4371 27.005 49.4664C26.9987 49.4957 27.0041 49.5262 27.0201 49.5516C27.0349 49.5744 27.058 49.5905 27.0845 49.5964V49.5964Z" fill="#E0E0E0"/>
<path d="M30.2762 49.5876C30.2893 49.5855 30.3018 49.5807 30.3129 49.5734C30.3239 49.5662 30.3334 49.5567 30.3406 49.5456C30.3488 49.5353 30.3548 49.5233 30.3582 49.5106C30.3616 49.4978 30.3625 49.4845 30.3606 49.4715C30.3588 49.4584 30.3544 49.4458 30.3476 49.4345C30.3407 49.4232 30.3317 49.4134 30.321 49.4056V49.4056C30.1935 49.3075 30.0444 49.2412 29.8861 49.2125C29.7278 49.1838 29.5649 49.1933 29.411 49.2404C29.3865 49.251 29.3668 49.2704 29.3559 49.2948C29.345 49.3191 29.3437 49.3467 29.3522 49.372C29.3616 49.3968 29.3804 49.4168 29.4046 49.4279C29.4287 49.4389 29.4561 49.4399 29.481 49.4308C29.6034 49.3945 29.7327 49.3882 29.858 49.4126C29.9833 49.437 30.1008 49.4913 30.2006 49.5708C30.2113 49.5789 30.2235 49.5846 30.2366 49.5875C30.2496 49.5904 30.2632 49.5905 30.2762 49.5876V49.5876Z" fill="#E0E0E0"/>
<path d="M26.6926 63.333C24.5915 63.3303 22.5385 62.7047 20.7929 61.5354C19.0473 60.3662 17.6875 58.7056 16.8854 56.7637C16.0833 54.8219 15.8749 52.6858 16.2865 50.6255C16.698 48.5651 17.7112 46.6731 19.1978 45.1884C20.6844 43.7037 22.5778 42.6931 24.6387 42.2842C26.6995 41.8753 28.8354 42.0866 30.7762 42.8913C32.717 43.6959 34.3758 45.0579 35.5427 46.805C36.7097 48.5521 37.3326 50.606 37.3326 52.707C37.3289 55.5265 36.2062 58.2293 34.2112 60.2216C32.2163 62.214 29.5121 63.333 26.6926 63.333V63.333ZM26.6926 42.4255C24.6592 42.426 22.6716 43.0295 20.9812 44.1596C19.2908 45.2897 17.9734 46.8956 17.1956 48.7744C16.4178 50.6532 16.2146 52.7204 16.6117 54.7146C17.0087 56.7089 17.9882 58.5406 19.4262 59.9782C20.8642 61.4158 22.6962 62.3948 24.6906 62.7913C26.6849 63.1878 28.7521 62.984 30.6306 62.2057C32.5092 61.4275 34.1148 60.1096 35.2444 58.4189C36.374 56.7282 36.977 54.7404 36.977 52.707C36.974 49.9806 35.8894 47.3668 33.9613 45.4391C32.0332 43.5115 29.419 42.4277 26.6926 42.4255V42.4255Z" fill="#E0E0E0"/>
<path d="M27.5714 50.4001C27.5714 50.5597 27.6582 50.6801 27.7618 50.6801C27.8654 50.6801 27.9466 50.5485 27.9438 50.4001C27.941 50.2517 27.857 50.1201 27.7534 50.1201C27.6498 50.1201 27.5686 50.2461 27.5714 50.4001Z" fill="#E0E0E0"/>
<path d="M29.5933 50.4001C29.5933 50.5597 29.6801 50.6801 29.7837 50.6801C29.8873 50.6801 29.9685 50.5485 29.9657 50.4001C29.9629 50.2517 29.8761 50.1201 29.7725 50.1201C29.6689 50.1201 29.5905 50.2461 29.5933 50.4001Z" fill="#E0E0E0"/>
<path d="M24.5757 51.587C24.8897 51.449 25.1456 51.2055 25.299 50.8987C25.4524 50.5919 25.4937 50.2411 25.4157 49.907C25.4157 49.907 26.8689 49.3834 26.7009 48.1934C26.7009 48.1934 28.9409 48.717 29.0893 47.8434C29.0893 47.8434 31.1193 48.7534 31.2593 47.8434C31.3993 46.9334 30.3689 46.617 30.3689 46.617C30.3689 46.617 30.4809 44.5534 28.5153 45.2534C28.5153 45.2534 27.3701 44.0634 26.0261 45.427C26.0261 45.427 24.6709 44.8334 24.0465 46.687C24.0465 46.687 22.7557 47.317 23.1393 48.6834C23.1393 48.6834 22.2433 49.543 22.8957 50.3914C22.8873 50.3998 22.6969 52.8022 24.5757 51.587Z" fill="#E0E0E0"/>
<path d="M23.6934 51.839C23.9587 52.2488 24.3755 52.5367 24.8526 52.6398C25.4882 52.7686 25.7598 52.1918 25.5442 51.6178C25.351 51.1026 24.7882 50.4138 24.1722 50.5426C24.0381 50.5727 23.9137 50.6359 23.8104 50.7263C23.707 50.8168 23.6279 50.9317 23.5803 51.0606C23.5327 51.1895 23.5181 51.3282 23.5379 51.4642C23.5576 51.6001 23.6111 51.729 23.6934 51.839V51.839Z" fill="#F5F5F5"/>
<path d="M107.385 72.5337C107.385 72.5337 100.453 71.1645 100.604 72.5337C100.604 72.5337 100.007 71.1337 100.635 68.4205C101.262 65.7073 101.475 65.1557 101.475 65.1557L105.316 64.7861L108.262 66.5193L108.435 69.3893L108.175 71.1561L107.385 72.5337Z" fill="#E0E0E0"/>
<path d="M103.191 75.7906L107.595 75.141C110.18 74.861 111.717 75.967 112.61 77.5882C110.974 79.3833 108.769 80.5601 106.366 80.9206C103.964 81.2812 101.511 80.8034 99.4194 79.5678C99.9374 75.7318 103.191 75.7906 103.191 75.7906Z" fill="#E0E0E0"/>
<path d="M106.422 70.249C106.355 71.7078 106.461 74.3398 107.595 75.1406C107.595 75.1406 106.361 77.7166 104.062 77.515C102.505 77.3778 103.191 75.7902 103.191 75.7902C104.714 75.1826 104.499 74.015 104.062 72.9482L106.422 70.249Z" fill="#F5F5F5"/>
<path d="M105.462 71.3525L104.062 72.9541C104.171 73.1998 104.258 73.4546 104.322 73.7157C104.91 73.5393 105.641 72.7525 105.613 72.1141C105.61 71.8532 105.559 71.595 105.462 71.3525V71.3525Z" fill="#E6E6E6"/>
<path d="M107.498 67.5807C107.31 69.9663 107.282 70.9827 106.053 72.1867C104.205 73.9983 101.312 73.2479 100.783 70.8511C100.31 68.6951 100.696 65.1643 103.054 64.2403C103.573 64.0376 104.135 63.9708 104.687 64.0463C105.238 64.1218 105.762 64.3371 106.207 64.6718C106.652 65.0065 107.005 65.4494 107.23 65.9585C107.456 66.4676 107.548 67.0261 107.498 67.5807V67.5807Z" fill="#F5F5F5"/>
<path d="M102.359 68.4209C102.178 68.8616 101.937 69.2752 101.643 69.6501C101.74 69.7232 101.853 69.774 101.972 69.7992C102.092 69.8243 102.215 69.8231 102.334 69.7957L102.359 68.4209Z" fill="#E0E0E0"/>
<path d="M103.186 70.5375C103.077 70.5394 102.968 70.53 102.861 70.5095C102.853 70.5084 102.846 70.506 102.84 70.5021C102.833 70.4983 102.828 70.4933 102.823 70.4873C102.819 70.4813 102.816 70.4745 102.814 70.4672C102.812 70.46 102.812 70.4524 102.813 70.4451V70.4451C102.816 70.4306 102.824 70.4179 102.836 70.4095C102.848 70.4011 102.863 70.3978 102.878 70.4003C103.115 70.4462 103.361 70.4362 103.594 70.371C103.827 70.3059 104.042 70.1875 104.222 70.0251C104.227 70.0195 104.233 70.0151 104.239 70.0119C104.246 70.0087 104.253 70.0068 104.261 70.0064C104.268 70.006 104.275 70.0071 104.282 70.0096C104.289 70.0121 104.296 70.0159 104.301 70.0209C104.307 70.0258 104.311 70.0318 104.315 70.0385C104.318 70.0452 104.32 70.0525 104.32 70.0599C104.32 70.0673 104.319 70.0747 104.317 70.0817C104.314 70.0887 104.311 70.0951 104.306 70.1007C104.004 70.3874 103.602 70.5443 103.186 70.5375Z" fill="#E0E0E0"/>
<path d="M104.546 67.48C104.532 67.4862 104.517 67.4893 104.502 67.4893C104.486 67.4893 104.471 67.4862 104.457 67.48C104.339 67.3975 104.204 67.3442 104.062 67.3242C103.92 67.3042 103.775 67.3183 103.639 67.3652C103.624 67.3694 103.609 67.3705 103.593 67.3685C103.578 67.3666 103.563 67.3615 103.55 67.3536C103.537 67.3458 103.525 67.3353 103.516 67.3229C103.507 67.3104 103.5 67.2962 103.496 67.2812C103.49 67.2573 103.492 67.2319 103.501 67.2091C103.511 67.1863 103.528 67.1674 103.55 67.1552C103.718 67.0916 103.9 67.0695 104.078 67.091C104.257 67.1124 104.428 67.1767 104.577 67.2784C104.59 67.2864 104.601 67.2968 104.609 67.309C104.618 67.3213 104.624 67.3351 104.627 67.3497C104.63 67.3643 104.63 67.3794 104.628 67.3941C104.625 67.4088 104.619 67.4228 104.611 67.4352C104.596 67.458 104.573 67.4741 104.546 67.48V67.48Z" fill="#E0E0E0"/>
<path d="M101.36 67.48C101.347 67.479 101.334 67.4749 101.323 67.4681C101.312 67.4613 101.302 67.4519 101.295 67.4408C101.287 67.4305 101.281 67.4185 101.278 67.4058C101.274 67.393 101.274 67.3797 101.275 67.3667C101.277 67.3536 101.282 67.341 101.288 67.3297C101.295 67.3184 101.304 67.3086 101.315 67.3008V67.3008C101.443 67.2029 101.592 67.1368 101.75 67.1081C101.908 67.0793 102.071 67.0888 102.225 67.1356C102.25 67.1451 102.27 67.1639 102.281 67.188C102.292 67.2121 102.293 67.2395 102.284 67.2644C102.279 67.2769 102.273 67.2885 102.264 67.2983C102.255 67.3082 102.244 67.3162 102.232 67.322C102.22 67.3277 102.207 67.331 102.194 67.3317C102.181 67.3324 102.167 67.3305 102.155 67.326C102.033 67.2893 101.904 67.2826 101.778 67.3065C101.653 67.3304 101.535 67.3841 101.435 67.4632C101.425 67.4719 101.413 67.4779 101.4 67.4809C101.386 67.4838 101.373 67.4835 101.36 67.48V67.48Z" fill="#E0E0E0"/>
<path d="M94.3125 70.5933C94.3125 68.4917 94.9357 66.4372 96.1033 64.6898C97.2709 62.9424 98.9305 61.5804 100.872 60.7761C102.814 59.9719 104.95 59.7615 107.012 60.1715C109.073 60.5815 110.966 61.5935 112.452 63.0796C113.938 64.5656 114.95 66.459 115.36 68.5203C115.77 70.5815 115.56 72.718 114.756 74.6597C113.951 76.6013 112.589 78.2609 110.842 79.4285C109.095 80.5961 107.04 81.2193 104.938 81.2193C102.121 81.2156 99.4208 80.0949 97.4289 78.1029C95.4369 76.111 94.3162 73.4103 94.3125 70.5933V70.5933ZM94.6569 70.5933C94.6569 72.6268 95.2599 74.6146 96.3897 76.3054C97.5194 77.9962 99.1252 79.3141 101.004 80.0923C102.883 80.8704 104.95 81.074 106.944 80.6773C108.939 80.2806 110.771 79.3014 112.209 77.8635C113.647 76.4256 114.626 74.5936 115.023 72.5991C115.419 70.6047 115.216 68.5374 114.437 66.6587C113.659 64.78 112.341 63.1742 110.651 62.0445C108.96 60.9147 106.972 60.3117 104.938 60.3117C102.213 60.3147 99.5991 61.3988 97.6716 63.3264C95.7441 65.2539 94.6599 67.8673 94.6569 70.5933Z" fill="#E0E0E0"/>
<path d="M104.059 68.2864C104.059 68.446 103.972 68.5664 103.869 68.5664C103.765 68.5664 103.684 68.4376 103.687 68.2864C103.689 68.1351 103.773 68.0063 103.877 68.0063C103.981 68.0063 104.062 68.1295 104.059 68.2864Z" fill="#E0E0E0"/>
<path d="M102.038 68.2864C102.038 68.446 101.951 68.5664 101.847 68.5664C101.744 68.5664 101.665 68.4376 101.668 68.2864C101.671 68.1351 101.755 68.0063 101.858 68.0063C101.962 68.0063 102.043 68.1295 102.038 68.2864Z" fill="#E0E0E0"/>
<path d="M103.88 68.0009C103.815 68.0168 103.748 68.0192 103.682 68.0082C103.616 67.9971 103.553 67.9727 103.497 67.9365C103.497 67.9365 103.522 68.1549 103.877 68.1129L103.88 68.0009Z" fill="#E0E0E0"/>
<path d="M101.858 68.0009C101.793 68.0168 101.726 68.0192 101.66 68.0082C101.594 67.9971 101.531 67.9727 101.475 67.9365C101.475 67.9365 101.5 68.1549 101.855 68.1129L101.858 68.0009Z" fill="#E0E0E0"/>
<path d="M106.96 69.3725C106.96 69.3725 105.333 69.6525 105.473 67.4853C105.613 65.3181 104.283 66.5361 103.986 65.4525C103.986 65.4525 103.398 65.3825 103.578 66.0825C103.578 66.0825 100.696 66.8861 100.618 66.0461C100.54 65.2061 101.886 63.0557 104.476 63.7025C104.476 63.7025 107.556 63.2293 108.377 66.1525C109.197 69.0757 108.57 70.8957 109.656 71.7693C110.743 72.6429 106.89 72.7325 106.89 72.7325L106.96 69.3725Z" fill="#E0E0E0"/>
<path d="M107.937 69.7201C107.672 70.1284 107.255 70.4144 106.778 70.5153C106.142 70.6413 105.874 70.0673 106.086 69.4933C106.28 68.9781 106.842 68.2893 107.458 68.4181C108.074 68.5469 108.259 69.2189 107.937 69.7201Z" fill="#F5F5F5"/>
<path d="M104.768 37.5619C103.635 37.5619 102.528 37.226 101.586 36.5969C100.645 35.9677 99.9108 35.0734 99.4774 34.0271C99.044 32.9808 98.9306 31.8295 99.1515 30.7188C99.3725 29.608 99.9178 28.5878 100.719 27.787C101.519 26.9862 102.54 26.4408 103.65 26.2199C104.761 25.999 105.912 26.1123 106.959 26.5457C108.005 26.9791 108.899 27.713 109.528 28.6547C110.158 29.5963 110.493 30.7034 110.493 31.8359C110.492 33.354 109.888 34.8096 108.815 35.8831C107.741 36.9566 106.286 37.5604 104.768 37.5619V37.5619ZM104.768 26.5299C103.715 26.5271 102.685 26.8368 101.808 27.4196C100.931 28.0025 100.247 28.8324 99.8425 29.8043C99.4377 30.7761 99.3303 31.8462 99.534 32.8791C99.7377 33.912 100.243 34.8613 100.987 35.6067C101.73 36.3521 102.678 36.8602 103.71 37.0666C104.743 37.273 105.813 37.1685 106.786 36.7662C107.759 36.364 108.591 35.6821 109.176 34.807C109.761 33.9318 110.073 32.9027 110.073 31.8499C110.074 30.4413 109.515 29.0903 108.52 28.093C107.526 27.0957 106.176 26.5336 104.768 26.5299V26.5299Z" fill="#E6E6E6"/>
<path d="M104.767 37.3516C105.753 37.3504 106.72 37.0845 107.567 36.5816C107.528 35.9628 107.481 35.2348 107.458 34.8764C107.431 34.4891 107.257 34.1267 106.973 33.8623C106.689 33.5978 106.315 33.4509 105.927 33.4512H103.6C103.212 33.4509 102.838 33.5979 102.554 33.8625C102.271 34.127 102.098 34.4894 102.071 34.8764C102.046 35.2348 101.998 35.9628 101.959 36.5816C102.809 37.0856 103.779 37.3515 104.767 37.3516Z" fill="#E6E6E6"/>
<path d="M106.168 30.7213C106.168 31.4969 105.54 32.4013 104.768 32.4013C103.995 32.4013 103.368 31.4969 103.368 30.7213C103.368 30.35 103.515 29.9939 103.778 29.7313C104.04 29.4688 104.396 29.3213 104.768 29.3213C105.139 29.3213 105.495 29.4688 105.758 29.7313C106.02 29.9939 106.168 30.35 106.168 30.7213V30.7213Z" fill="#E6E6E6"/>
<path d="M82.2417 89.4403H103.242V91.2799C103.242 91.4443 103.209 91.607 103.146 91.7589C103.084 91.9107 102.991 92.0487 102.875 92.1649C102.759 92.2811 102.621 92.3733 102.469 92.4362C102.317 92.4991 102.154 92.5315 101.99 92.5315H83.4933C83.3289 92.5315 83.1662 92.4991 83.0143 92.4362C82.8625 92.3733 82.7245 92.2811 82.6083 92.1649C82.4921 92.0487 82.3999 91.9107 82.337 91.7589C82.2741 91.607 82.2417 91.4443 82.2417 91.2799V89.4375V89.4403Z" fill="#6633F2"/>
<path opacity="0.3" d="M82.2417 89.4403H103.242V91.2799C103.242 91.4443 103.209 91.607 103.146 91.7589C103.084 91.9107 102.991 92.0487 102.875 92.1649C102.759 92.2811 102.621 92.3733 102.469 92.4362C102.317 92.4991 102.154 92.5315 101.99 92.5315H83.4933C83.3289 92.5315 83.1662 92.4991 83.0143 92.4362C82.8625 92.3733 82.7245 92.2811 82.6083 92.1649C82.4921 92.0487 82.3999 91.9107 82.337 91.7589C82.2741 91.607 82.2417 91.4443 82.2417 91.2799V89.4375V89.4403Z" fill="white"/>
<path d="M100.31 92.2822H85.1733C85.0372 92.2819 84.9061 92.3331 84.8063 92.4256C84.7066 92.5181 84.6456 92.6449 84.6357 92.7806L82.9949 114.853C82.9907 114.908 82.9974 114.964 83.0147 115.016C83.032 115.069 83.0596 115.117 83.0957 115.159C83.1319 115.201 83.176 115.236 83.2255 115.26C83.275 115.285 83.3288 115.3 83.3841 115.304C83.4953 115.312 83.6052 115.275 83.6896 115.202C83.7741 115.129 83.8263 115.026 83.8349 114.915L85.4337 93.3854C85.4379 93.3141 85.4693 93.2471 85.5214 93.1982C85.5734 93.1493 85.6422 93.1221 85.7137 93.1222H99.764C99.8355 93.1221 99.9043 93.1493 99.9563 93.1982C100.008 93.2471 100.04 93.3141 100.044 93.3854L101.64 114.915C101.649 115.026 101.701 115.129 101.785 115.202C101.87 115.275 101.98 115.312 102.091 115.304V115.304C102.146 115.3 102.2 115.285 102.249 115.26C102.299 115.236 102.343 115.201 102.379 115.159C102.415 115.117 102.443 115.069 102.46 115.016C102.477 114.964 102.484 114.908 102.48 114.853L100.839 92.7806C100.829 92.6464 100.77 92.5207 100.672 92.4284C100.574 92.3362 100.445 92.284 100.31 92.2822Z" fill="#263238"/>
<path d="M92.7418 115.304C92.6304 115.304 92.5236 115.259 92.4448 115.181C92.366 115.102 92.3218 114.995 92.3218 114.884V92.7637H93.1618V114.884C93.1618 114.995 93.1175 115.102 93.0388 115.181C92.96 115.259 92.8532 115.304 92.7418 115.304V115.304Z" fill="#263238"/>
<path d="M88.6676 92.7639C88.7789 92.7639 88.8858 92.7196 88.9645 92.6408C89.0433 92.5621 89.0876 92.4552 89.0876 92.3439V90.2887C89.0876 90.1773 89.0433 90.0704 88.9645 89.9917C88.8858 89.9129 88.7789 89.8687 88.6676 89.8687C88.5562 89.8687 88.4493 89.9129 88.3706 89.9917C88.2918 90.0704 88.2476 90.1773 88.2476 90.2887V92.3439C88.2476 92.4552 88.2918 92.5621 88.3706 92.6408C88.4493 92.7196 88.5562 92.7639 88.6676 92.7639Z" fill="#263238"/>
<path d="M96.8155 92.7639C96.9269 92.7639 97.0337 92.7196 97.1125 92.6408C97.1913 92.5621 97.2355 92.4552 97.2355 92.3439V90.2887C97.2355 90.1773 97.1913 90.0704 97.1125 89.9917C97.0337 89.9129 96.9269 89.8687 96.8155 89.8687C96.7041 89.8687 96.5973 89.9129 96.5185 89.9917C96.4398 90.0704 96.3955 90.1773 96.3955 90.2887V92.3439C96.3955 92.4552 96.4398 92.5621 96.5185 92.6408C96.5973 92.7196 96.7041 92.7639 96.8155 92.7639Z" fill="#263238"/>
<path d="M93.8731 83.6583H93.8143V83.4399C93.8144 83.2938 93.7573 83.1534 93.6553 83.0488C93.5533 82.9441 93.4144 82.8835 93.2683 82.8799H90.1127C89.9642 82.8799 89.8218 82.9389 89.7168 83.0439C89.6117 83.1489 89.5527 83.2914 89.5527 83.4399V86.8307C89.5527 87.3416 89.7557 87.8316 90.117 88.1928C90.4782 88.5541 90.9682 88.7571 91.4791 88.7571H91.8767C92.3166 88.7574 92.7433 88.6069 93.0857 88.3308C93.4281 88.0546 93.6655 87.6694 93.7583 87.2395H93.8619C95.0323 87.2395 95.7519 86.2063 95.7519 85.2151C95.7519 84.2239 95.0435 83.6583 93.8731 83.6583ZM93.8311 86.6235H93.8143V84.2799H93.8311C94.5955 84.2799 95.0659 84.6551 95.0659 85.2991C95.0723 85.4672 95.0454 85.635 94.9867 85.7927C94.928 85.9504 94.8387 86.0949 94.7239 86.218C94.6092 86.3411 94.4712 86.4403 94.318 86.5099C94.1648 86.5795 93.9993 86.6181 93.8311 86.6235V86.6235Z" fill="#6633F2"/>
<path opacity="0.7" d="M93.8731 83.6583H93.8143V83.4399C93.8144 83.2938 93.7573 83.1534 93.6553 83.0488C93.5533 82.9441 93.4144 82.8835 93.2683 82.8799H90.1127C89.9642 82.8799 89.8218 82.9389 89.7168 83.0439C89.6117 83.1489 89.5527 83.2914 89.5527 83.4399V86.8307C89.5527 87.3416 89.7557 87.8316 90.117 88.1928C90.4782 88.5541 90.9682 88.7571 91.4791 88.7571H91.8767C92.3166 88.7574 92.7433 88.6069 93.0857 88.3308C93.4281 88.0546 93.6655 87.6694 93.7583 87.2395H93.8619C95.0323 87.2395 95.7519 86.2063 95.7519 85.2151C95.7519 84.2239 95.0435 83.6583 93.8731 83.6583ZM93.8311 86.6235H93.8143V84.2799H93.8311C94.5955 84.2799 95.0659 84.6551 95.0659 85.2991C95.0723 85.4672 95.0454 85.635 94.9867 85.7927C94.928 85.9504 94.8387 86.0949 94.7239 86.218C94.6092 86.3411 94.4712 86.4403 94.318 86.5099C94.1648 86.5795 93.9993 86.6181 93.8311 86.6235V86.6235Z" fill="white"/>
<path opacity="0.1" d="M93.8311 86.6231H93.8143V86.8359C93.8138 86.9734 93.7988 87.1104 93.7695 87.2447H93.8731C94.0339 87.2439 94.1939 87.2223 94.3491 87.1803V86.5195C94.1869 86.5939 94.0095 86.6293 93.8311 86.6231V86.6231Z" fill="black"/>
<path opacity="0.1" d="M89.6812 87.4858C89.8145 87.8588 90.0599 88.1813 90.3837 88.4094C90.7075 88.6375 91.0939 88.7599 91.49 88.7598H91.8876C92.2838 88.7592 92.6703 88.6366 92.9944 88.4087C93.3185 88.1808 93.5646 87.8585 93.6992 87.4858H89.6812Z" fill="black"/>
<path opacity="0.1" d="M93.8728 83.6582H93.814V84.2799H93.8308C94.006 84.2768 94.1806 84.3004 94.3488 84.3499V83.6918C94.1912 83.6688 94.0321 83.6575 93.8728 83.6582V83.6582Z" fill="black"/>
<path d="M95.0183 87.8135H88.2675C88.2093 87.8198 88.1545 87.8442 88.1108 87.8832C88.0672 87.9223 88.0369 87.9741 88.0242 88.0313C88.0115 88.0885 88.0171 88.1482 88.0402 88.202C88.0632 88.2559 88.1026 88.3012 88.1527 88.3315L89.6367 89.0175V89.4403H93.6491V89.0175L95.1331 88.3315C95.1833 88.3012 95.2226 88.2559 95.2457 88.202C95.2687 88.1482 95.2743 88.0885 95.2616 88.0313C95.249 87.9741 95.2187 87.9223 95.175 87.8832C95.1314 87.8442 95.0766 87.8198 95.0183 87.8135Z" fill="#6633F2"/>
<path opacity="0.6" d="M95.0183 87.8135H88.2675C88.2093 87.8198 88.1545 87.8442 88.1108 87.8832C88.0672 87.9223 88.0369 87.9741 88.0242 88.0313C88.0115 88.0885 88.0171 88.1482 88.0402 88.202C88.0632 88.2559 88.1026 88.3012 88.1527 88.3315L89.6367 89.0175V89.4403H93.6491V89.0175L95.1331 88.3315C95.1833 88.3012 95.2226 88.2559 95.2457 88.202C95.2687 88.1482 95.2743 88.0885 95.2616 88.0313C95.249 87.9741 95.2187 87.9223 95.175 87.8832C95.1314 87.8442 95.0766 87.8198 95.0183 87.8135Z" fill="white"/>
<path d="M78.921 38.5812C77.9168 38.5804 76.9303 38.3168 76.0594 37.8168L73.4218 38.3264L73.9314 35.686C73.3996 34.7559 73.1386 33.6955 73.1777 32.6248C73.2167 31.5541 73.5544 30.5157 74.1526 29.6268C74.7508 28.7379 75.5856 28.0339 76.5627 27.5944C77.5399 27.155 78.6204 26.9975 79.6824 27.1397C80.7443 27.282 81.7453 27.7184 82.5723 28.3996C83.3993 29.0808 84.0194 29.9796 84.3625 30.9946C84.7056 32.0096 84.758 33.1003 84.5139 34.1436C84.2698 35.1868 83.7388 36.141 82.981 36.8984V36.8984C82.448 37.432 81.8152 37.8552 81.1185 38.144C80.4219 38.4327 79.6751 38.5813 78.921 38.5812V38.5812ZM76.1378 37.3744L76.205 37.4164C77.2219 38.0201 78.411 38.2677 79.5843 38.1201C80.7576 37.9725 81.8484 37.4382 82.6842 36.6016V36.6016C83.3864 35.8974 83.8771 35.0104 84.1007 34.0414C84.3243 33.0724 84.2718 32.0601 83.9492 31.1193C83.6265 30.1786 83.0467 29.3472 82.2754 28.7194C81.5041 28.0916 80.5723 27.6925 79.5857 27.5675C78.5991 27.4425 77.5972 27.5965 76.6937 28.0121C75.7902 28.4277 75.0213 29.0882 74.4742 29.9187C73.9271 30.7492 73.6238 31.7164 73.5986 32.7106C73.5735 33.7048 73.8274 34.6861 74.3318 35.5432L74.3738 35.6104L73.951 37.8L76.1378 37.3744Z" fill="#6633F2"/>
<g opacity="0.5">
<path opacity="0.5" d="M78.921 38.5812C77.9168 38.5804 76.9303 38.3168 76.0594 37.8168L73.4218 38.3264L73.9314 35.686C73.3996 34.7559 73.1386 33.6955 73.1777 32.6248C73.2167 31.5541 73.5544 30.5157 74.1526 29.6268C74.7508 28.7379 75.5856 28.0339 76.5627 27.5944C77.5399 27.155 78.6204 26.9975 79.6824 27.1397C80.7443 27.282 81.7453 27.7184 82.5723 28.3996C83.3993 29.0808 84.0194 29.9796 84.3625 30.9946C84.7056 32.0096 84.758 33.1003 84.5139 34.1436C84.2698 35.1868 83.7388 36.141 82.981 36.8984V36.8984C82.448 37.432 81.8152 37.8552 81.1185 38.144C80.4219 38.4327 79.6751 38.5813 78.921 38.5812V38.5812ZM76.1378 37.3744L76.205 37.4164C77.2219 38.0201 78.411 38.2677 79.5843 38.1201C80.7576 37.9725 81.8484 37.4382 82.6842 36.6016V36.6016C83.3864 35.8974 83.8771 35.0104 84.1007 34.0414C84.3243 33.0724 84.2718 32.0601 83.9492 31.1193C83.6265 30.1786 83.0467 29.3472 82.2754 28.7194C81.5041 28.0916 80.5723 27.6925 79.5857 27.5675C78.5991 27.4425 77.5972 27.5965 76.6937 28.0121C75.7902 28.4277 75.0213 29.0882 74.4742 29.9187C73.9271 30.7492 73.6238 31.7164 73.5986 32.7106C73.5735 33.7048 73.8274 34.6861 74.3318 35.5432L74.3738 35.6104L73.951 37.8L76.1378 37.3744Z" fill="white"/>
</g>
<path d="M78.5739 35.7897L75.4715 32.3905C75.3627 32.2592 75.3101 32.0901 75.3253 31.9202C75.3405 31.7503 75.4223 31.5933 75.5527 31.4833V31.4833C75.612 31.4234 75.6827 31.3758 75.7606 31.3433C75.8384 31.3109 75.9219 31.2941 76.0063 31.2941C76.0906 31.2941 76.1742 31.3109 76.252 31.3433C76.3299 31.3758 76.4005 31.4234 76.4599 31.4833L78.7335 33.9753L84.0003 29.1341C84.1209 29.0144 84.2839 28.9473 84.4539 28.9473C84.6238 28.9473 84.7868 29.0144 84.9075 29.1341V29.1341C85.0163 29.2655 85.0688 29.4345 85.0536 29.6044C85.0384 29.7743 84.9567 29.9314 84.8263 30.0413L78.5739 35.7897Z" fill="#6633F2"/>
<path d="M99.3548 56.1192C103.008 52.466 103.008 46.5428 99.3548 42.8896C95.7015 39.2363 89.7784 39.2363 86.1251 42.8896C82.4718 46.5428 82.4718 52.466 86.1251 56.1192C89.7784 59.7725 95.7015 59.7725 99.3548 56.1192Z" fill="#6633F2"/>
<path opacity="0.5" d="M99.3548 56.1192C103.008 52.466 103.008 46.5428 99.3548 42.8896C95.7015 39.2363 89.7784 39.2363 86.1251 42.8896C82.4718 46.5428 82.4718 52.466 86.1251 56.1192C89.7784 59.7725 95.7015 59.7725 99.3548 56.1192Z" fill="white"/>
<path d="M82.1128 49.5065C82.11 47.4009 82.7321 45.3419 83.9001 43.59C85.0682 41.8381 86.7298 40.4722 88.6746 39.6651C90.6194 38.8581 92.7599 38.6462 94.8251 39.0563C96.8904 39.4664 98.7875 40.4801 100.276 41.9689C101.765 43.4578 102.779 45.3549 103.189 47.4202C103.599 49.4855 103.387 51.626 102.58 53.5708C101.773 55.5155 100.407 57.1771 98.6553 58.3452C96.9035 59.5133 94.8444 60.1353 92.7388 60.1325C89.9218 60.1288 87.2211 59.0081 85.2292 57.0161C83.2372 55.0242 82.1165 52.3236 82.1128 49.5065ZM82.4572 49.5065C82.4578 51.5399 83.0612 53.5275 84.1913 55.2179C85.3214 56.9083 86.9274 58.2257 88.8061 59.0035C90.6849 59.7812 92.7521 59.9845 94.7464 59.5874C96.7406 59.1904 98.5724 58.2109 100.01 56.7729C101.448 55.3349 102.427 53.5029 102.823 51.5085C103.22 49.5142 103.016 47.447 102.238 45.5685C101.459 43.6899 100.141 42.0843 98.4507 40.9547C96.7599 39.8251 94.7722 39.2221 92.7388 39.2221C90.0124 39.2251 87.3985 40.3097 85.4709 42.2378C83.5433 44.1659 82.4594 46.7801 82.4572 49.5065V49.5065Z" fill="#6633F2"/>
<g opacity="0.5">
<path opacity="0.5" d="M82.1128 49.5065C82.11 47.4009 82.7321 45.3419 83.9001 43.59C85.0682 41.8381 86.7298 40.4722 88.6746 39.6651C90.6194 38.8581 92.7599 38.6462 94.8251 39.0563C96.8904 39.4664 98.7875 40.4801 100.276 41.9689C101.765 43.4578 102.779 45.3549 103.189 47.4202C103.599 49.4855 103.387 51.626 102.58 53.5708C101.773 55.5155 100.407 57.1771 98.6553 58.3452C96.9035 59.5133 94.8444 60.1353 92.7388 60.1325C89.9218 60.1288 87.2211 59.0081 85.2292 57.0161C83.2372 55.0242 82.1165 52.3236 82.1128 49.5065ZM82.4572 49.5065C82.4578 51.5399 83.0612 53.5275 84.1913 55.2179C85.3214 56.9083 86.9274 58.2257 88.8061 59.0035C90.6849 59.7812 92.7521 59.9845 94.7464 59.5874C96.7406 59.1904 98.5724 58.2109 100.01 56.7729C101.448 55.3349 102.427 53.5029 102.823 51.5085C103.22 49.5142 103.016 47.447 102.238 45.5685C101.459 43.6899 100.141 42.0843 98.4507 40.9547C96.7599 39.8251 94.7722 39.2221 92.7388 39.2221C90.0124 39.2251 87.3985 40.3097 85.4709 42.2378C83.5433 44.1659 82.4594 46.7801 82.4572 49.5065V49.5065Z" fill="white"/>
</g>
<path d="M86.9987 55.7003C87.7771 54.7847 91.1539 55.0899 91.1539 55.0899L94.4551 54.7735C97.1627 54.2135 98.5823 54.9611 99.4475 55.9915L99.4615 56.0083C97.7972 57.7375 95.5314 58.7602 93.1335 58.8645C90.7357 58.9687 88.3897 58.1465 86.5815 56.5683C86.6647 56.2553 86.8063 55.9608 86.9987 55.7003V55.7003Z" fill="#263238"/>
<path d="M89.4461 43.6323C89.4461 43.6323 87.4861 43.8115 88.6789 46.4939L90.0285 45.7155L90.2469 44.0887L89.4461 43.6323Z" fill="#263238"/>
<path opacity="0.6" d="M89.4461 43.6323C89.4461 43.6323 87.4861 43.8115 88.6789 46.4939L90.0285 45.7155L90.2469 44.0887L89.4461 43.6323Z" fill="black"/>
<path d="M94.8836 54.7957C94.5644 55.4397 93.6824 56.5625 91.3472 56.5625C89.9332 56.5625 89.8324 55.9801 90.2524 55.3221C91.6244 54.6557 91.6328 53.3061 91.266 52.1385L94.3208 49.2041C94.1192 50.7077 93.9792 53.3061 94.8024 54.6193C94.8362 54.6748 94.8635 54.734 94.8836 54.7957V54.7957Z" fill="#FFC3BD"/>
<path opacity="0.2" d="M93.0774 50.3999L91.2798 52.1359C91.3684 52.4372 91.4321 52.7453 91.4702 53.0571C92.1814 52.9115 93.069 52.2507 93.3042 51.4471C93.4442 50.9599 93.265 50.4531 93.0774 50.3999Z" fill="black"/>
<path d="M94.8077 46.732C94.6481 49.0196 94.3625 50.372 93.1949 51.5256C91.4421 53.2756 88.9305 52.1948 88.4097 49.9128C87.9393 47.8408 88.2865 44.4584 90.5321 43.5708C90.913 43.4182 91.3203 43.3421 91.7306 43.3469C92.141 43.3517 92.5464 43.4373 92.9236 43.5987C93.3009 43.7602 93.6427 43.9944 93.9294 44.2879C94.2162 44.5815 94.4423 44.9286 94.5949 45.3096C94.7771 45.7603 94.85 46.2477 94.8077 46.732Z" fill="#FFC3BD"/>
<path d="M91.2238 47.3588C91.2238 47.5464 91.123 47.6948 90.9998 47.6948C90.8766 47.6948 90.7814 47.5408 90.7842 47.3532C90.787 47.1656 90.885 47.02 91.0082 47.02C91.1314 47.02 91.2266 47.174 91.2238 47.3588Z" fill="#263238"/>
<path d="M89.1184 47.3396C89.1184 47.5245 89.0176 47.6728 88.8944 47.6728C88.7712 47.6728 88.676 47.5188 88.6788 47.334C88.6816 47.1492 88.7796 46.998 88.9028 46.998C89.026 46.998 89.1212 47.152 89.1184 47.3396Z" fill="#263238"/>
<path d="M89.8994 47.418C89.6696 47.9838 89.3645 48.5159 88.9922 49C89.1193 49.0915 89.2646 49.1546 89.4182 49.1851C89.5718 49.2155 89.7302 49.2125 89.8826 49.1764L89.8994 47.418Z" fill="#ED847E"/>
<path d="M91.9547 46.4939C91.9732 46.4968 91.9921 46.4968 92.0107 46.4939C92.0325 46.4754 92.0469 46.4495 92.051 46.4212C92.0551 46.3928 92.0487 46.3639 92.0331 46.3399C91.9323 46.1981 91.7993 46.0822 91.645 46.0019C91.4906 45.9216 91.3194 45.8791 91.1455 45.8779C91.1192 45.8835 91.0957 45.8983 91.0795 45.9198C91.0632 45.9412 91.0552 45.9677 91.0569 45.9946C91.0586 46.0214 91.0699 46.0468 91.0887 46.0659C91.1075 46.0851 91.1327 46.0969 91.1595 46.0991V46.0991C91.2965 46.1019 91.4309 46.1368 91.552 46.201C91.6731 46.2652 91.7774 46.3569 91.8567 46.4687C91.8697 46.4805 91.8855 46.489 91.9026 46.4934C91.9196 46.4977 91.9375 46.4979 91.9547 46.4939V46.4939Z" fill="#263238"/>
<path d="M88.3092 46.48C88.3272 46.4789 88.3446 46.4728 88.3594 46.4624C88.3743 46.4521 88.3859 46.4378 88.3931 46.4212C88.4505 46.2974 88.5361 46.1888 88.6431 46.1042C88.7501 46.0196 88.8755 45.9613 89.0092 45.934C89.0235 45.9323 89.0374 45.9279 89.05 45.9208C89.0626 45.9138 89.0737 45.9044 89.0827 45.8931C89.0916 45.8818 89.0983 45.8688 89.1023 45.8549C89.1062 45.841 89.1074 45.8265 89.1057 45.8122C89.1041 45.7978 89.0996 45.784 89.0926 45.7713C89.0856 45.7587 89.0762 45.7476 89.0649 45.7386C89.0535 45.7297 89.0406 45.723 89.0267 45.7191C89.0128 45.7151 88.9983 45.7139 88.9839 45.7156C88.8128 45.7468 88.6516 45.8185 88.5138 45.9247C88.3759 46.0309 88.2654 46.1685 88.1915 46.326C88.1848 46.3382 88.1806 46.3517 88.1792 46.3656C88.1778 46.3795 88.1793 46.3936 88.1835 46.4069C88.1876 46.4203 88.1945 46.4326 88.2036 46.4433C88.2127 46.4539 88.2238 46.4626 88.2363 46.4688V46.4688C88.2583 46.4816 88.2843 46.4856 88.3092 46.48V46.48Z" fill="#263238"/>
<path d="M94.329 48.5856C94.329 48.5856 93.2846 48.748 93.349 48.3056C93.4134 47.8632 93.9566 46.3596 93.839 45.71C93.783 45.4076 93.461 44.8056 93.1866 44.6684C92.1842 44.1644 84.5066 45.3796 90.7842 40.8828V41.468C90.7842 41.468 92.0386 40.6028 92.3074 40.908C92.5062 41.132 91.7642 41.9748 91.7642 41.9748C91.7642 41.9748 93.4078 41.0704 93.6542 41.4932C93.8138 41.7732 92.7806 42.406 92.7806 42.406C92.7806 42.406 100.173 44.4948 94.329 48.5856Z" fill="#263238"/>
<path d="M89.8801 49.3356C89.8801 49.3356 92.1201 48.9324 92.0333 49.7332C91.9465 50.534 91.5741 52.7068 90.7649 52.7068C90.4261 52.7068 90.6277 52.3932 90.6277 52.3932C90.4148 52.5692 90.1547 52.6783 89.8801 52.7068C89.5497 52.7068 89.8465 52.2308 89.8465 52.2308C89.8465 52.2308 89.4433 52.606 89.1073 52.5108C88.9673 52.4744 89.1437 52.2476 89.0401 51.9312C88.7937 51.1808 88.3709 49.9264 88.4801 49.54C88.6593 48.9996 89.8801 49.3356 89.8801 49.3356Z" fill="#263238"/>
<path opacity="0.5" d="M89.8801 49.3356C89.8801 49.3356 92.1201 48.9324 92.0333 49.7332C91.9465 50.534 91.5741 52.7068 90.7649 52.7068C90.4261 52.7068 90.6277 52.3932 90.6277 52.3932C90.4148 52.5692 90.1547 52.6783 89.8801 52.7068C89.5497 52.7068 89.8465 52.2308 89.8465 52.2308C89.8465 52.2308 89.4433 52.606 89.1073 52.5108C88.9673 52.4744 89.1437 52.2476 89.0401 51.9312C88.7937 51.1808 88.3709 49.9264 88.4801 49.54C88.6593 48.9996 89.8801 49.3356 89.8801 49.3356Z" fill="white"/>
<path d="M89.1043 49.7445C89.8696 49.7162 90.6358 49.7537 91.3947 49.8565C91.1427 50.2849 90.7283 50.6125 89.8743 50.5173C89.0203 50.4221 89.1043 49.7445 89.1043 49.7445Z" fill="white"/>
<path opacity="0.5" d="M96.4627 46.2362C96.2681 46.7315 95.9681 47.1786 95.5835 47.5466C94.9115 47.6234 94.2316 47.5068 93.6235 47.2106C93.7214 46.859 93.7925 46.5005 93.8363 46.1382C95.3035 46.407 96.0791 46.337 96.4627 46.2362Z" fill="white"/>
<path d="M95.9053 48.8766C95.5921 49.36 95.1013 49.701 94.5389 49.8258C93.7913 49.9798 93.4665 49.2994 93.7185 48.619C93.9425 48.0114 94.6033 47.191 95.3313 47.3394C96.0594 47.4878 96.2834 48.2774 95.9053 48.8766Z" fill="#FFC3BD"/>
<path d="M101.304 41.793L102.032 42.4958L103.032 42.353L103.208 43.3498L104.101 43.823L103.656 44.7302L104.101 45.6402L103.208 46.1134L103.032 47.1102L102.032 46.9674L101.304 47.6702L100.579 46.9674L99.5766 47.1102L99.403 46.1134L98.5098 45.6402L98.955 44.7302L98.5098 43.823L99.403 43.3498L99.5766 42.353L100.579 42.4958L101.304 41.793Z" fill="#6633F2"/>
<g opacity="0.9">
<path opacity="0.9" d="M100.763 45.8808L99.7218 44.7384C99.6855 44.6941 99.668 44.6372 99.6733 44.5801C99.6785 44.523 99.706 44.4702 99.7498 44.4332V44.4332C99.7696 44.4133 99.7931 44.3974 99.8191 44.3866C99.845 44.3757 99.8729 44.3702 99.901 44.3702C99.9291 44.3702 99.957 44.3757 99.9829 44.3866C100.009 44.3974 100.032 44.4133 100.052 44.4332L100.817 45.2732L102.583 43.6492C102.603 43.6292 102.627 43.6133 102.653 43.6024C102.68 43.5915 102.708 43.5859 102.736 43.5859C102.764 43.5859 102.792 43.5915 102.819 43.6024C102.845 43.6133 102.869 43.6292 102.889 43.6492V43.6492C102.925 43.6936 102.942 43.7505 102.937 43.8076C102.932 43.8647 102.904 43.9174 102.861 43.9544L100.763 45.8808Z" fill="white"/>
</g>
<path d="M55.9431 42.4378C57.1299 37.4094 54.0157 32.371 48.9874 31.1842C43.959 29.9974 38.9207 33.1116 37.7339 38.14C36.5471 43.1683 39.6612 48.2067 44.6896 49.3935C49.718 50.5803 54.7563 47.4661 55.9431 42.4378Z" fill="#6633F2"/>
<path opacity="0.5" d="M55.9431 42.4378C57.1299 37.4094 54.0157 32.371 48.9874 31.1842C43.959 29.9974 38.9207 33.1116 37.7339 38.14C36.5471 43.1683 39.6612 48.2067 44.6896 49.3935C49.718 50.5803 54.7563 47.4661 55.9431 42.4378Z" fill="white"/>
<path d="M46.8415 50.918C44.7405 50.9152 42.6874 50.2897 40.9418 49.1204C39.1962 47.9511 37.8364 46.2906 37.0343 44.3487C36.2322 42.4068 36.0238 40.2707 36.4354 38.2104C36.847 36.1501 37.8601 34.258 39.3467 32.7734C40.8334 31.2887 42.7268 30.278 44.7876 29.8692C46.8485 29.4603 48.9843 29.6715 50.9251 30.4762C52.866 31.2809 54.5247 32.6428 55.6917 34.39C56.8586 36.1371 57.4815 38.191 57.4815 40.292C57.4778 43.1115 56.3552 45.8142 54.3602 47.8066C52.3652 49.7989 49.661 50.918 46.8415 50.918V50.918ZM46.8415 30.0104C44.8071 30.0093 42.818 30.6116 41.126 31.7411C39.4339 32.8706 38.1149 34.4766 37.3357 36.3559C36.5565 38.2352 36.3522 40.3034 36.7486 42.2988C37.1451 44.2942 38.1244 46.1272 39.5627 47.566C41.0011 49.0047 42.8339 49.9846 44.8292 50.3815C46.8245 50.7785 48.8927 50.5748 50.7722 49.7961C52.6517 49.0174 54.2581 47.6988 55.388 46.0071C56.518 44.3153 57.1209 42.3264 57.1203 40.292C57.1173 37.5666 56.0335 34.9535 54.1066 33.0261C52.1797 31.0986 49.567 30.0141 46.8415 30.0104V30.0104Z" fill="#6633F2"/>
<g opacity="0.5">
<path opacity="0.5" d="M46.8415 50.918C44.7405 50.9152 42.6874 50.2897 40.9418 49.1204C39.1962 47.9511 37.8364 46.2906 37.0343 44.3487C36.2322 42.4068 36.0238 40.2707 36.4354 38.2104C36.847 36.1501 37.8601 34.258 39.3467 32.7734C40.8334 31.2887 42.7268 30.278 44.7876 29.8692C46.8485 29.4603 48.9843 29.6715 50.9251 30.4762C52.866 31.2809 54.5247 32.6428 55.6917 34.39C56.8586 36.1371 57.4815 38.191 57.4815 40.292C57.4778 43.1115 56.3552 45.8142 54.3602 47.8066C52.3652 49.7989 49.661 50.918 46.8415 50.918V50.918ZM46.8415 30.0104C44.8071 30.0093 42.818 30.6116 41.126 31.7411C39.4339 32.8706 38.1149 34.4766 37.3357 36.3559C36.5565 38.2352 36.3522 40.3034 36.7486 42.2988C37.1451 44.2942 38.1244 46.1272 39.5627 47.566C41.0011 49.0047 42.8339 49.9846 44.8292 50.3815C46.8245 50.7785 48.8927 50.5748 50.7722 49.7961C52.6517 49.0174 54.2581 47.6988 55.388 46.0071C56.518 44.3153 57.1209 42.3264 57.1203 40.292C57.1173 37.5666 56.0335 34.9535 54.1066 33.0261C52.1797 31.0986 49.567 30.0141 46.8415 30.0104V30.0104Z" fill="white"/>
</g>
<path d="M46.8413 49.6467C48.7684 49.6492 50.6488 49.0534 52.2229 47.9415C51.8197 46.7515 51.3157 45.3179 50.9993 44.6403C50.2769 43.0779 49.4453 42.5795 43.2013 42.5291C40.2837 42.5039 39.3569 44.0383 39.1973 45.6819C40.0597 46.9077 41.2045 47.9079 42.535 48.598C43.8654 49.2881 45.3425 49.6478 46.8413 49.6467V49.6467Z" fill="#6633F2"/>
<path opacity="0.8" d="M46.8413 49.6467C48.7684 49.6492 50.6488 49.0534 52.2229 47.9415C51.8197 46.7515 51.3157 45.3179 50.9993 44.6403C50.2769 43.0779 49.4453 42.5795 43.2013 42.5291C40.2837 42.5039 39.3569 44.0383 39.1973 45.6819C40.0597 46.9077 41.2045 47.9079 42.535 48.598C43.8654 49.2881 45.3425 49.6478 46.8413 49.6467V49.6467Z" fill="white"/>
<path d="M50.0024 33.7374C50.0024 33.7374 51.6041 33.5218 51.0272 32.6006C51.0134 32.5783 50.9929 32.5609 50.9687 32.5507C50.9444 32.5406 50.9176 32.5383 50.892 32.5442C50.8664 32.5501 50.8433 32.5638 50.8259 32.5834C50.8084 32.6031 50.7976 32.6277 50.7948 32.6538C50.7674 32.8875 50.6801 33.11 50.5412 33.2999C50.4024 33.4898 50.2168 33.6405 50.0024 33.7374V33.7374Z" fill="#263238"/>
<path d="M44.579 31.3317C44.579 31.3317 42.339 31.6453 42.759 30.1809C42.7702 30.146 42.7919 30.1154 42.8211 30.0932C42.8502 30.071 42.8855 30.0583 42.9221 30.0568C42.9587 30.0553 42.9949 30.065 43.0259 30.0847C43.0568 30.1044 43.0809 30.1331 43.095 30.1669C43.2213 30.4723 43.4242 30.74 43.6841 30.9441C43.9441 31.1481 44.2523 31.2816 44.579 31.3317V31.3317Z" fill="#263238"/>
<path d="M44.1731 37.0303C44.1731 37.0303 43.3331 39.1443 42.2775 38.0523C42.2517 38.0256 42.2348 37.9916 42.2291 37.9549C42.2235 37.9182 42.2294 37.8807 42.246 37.8475C42.2626 37.8143 42.2891 37.7871 42.3218 37.7696C42.3545 37.7521 42.3919 37.7452 42.4287 37.7499C42.7568 37.7905 43.0898 37.7455 43.3955 37.6194C43.7011 37.4934 43.969 37.2904 44.1731 37.0303Z" fill="#263238"/>
<path d="M46.6339 30.9232C46.6339 30.9232 48.3951 30.6992 47.9527 29.3888C47.5103 28.0784 47.0595 27.328 47.2219 26.516C47.2219 26.516 46.7963 26.558 46.8411 27.2664C46.8411 27.2664 46.3651 25.6844 45.0127 25.8076C43.6603 25.9308 44.1391 27.1404 43.0135 26.9752C43.0135 26.9752 43.4727 27.4932 43.9515 27.0564C43.9515 27.0564 43.8255 27.9944 42.5991 27.4736C42.8251 27.65 43.0097 27.8737 43.1399 28.1292C43.27 28.3846 43.3425 28.6655 43.3523 28.952C43.3719 30.576 43.3523 31.5784 44.4723 31.192L46.6339 30.9232Z" fill="#263238"/>
<path d="M44.2402 31.7799C44.2402 31.7799 43.627 30.8755 45.5618 30.6291C47.4966 30.3827 47.2699 31.2255 47.2699 31.2255L44.2402 31.7799Z" fill="#6633F2"/>
<path d="M43.9292 37.9204C44.1336 39.4184 44.296 41.5996 43.2012 42.5292C44.5565 43.4119 45.7491 44.5221 46.7264 45.8108C46.7609 45.8554 46.8038 45.8927 46.8528 45.9206C46.9018 45.9485 46.9558 45.9665 47.0117 45.9735C47.0676 45.9806 47.1244 45.9765 47.1787 45.9615C47.233 45.9466 47.2839 45.9211 47.3284 45.8864C47.368 45.858 47.4013 45.8218 47.4264 45.78C48.6948 43.7808 47.81 42.8008 47.81 42.8008C46.844 42.5852 46.97 41.7256 47.3116 40.5916L43.9292 37.9204Z" fill="#7F3E3B"/>
<path opacity="0.2" d="M44.8643 39.0771L46.7403 40.1327L47.3199 40.6003C47.1355 41.0696 47.0507 41.5721 47.0707 42.0759C45.8443 41.7203 44.4387 40.0851 44.8643 39.0771Z" fill="black"/>
<path d="M43.9797 34.4119C43.5849 36.8675 43.3665 37.9091 44.3101 39.4071C45.7297 41.6891 48.8321 41.6471 49.9493 39.3483C50.9489 37.2903 51.4473 33.6223 49.2801 32.1243C48.8063 31.7916 48.2552 31.5858 47.6792 31.5265C47.1033 31.4673 46.5218 31.5567 45.9903 31.7861C45.4587 32.0156 44.9948 32.3774 44.6428 32.837C44.2908 33.2967 44.0625 33.8389 43.9797 34.4119Z" fill="#7F3E3B"/>
<path d="M47.698 35.9208C47.656 36.1168 47.7232 36.2989 47.852 36.3297C47.9808 36.3605 48.132 36.2233 48.1656 36.0245C48.1992 35.8257 48.1432 35.6464 48.0116 35.6156C47.88 35.5848 47.7428 35.722 47.698 35.9208Z" fill="#263238"/>
<path d="M49.9266 36.4198C49.8818 36.6186 49.9518 36.8034 50.0806 36.8314C50.2094 36.8594 50.3606 36.7222 50.3942 36.5262C50.4278 36.3302 50.369 36.1454 50.243 36.1146C50.117 36.0838 49.9714 36.2238 49.9266 36.4198Z" fill="#263238"/>
<path d="M50.1816 36.1197L50.68 36.0889C50.68 36.0889 50.358 36.3997 50.1816 36.1197Z" fill="#263238"/>
<path d="M48.5857 38.9034C48.6836 38.9226 48.7828 38.9348 48.8825 38.9398C48.8978 38.9365 48.9113 38.9273 48.9202 38.9143C48.929 38.9013 48.9326 38.8854 48.9301 38.8698C48.9273 38.8583 48.9214 38.8477 48.913 38.8393C48.9046 38.8309 48.894 38.825 48.8825 38.8222C48.63 38.8159 48.3825 38.7505 48.1599 38.6314C47.9372 38.5123 47.7455 38.3427 47.6001 38.1362C47.5965 38.1295 47.5917 38.1235 47.5858 38.1186C47.5799 38.1138 47.573 38.1102 47.5657 38.1081C47.5583 38.106 47.5507 38.1054 47.5431 38.1064C47.5355 38.1074 47.5282 38.1099 47.5217 38.1138C47.5083 38.122 47.4986 38.1349 47.4944 38.15C47.4902 38.1651 47.492 38.1812 47.4993 38.195C47.6234 38.3801 47.7836 38.5382 47.9703 38.6599C48.157 38.7816 48.3663 38.8645 48.5857 38.9034Z" fill="#263238"/>
<path d="M47.5497 34.2468C47.5699 34.2618 47.5945 34.2699 47.6197 34.2699C47.6449 34.2699 47.6694 34.2618 47.6897 34.2468C48.1433 33.936 48.8097 34.174 48.8097 34.1768C48.8384 34.184 48.8687 34.1803 48.8948 34.1666C48.921 34.1529 48.9412 34.13 48.9516 34.1023C48.962 34.0746 48.9618 34.0441 48.9511 34.0165C48.9404 33.989 48.92 33.9663 48.8937 33.9528C48.8601 33.9528 48.1041 33.6728 47.5525 34.0508C47.5268 34.0689 47.5093 34.0963 47.5035 34.1272C47.4978 34.158 47.5043 34.1899 47.5217 34.216C47.5284 34.2284 47.538 34.239 47.5497 34.2468V34.2468Z" fill="#263238"/>
<path d="M50.848 35.5378C50.8638 35.5584 50.8859 35.5732 50.9109 35.5799C50.9359 35.5866 50.9624 35.5849 50.9864 35.575C51.0103 35.5651 51.0303 35.5476 51.0433 35.5252C51.0562 35.5028 51.0614 35.4767 51.058 35.451C51.0386 35.2634 50.9743 35.0833 50.8705 34.9258C50.7667 34.7684 50.6264 34.6383 50.4616 34.5466C50.4334 34.5329 50.4009 34.5309 50.3712 34.5411C50.3416 34.5514 50.3172 34.573 50.3034 34.6012C50.2897 34.6294 50.2877 34.6619 50.298 34.6916C50.3082 34.7213 50.3298 34.7457 50.358 34.7594C50.4868 34.8346 50.5958 34.9393 50.6761 35.0649C50.7565 35.1905 50.8058 35.3334 50.82 35.4818C50.8254 35.5022 50.8349 35.5213 50.848 35.5378V35.5378Z" fill="#263238"/>
<path d="M47.9526 35.613L48.451 35.585C48.451 35.585 48.1318 35.9014 47.9526 35.613Z" fill="#263238"/>
<path d="M49.1009 36.5146C49.1875 37.0407 49.3487 37.5518 49.5797 38.0322C49.4457 38.0866 49.3017 38.1125 49.1571 38.1081C49.0125 38.1038 48.8703 38.0694 48.7397 38.007L49.1009 36.5146Z" fill="#630F0F"/>
<path d="M48.8122 36.3051C48.792 36.4189 48.7495 36.5276 48.6873 36.625C48.6251 36.7224 48.5443 36.8066 48.4495 36.8727C48.3547 36.9389 48.2478 36.9858 48.135 37.0106C48.0221 37.0355 47.9054 37.0379 47.7916 37.0177C47.6778 36.9974 47.5691 36.955 47.4717 36.8928C47.3743 36.8305 47.2901 36.7497 47.2239 36.655C47.1578 36.5602 47.1109 36.4533 47.086 36.3404C47.0612 36.2275 47.0588 36.1109 47.079 35.9971L48.8122 36.3051Z" fill="#6633F2"/>
<path d="M50.9602 36.6801C50.9399 36.7939 50.8975 36.9026 50.8353 37C50.773 37.0974 50.6922 37.1816 50.5974 37.2477C50.5027 37.3139 50.3958 37.3608 50.2829 37.3856C50.17 37.4105 50.0534 37.4129 49.9396 37.3927C49.8258 37.3724 49.717 37.33 49.6196 37.2678C49.5222 37.2055 49.4381 37.1247 49.3719 37.03C49.3057 36.9352 49.2589 36.8283 49.234 36.7154C49.2091 36.6025 49.2067 36.4859 49.227 36.3721L50.9602 36.6801Z" fill="#6633F2"/>
<path d="M50.1954 37.5201C50.1376 37.5242 50.0796 37.5242 50.0218 37.5201C49.7841 37.4765 49.5708 37.3467 49.423 37.1554C49.2752 36.9642 49.2033 36.7251 49.221 36.4841L48.9774 36.4393C48.9168 36.6572 48.7821 36.8473 48.5966 36.9769C48.4921 37.0508 48.3738 37.103 48.2488 37.1304C48.1238 37.1578 47.9945 37.1599 47.8686 37.1365C47.63 37.0947 47.4156 36.9653 47.2675 36.7736C47.1194 36.582 47.0481 36.3419 47.0678 36.1005L46.6198 36.0221L43.7778 35.7057L43.8002 35.5181L46.645 35.8345L47.2806 35.9493V36.0165C47.2486 36.1754 47.2652 36.3403 47.3282 36.4897C47.3851 36.621 47.4767 36.7345 47.5931 36.8178C47.7095 36.9012 47.8463 36.9513 47.989 36.9629C48.1892 36.9714 48.3856 36.9059 48.5406 36.7789C48.6955 36.6518 48.7982 36.4721 48.829 36.2741V36.2741C48.8317 36.2632 48.8384 36.2537 48.8477 36.2475C48.857 36.2412 48.8684 36.2387 48.8794 36.2405L49.4002 36.3329C49.4058 36.3335 49.4111 36.3353 49.4159 36.3381C49.4208 36.3409 49.425 36.3446 49.4284 36.349C49.4318 36.3535 49.4343 36.3585 49.4357 36.3639C49.4371 36.3693 49.4374 36.3749 49.4366 36.3805V36.3805C49.3992 36.5942 49.4459 36.8142 49.567 36.9942C49.6881 37.1743 49.8741 37.3005 50.0862 37.3465C50.2901 37.372 50.4959 37.3165 50.6593 37.1919C50.8227 37.0673 50.9306 36.8835 50.9598 36.6801L51.1446 36.7137C51.1227 36.8395 51.076 36.9597 51.0072 37.0674C50.9385 37.175 50.8491 37.268 50.7442 37.3409C50.5843 37.456 50.3925 37.5186 50.1954 37.5201Z" fill="#263238"/>
<path d="M43.6407 36.302C43.6407 36.302 41.4203 31.3964 46.0123 31.0016C46.6255 30.9484 47.8743 30.856 48.4735 31.0016C49.2463 31.1864 51.1531 32.3624 50.4083 33.5216C50.4083 33.5216 49.7307 32.5612 47.4655 32.7796C45.2003 32.998 45.4859 36.764 43.6407 36.302Z" fill="#263238"/>
<path d="M42.9184 36.1983C42.9556 36.4337 43.0388 36.6594 43.1632 36.8626C43.2877 37.0658 43.4509 37.2426 43.6436 37.3827C44.1616 37.7523 44.6432 37.3407 44.6768 36.7387C44.7076 36.1983 44.4808 35.3387 43.8732 35.2183C43.74 35.1923 43.6023 35.1998 43.4727 35.2403C43.3431 35.2808 43.2257 35.3529 43.1309 35.4502C43.0362 35.5474 42.9671 35.6667 42.93 35.7973C42.8929 35.928 42.889 36.0657 42.9184 36.1983V36.1983Z" fill="#7F3E3B"/>
<path d="M44.0833 38.9954C43.8517 39.0313 43.6149 38.9838 43.4151 38.8613C43.2153 38.7388 43.0655 38.5492 42.9925 38.3265C42.9195 38.1038 42.928 37.8624 43.0165 37.6454C43.105 37.4284 43.2678 37.2499 43.4757 37.1418L43.5653 37.307C43.3928 37.3968 43.2588 37.5462 43.188 37.7274C43.1173 37.9085 43.1146 38.1092 43.1806 38.2921C43.2465 38.4751 43.3766 38.6279 43.5466 38.7223C43.7167 38.8167 43.9152 38.8462 44.1053 38.8054C44.2954 38.7645 44.4643 38.6561 44.5806 38.5002C44.6969 38.3444 44.7528 38.1516 44.7378 37.9577C44.7228 37.7638 44.638 37.5819 44.4991 37.4458C44.3602 37.3096 44.1766 37.2285 43.9825 37.2174V37.0298C44.223 37.0482 44.4485 37.154 44.6165 37.3273C44.7844 37.5005 44.8832 37.7291 44.8943 37.9702C44.9053 38.2112 44.8278 38.4479 44.6763 38.6357C44.5249 38.8235 44.31 38.9495 44.0721 38.9898L44.0833 38.9954Z" fill="#6633F2"/>
<path d="M55.0199 31.5952L55.7451 32.298L56.7447 32.1552L56.9211 33.152L57.8143 33.6252L57.3691 34.5324L57.8143 35.4424L56.9211 35.9156L56.7447 36.9096L55.7451 36.7696L55.0199 37.4724L54.2919 36.7696L53.2923 36.9096L53.1159 35.9156L52.2227 35.4424L52.6679 34.5324L52.2227 33.6252L53.1159 33.152L53.2923 32.1552L54.2919 32.298L55.0199 31.5952Z" fill="#6633F2"/>
<g opacity="0.9">
<path opacity="0.9" d="M54.4768 35.6836L53.4352 34.5412C53.3988 34.4968 53.3814 34.4399 53.3867 34.3828C53.3919 34.3257 53.4194 34.273 53.4632 34.236V34.236C53.483 34.216 53.5065 34.2001 53.5325 34.1893C53.5584 34.1785 53.5863 34.1729 53.6144 34.1729C53.6425 34.1729 53.6703 34.1785 53.6963 34.1893C53.7222 34.2001 53.7458 34.216 53.7656 34.236L54.53 35.076L56.2968 33.452C56.3168 33.4319 56.3406 33.416 56.3668 33.4051C56.393 33.3943 56.421 33.3887 56.4494 33.3887C56.4777 33.3887 56.5058 33.3943 56.532 33.4051C56.5582 33.416 56.5819 33.4319 56.602 33.452C56.6381 33.4959 56.6555 33.5523 56.6503 33.6089C56.645 33.6656 56.6176 33.7179 56.574 33.7544L54.4768 35.6836Z" fill="white"/>
</g>
<path d="M45.8323 75.7066C49.4856 72.0534 49.4856 66.1302 45.8323 62.4769C42.179 58.8237 36.2559 58.8237 32.6026 62.477C28.9494 66.1302 28.9494 72.0534 32.6026 75.7066C36.2559 79.3599 42.179 79.3599 45.8323 75.7066Z" fill="#6633F2"/>
<path opacity="0.5" d="M45.8323 75.7066C49.4856 72.0534 49.4856 66.1302 45.8323 62.4769C42.179 58.8237 36.2559 58.8237 32.6026 62.477C28.9494 66.1302 28.9494 72.0534 32.6026 75.7066C36.2559 79.3599 42.179 79.3599 45.8323 75.7066Z" fill="white"/>
<path d="M42.739 73.0098C44.0746 71.5902 43.7806 69.7422 43.2486 67.4406C42.9686 66.2534 44.4974 65.3994 43.4306 63.655C42.4338 61.975 36.5734 60.3538 36.4306 63.375C34.3698 63.9686 34.3166 65.8194 34.5182 68.7706C34.5938 69.8906 34.2718 70.4506 33.849 70.8426C33.5988 71.0698 33.4167 71.362 33.3228 71.6867C33.2289 72.0114 33.227 72.3557 33.3173 72.6814C33.4076 73.0071 33.5865 73.3013 33.8341 73.5313C34.0817 73.7613 34.3883 73.9181 34.7198 73.9842C37.2706 74.463 41.0646 74.7934 42.739 73.0098Z" fill="#263238"/>
<path d="M40.636 73.802L36.7412 73.228C34.4536 72.9872 33.1012 73.9588 32.3032 75.3924C33.7502 76.9821 35.701 78.0244 37.8268 78.3437C39.9526 78.663 42.1235 78.2397 43.9736 77.1452C43.5172 73.7488 40.636 73.802 40.636 73.802Z" fill="#6633F2"/>
<path d="M37.7772 68.8994C37.836 70.1874 37.7436 72.5198 36.7412 73.2282C36.7412 73.2282 38.004 75.7314 39.866 76.5658C41.0112 75.7902 40.636 73.8022 40.636 73.8022C39.2892 73.2646 39.4796 72.2314 39.866 71.2822L37.7772 68.8994Z" fill="#FFB573"/>
<path opacity="0.2" d="M38.64 69.8765L39.8776 71.2905C39.7819 71.5084 39.7051 71.7342 39.648 71.9653C39.1272 71.8113 38.4804 71.1253 38.5056 70.5485C38.5077 70.318 38.5533 70.09 38.64 69.8765V69.8765Z" fill="black"/>
<path d="M36.8252 66.5362C36.9932 68.6502 37.0184 69.549 38.1048 70.613C39.74 72.2146 42.3048 71.551 42.7668 69.4314C43.1868 67.5246 42.8452 64.3914 40.7592 63.5822C40.3009 63.4058 39.8053 63.349 39.319 63.4171C38.8327 63.4853 38.3718 63.6761 37.9797 63.9716C37.5875 64.2671 37.277 64.6576 37.0775 65.1063C36.878 65.555 36.796 66.047 36.8392 66.5362H36.8252Z" fill="#FFB573"/>
<path d="M38.284 63.3774C41.028 64.279 35.9124 68.2494 35.9712 70.5734C34.868 67.8462 35.2796 62.3918 38.284 63.3774Z" fill="#263238"/>
<path d="M41.3755 67.0347C41.5339 67.4249 41.747 67.7907 42.0083 68.1211C41.9214 68.1855 41.8216 68.2303 41.7158 68.2525C41.6099 68.2748 41.5005 68.2739 41.3951 68.2499L41.3755 67.0347Z" fill="#ED893E"/>
<path d="M40.6417 68.908C40.7356 68.9076 40.8292 68.8992 40.9217 68.8828C40.9348 68.8801 40.9464 68.8726 40.9542 68.8617C40.962 68.8508 40.9654 68.8373 40.9637 68.824V68.824C40.961 68.8109 40.9534 68.7993 40.9425 68.7915C40.9316 68.7837 40.9182 68.7803 40.9049 68.782C40.6949 68.8231 40.4783 68.8147 40.2722 68.7573C40.0661 68.6999 39.8762 68.5953 39.7177 68.4516C39.7083 68.4426 39.6958 68.4375 39.6827 68.4375C39.6696 68.4375 39.6571 68.4426 39.6477 68.4516C39.6385 68.4615 39.6333 68.4745 39.6333 68.488C39.6333 68.5016 39.6385 68.5146 39.6477 68.5244C39.9176 68.775 40.2734 68.9123 40.6417 68.908V68.908Z" fill="#263238"/>
<path d="M37.1643 63.3747C36.3243 64.9287 38.7659 64.0467 40.7371 64.6879C42.5683 65.2815 43.4951 66.4687 43.2935 64.7467C43.0471 62.6215 38.4971 60.9275 37.1643 63.3747Z" fill="#263238"/>
<path d="M39.4517 66.1778C39.4656 66.1759 39.479 66.1712 39.4911 66.1639C39.5031 66.1567 39.5135 66.1471 39.5217 66.1358C39.5892 66.0281 39.6812 65.938 39.7902 65.8727C39.8992 65.8075 40.0222 65.7691 40.1489 65.7606C40.1731 65.7565 40.1951 65.7441 40.211 65.7253C40.2269 65.7066 40.2356 65.6829 40.2356 65.6584C40.2356 65.6338 40.2269 65.6101 40.211 65.5914C40.1951 65.5727 40.1731 65.5602 40.1489 65.5562C39.9893 65.5637 39.8338 65.609 39.6951 65.6884C39.5563 65.7677 39.4384 65.8788 39.3509 66.0126C39.3368 66.035 39.3318 66.0621 39.337 66.0882C39.3422 66.1142 39.3572 66.1373 39.3789 66.1526C39.3884 66.1619 39.3999 66.169 39.4125 66.1734C39.4251 66.1777 39.4385 66.1792 39.4517 66.1778V66.1778Z" fill="#263238"/>
<path d="M40.3198 66.7267C40.3122 66.7255 40.3044 66.7261 40.2971 66.7285C40.2897 66.731 40.2831 66.7351 40.2778 66.7407C40.222 66.7931 40.1546 66.8313 40.081 66.8523C40.0075 66.8732 39.9299 66.8763 39.855 66.8611C39.8398 66.8576 39.8238 66.86 39.8103 66.8677C39.7968 66.8755 39.7867 66.8882 39.7822 66.9031C39.7784 66.9183 39.7803 66.9344 39.7875 66.9483C39.7947 66.9622 39.8068 66.973 39.8214 66.9787V66.9787C39.9152 66.999 40.0126 66.9964 40.1052 66.9711C40.1978 66.9457 40.283 66.8984 40.3534 66.8331C40.359 66.8276 40.3634 66.8211 40.3664 66.8139C40.3695 66.8067 40.371 66.7989 40.371 66.7911C40.371 66.7833 40.3695 66.7755 40.3664 66.7683C40.3634 66.7611 40.359 66.7546 40.3534 66.7491V66.7491C40.3496 66.7432 40.3447 66.7382 40.3389 66.7344C40.3331 66.7305 40.3266 66.7279 40.3198 66.7267V66.7267Z" fill="#263238"/>
<path d="M42.2435 66.6397C42.2274 66.6389 42.2115 66.6438 42.1987 66.6537C42.1448 66.7073 42.0786 66.7471 42.006 66.7695C41.9333 66.7919 41.8563 66.7964 41.7815 66.7825C41.7659 66.7791 41.7497 66.7819 41.7361 66.7903C41.7225 66.7986 41.7127 66.8119 41.7087 66.8273C41.7066 66.8349 41.706 66.8428 41.707 66.8505C41.708 66.8583 41.7105 66.8658 41.7144 66.8726C41.7183 66.8794 41.7235 66.8853 41.7298 66.89C41.736 66.8948 41.7431 66.8982 41.7507 66.9001V66.9001C41.845 66.9188 41.9425 66.9143 42.0347 66.887C42.1268 66.8597 42.211 66.8104 42.2799 66.7433C42.2855 66.7379 42.29 66.7313 42.293 66.7241C42.296 66.7169 42.2976 66.7092 42.2976 66.7013C42.2976 66.6935 42.296 66.6858 42.293 66.6786C42.29 66.6714 42.2855 66.6648 42.2799 66.6593V66.6593C42.2706 66.6486 42.2576 66.6417 42.2435 66.6397V66.6397Z" fill="#263238"/>
<path d="M42.4142 65.8499C42.4276 65.8498 42.4407 65.8464 42.4524 65.8401C42.4641 65.8337 42.4741 65.8246 42.4814 65.8135C42.4903 65.8036 42.497 65.792 42.5011 65.7794C42.5052 65.7669 42.5066 65.7535 42.5053 65.7404C42.504 65.7272 42.5 65.7144 42.4934 65.7029C42.4869 65.6914 42.478 65.6814 42.4674 65.6735V65.6735C42.3455 65.5687 42.2003 65.4947 42.0439 65.4577C41.8875 65.4207 41.7245 65.4217 41.5686 65.4607C41.5432 65.4696 41.5221 65.4879 41.5096 65.5118C41.4971 65.5357 41.4942 65.5635 41.5014 65.5895C41.5098 65.6146 41.5277 65.6354 41.5512 65.6475C41.5748 65.6595 41.6022 65.6618 41.6274 65.6539C41.7519 65.6238 41.8817 65.6242 42.006 65.6549C42.1302 65.6856 42.2453 65.7457 42.3414 65.8303C42.3513 65.8388 42.363 65.845 42.3756 65.8484C42.3882 65.8518 42.4014 65.8523 42.4142 65.8499Z" fill="#263238"/>
<path d="M39.2167 79.7159C37.1148 79.7164 35.06 79.0936 33.3122 77.9262C31.5643 76.7588 30.2019 75.0993 29.3973 73.1576C28.5927 71.2158 28.382 69.079 28.7919 67.0175C29.2019 64.956 30.2139 63.0624 31.7002 61.5762C33.1864 60.0899 35.08 59.0778 37.1416 58.6679C39.2031 58.258 41.3398 58.4687 43.2816 59.2733C45.2233 60.0779 46.8829 61.4403 48.0503 63.1881C49.2176 64.936 49.8404 66.9908 49.8399 69.0927C49.8355 71.9087 48.7148 74.6082 46.7235 76.5995C44.7322 78.5908 42.0328 79.7114 39.2167 79.7159ZM39.2167 58.8083C37.1825 58.8077 35.1939 59.4104 33.5022 60.5401C31.8106 61.6699 30.492 63.2759 29.7132 65.1551C28.9343 67.0342 28.7303 69.1022 29.1268 71.0973C29.5233 73.0925 30.5025 74.9253 31.9407 76.3638C33.3789 77.8024 35.2114 78.7822 37.2065 79.1792C39.2015 79.5763 41.2695 79.3728 43.1489 78.5945C45.0283 77.8162 46.6347 76.498 47.7649 74.8067C48.8951 73.1153 49.4983 71.1268 49.4983 69.0927C49.4976 66.365 48.4144 63.7491 46.4867 61.8193C44.5591 59.8895 41.9443 58.8036 39.2167 58.7999V58.8083Z" fill="#6633F2"/>
<g opacity="0.5">
<path opacity="0.5" d="M39.2167 79.7159C37.1148 79.7164 35.06 79.0936 33.3122 77.9262C31.5643 76.7588 30.2019 75.0993 29.3973 73.1576C28.5927 71.2158 28.382 69.079 28.7919 67.0175C29.2019 64.956 30.2139 63.0624 31.7002 61.5762C33.1864 60.0899 35.08 59.0778 37.1416 58.6679C39.2031 58.258 41.3398 58.4687 43.2816 59.2733C45.2233 60.0779 46.8829 61.4403 48.0503 63.1881C49.2176 64.936 49.8404 66.9908 49.8399 69.0927C49.8355 71.9087 48.7148 74.6082 46.7235 76.5995C44.7322 78.5908 42.0328 79.7114 39.2167 79.7159ZM39.2167 58.8083C37.1825 58.8077 35.1939 59.4104 33.5022 60.5401C31.8106 61.6699 30.492 63.2759 29.7132 65.1551C28.9343 67.0342 28.7303 69.1022 29.1268 71.0973C29.5233 73.0925 30.5025 74.9253 31.9407 76.3638C33.3789 77.8024 35.2114 78.7822 37.2065 79.1792C39.2015 79.5763 41.2695 79.3728 43.1489 78.5945C45.0283 77.8162 46.6347 76.498 47.7649 74.8067C48.8951 73.1153 49.4983 71.1268 49.4983 69.0927C49.4976 66.365 48.4144 63.7491 46.4867 61.8193C44.5591 59.8895 41.9443 58.8036 39.2167 58.7999V58.8083Z" fill="white"/>
</g>
<path d="M62.2972 78.8789L59.8472 114.646L61.852 115.153C61.852 115.153 65.7076 102.752 65.8616 95.7769C66.0156 88.8021 65.8448 87.3293 68.0512 83.3897L62.2972 78.8789Z" fill="#FFB573"/>
<path d="M69.3003 79.3633L72.0611 115.153L74.1583 115.139C74.1583 115.139 76.3983 102.329 75.5331 95.4129C74.6679 88.4969 73.4947 87.1305 75.1355 82.8773L69.3003 79.3633Z" fill="#FFB573"/>
<path d="M72.2232 114.733L74.4044 114.781C74.4507 114.781 74.4955 114.798 74.5312 114.827C74.5669 114.857 74.5913 114.898 74.6004 114.943L75.0204 117.004C75.0294 117.047 75.0298 117.092 75.0216 117.135C75.0134 117.178 74.9967 117.22 74.9725 117.257C74.9483 117.294 74.9171 117.325 74.8807 117.35C74.8442 117.375 74.8032 117.393 74.76 117.402C74.7358 117.404 74.7113 117.404 74.6872 117.402C73.7772 117.368 72.9708 117.304 71.8396 117.287C70.5011 117.262 70.8371 117.427 69.2663 117.421C68.3199 117.421 68.1659 116.338 68.5691 116.301C70.4087 116.102 70.9491 115.551 71.6715 114.901C71.8289 114.78 72.025 114.72 72.2232 114.733V114.733Z" fill="#263238"/>
<path d="M59.8219 114.42L61.9751 114.784C62.021 114.79 62.0631 114.812 62.0943 114.847C62.1255 114.881 62.1437 114.925 62.1459 114.971L62.2607 117.071C62.2661 117.161 62.2358 117.249 62.1765 117.316C62.1172 117.383 62.0337 117.424 61.9443 117.43H61.8799C60.9839 117.265 60.1999 117.085 59.0799 116.9C57.7611 116.685 58.0691 116.9 56.5151 116.662C55.5799 116.52 55.5855 115.43 55.9887 115.444C57.8395 115.514 58.4527 115.05 59.2591 114.515C59.4298 114.418 59.6289 114.385 59.8219 114.42V114.42Z" fill="#263238"/>
<path opacity="0.2" d="M69.3003 79.3633L70.3363 92.8033C71.7363 92.6241 73.3043 92.3693 75.0263 92.0277C74.5475 89.2109 74.1555 87.5897 74.3711 85.7585C74.3549 84.7165 74.4965 83.6781 74.7911 82.6785L69.3003 79.3633Z" fill="black"/>
<path opacity="0.2" d="M65.9207 92.9605C66.0215 88.3097 66.1811 86.7389 68.0515 83.3985L62.2975 78.8877L61.3511 92.6805C62.864 92.8992 64.3924 92.9929 65.9207 92.9605V92.9605Z" fill="black"/>
<path d="M62.9639 67.5588C62.9639 67.5588 61.4883 79.8788 61.0767 91.5128C61.0767 91.5128 65.0975 92.6608 75.6815 91.02C75.406 89.5001 75.3298 87.9508 75.4547 86.4112C75.7627 82.1972 77.0059 77.622 75.6815 73.2176C74.2143 68.3512 72.6463 66.9848 72.6463 66.9848L63.4567 66.5732L62.9639 67.5588Z" fill="#263238"/>
<path d="M66.1892 51.002L73.8584 51.2036C73.9904 51.2056 74.1202 51.2387 74.237 51.3003C74.3539 51.3618 74.4546 51.45 74.5309 51.5578C74.6073 51.6655 74.6572 51.7897 74.6766 51.9204C74.6959 52.051 74.6842 52.1844 74.6424 52.3096C73.8472 54.7568 72.1868 61.0484 73.4636 67.886H62.72L62.5576 57.806C62.5576 57.806 61.7176 55.6724 65.1896 51.4724C65.3099 51.3237 65.4624 51.2041 65.6355 51.1227C65.8086 51.0412 65.9979 51 66.1892 51.002V51.002Z" fill="#6633F2"/>
<path opacity="0.9" d="M66.1892 51.002L73.8584 51.2036C73.9904 51.2056 74.1202 51.2387 74.237 51.3003C74.3539 51.3618 74.4546 51.45 74.5309 51.5578C74.6073 51.6655 74.6572 51.7897 74.6766 51.9204C74.6959 52.051 74.6842 52.1844 74.6424 52.3096C73.8472 54.7568 72.1868 61.0484 73.4636 67.886H62.72L62.5576 57.806C62.5576 57.806 61.7176 55.6724 65.1896 51.4724C65.3099 51.3237 65.4624 51.2041 65.6355 51.1227C65.8086 51.0412 65.9979 51 66.1892 51.002V51.002Z" fill="white"/>
<path d="M56.3221 58.4897L54.1885 57.6805L53.4801 56.0621C53.4582 56.0123 53.429 55.966 53.3933 55.9249L51.6069 53.7773C51.5596 53.722 51.4939 53.6855 51.4219 53.6747C51.3498 53.6639 51.2764 53.6795 51.2149 53.7185V53.7185C51.1804 53.7409 51.1509 53.7702 51.1283 53.8045C51.1058 53.8389 51.0906 53.8776 51.0837 53.9181C51.0769 53.9587 51.0785 54.0002 51.0886 54.04C51.0986 54.0799 51.1168 54.1173 51.1421 54.1497L52.0941 55.3705L51.7357 57.0505C51.7069 57.1881 51.7104 57.3305 51.7458 57.4665C51.7813 57.6025 51.8478 57.7285 51.9401 57.8345L52.1025 58.0193C52.1774 58.1052 52.2676 58.1764 52.3685 58.2293L53.5697 58.8481L55.6221 59.8729L56.3221 58.4897Z" fill="#FFB573"/>
<path d="M65.3383 51.0024C65.3383 51.0024 62.2583 51.9936 60.9255 58.764C60.9053 58.8647 60.8643 58.96 60.8051 59.0438C60.7459 59.1277 60.6699 59.1982 60.5818 59.251C60.4938 59.3037 60.3956 59.3374 60.2938 59.35C60.1919 59.3626 60.0886 59.3538 59.9903 59.324L55.2947 57.8512L54.6787 59.5704C54.6787 59.5704 59.3743 62.9052 61.5695 62.418C63.7647 61.9308 65.3383 51.0024 65.3383 51.0024Z" fill="#6633F2"/>
<path opacity="0.1" d="M61.5022 56.468C61.3508 57.281 61.3047 58.1101 61.365 58.9348C61.4668 60.1024 61.4865 61.2757 61.4238 62.446C61.4727 62.4415 61.5213 62.434 61.5694 62.4236C63.7646 61.9364 65.3382 51.0024 65.3382 51.0024C65.3382 51.0024 62.9806 51.7612 61.5022 56.468Z" fill="black"/>
<path d="M73.7155 44.5344C73.5195 43.8512 73.7155 43.1512 73.2115 42.5184C72.9519 42.1707 72.8071 41.7509 72.7971 41.3172C72.6683 39.0772 69.9159 38.3716 67.8999 38.3604C65.6739 38.3604 66.5531 39.2648 64.6743 39.7072C62.7954 40.1496 63.8175 42.468 64.3271 43.1288C64.8367 43.7896 64.3691 44.932 63.3275 46.696C63.3275 46.696 62.2074 48.7708 68.0399 47.8412C68.0399 47.8412 75.1967 49.65 73.7155 44.5344Z" fill="#263238"/>
<path d="M71.0222 46.3965C70.6414 47.7209 70.1682 50.1709 71.0222 51.1565C69.8901 51.8949 68.6664 52.4823 67.3822 52.9037C65.9822 51.5373 66.8054 51.0053 66.8054 51.0053C68.3398 50.7645 68.4294 49.4485 68.2698 48.3789L71.0222 46.3965Z" fill="#FFB573"/>
<path opacity="0.2" d="M70.0506 47.8331C70.0842 47.5888 70.0842 47.341 70.0506 47.0967L68.2754 48.3763C68.3084 48.5913 68.3271 48.8083 68.3314 49.0259C68.9754 48.9587 69.9302 48.4799 70.0506 47.8331Z" fill="black"/>
<path d="M71.739 44.019C71.1314 46.203 70.9214 47.141 69.5634 48.037C67.5194 49.3866 64.9715 48.1658 64.9127 45.8446C64.8595 43.7558 65.8591 40.5246 68.211 40.1158C68.7302 40.017 69.266 40.0535 69.767 40.2217C70.268 40.3899 70.7172 40.6842 71.0716 41.0762C71.426 41.4683 71.6735 41.9449 71.7904 42.4603C71.9073 42.9757 71.8896 43.5124 71.739 44.019V44.019Z" fill="#FFB573"/>
<path d="M71.8903 45.8813C71.6794 46.2653 71.3251 46.5502 70.9047 46.6737C70.3447 46.8305 70.0647 46.3349 70.2159 45.8057C70.3531 45.3297 70.8095 44.6857 71.3723 44.7473C71.5681 44.7789 71.7434 44.8868 71.8599 45.0474C71.9764 45.208 72.0246 45.4081 71.9939 45.6041C71.9767 45.7021 71.9416 45.796 71.8903 45.8813V45.8813Z" fill="#FFB573"/>
<path d="M70.7728 39.6007C71.1564 40.2783 70.1568 41.5132 68.1044 41.3591C66.556 41.2471 64.5876 42.8796 64.7724 41.0791C64.9292 39.4495 68.8352 38.7271 70.7728 39.6007Z" fill="#263238"/>
<path d="M69.6418 40.077C68.5554 40.8806 69.247 42.3898 69.751 43.073C70.255 43.7562 71.0446 44.3974 70.4118 45.3858C69.779 46.3742 69.527 47.609 71.501 47.1554C73.475 46.7018 73.223 44.9294 72.677 43.4062C72.131 41.883 70.9326 39.1222 69.6418 40.077Z" fill="#263238"/>
<path d="M66.6933 43.9126C66.4458 44.29 66.1471 44.6311 65.8057 44.9262C65.8832 45.0119 65.9784 45.0796 66.0848 45.1246C66.1913 45.1696 66.3062 45.1907 66.4217 45.1866L66.6933 43.9126Z" fill="#ED893E"/>
<path d="M69.2667 43.2046C69.2813 43.2088 69.2968 43.2088 69.3115 43.2046C69.3319 43.1924 69.3467 43.1727 69.353 43.1498C69.3592 43.1268 69.3564 43.1023 69.3451 43.0814C69.2645 42.9333 69.1494 42.8068 69.0095 42.7128C68.8696 42.6187 68.709 42.5597 68.5415 42.541C68.5176 42.5409 68.4946 42.5498 68.477 42.5659C68.4593 42.5819 68.4484 42.6041 68.4463 42.6278C68.4462 42.6509 68.4548 42.6733 68.4703 42.6904C68.4859 42.7075 68.5073 42.7181 68.5303 42.7202C68.6688 42.7383 68.8011 42.7888 68.9164 42.8676C69.0317 42.9464 69.1268 43.0513 69.1939 43.1738C69.2029 43.1842 69.2141 43.1923 69.2267 43.1977C69.2393 43.203 69.253 43.2054 69.2667 43.2046Z" fill="#263238"/>
<path d="M65.4418 42.4234C65.4566 42.4258 65.4718 42.4258 65.4866 42.4234C65.6066 42.3545 65.7413 42.3151 65.8795 42.3082C66.0177 42.3014 66.1556 42.3274 66.2818 42.3842C66.2921 42.3901 66.3034 42.394 66.3152 42.3956C66.327 42.3971 66.339 42.3963 66.3504 42.3932C66.3619 42.39 66.3726 42.3847 66.382 42.3773C66.3914 42.37 66.3992 42.3609 66.405 42.3506C66.4154 42.3292 66.4174 42.3047 66.4107 42.2819C66.404 42.2591 66.3889 42.2396 66.3686 42.2274C66.2154 42.1566 66.0476 42.1236 65.8791 42.1309C65.7106 42.1382 65.5462 42.1857 65.3998 42.2694C65.3891 42.2744 65.3795 42.2816 65.3716 42.2904C65.3636 42.2993 65.3575 42.3096 65.3536 42.3208C65.3497 42.332 65.3481 42.3438 65.3488 42.3557C65.3495 42.3675 65.3526 42.3791 65.3578 42.3898C65.3659 42.405 65.378 42.4177 65.3928 42.4266C65.4076 42.4355 65.4245 42.4402 65.4418 42.4402V42.4234Z" fill="#263238"/>
<path d="M68.04 43.8874C68.0008 44.0666 67.8748 44.1898 67.76 44.1674C67.6452 44.145 67.578 43.977 67.62 43.795C67.662 43.613 67.7852 43.4898 67.9 43.515C68.0148 43.5402 68.0652 43.7054 68.04 43.8874Z" fill="#263238"/>
<path d="M65.9904 43.4532C65.954 43.6324 65.828 43.7584 65.7104 43.7332C65.5928 43.708 65.5284 43.5428 65.5648 43.3608C65.6012 43.1788 65.73 43.0584 65.8448 43.0808C65.9596 43.1032 66.0324 43.2712 65.9904 43.4532Z" fill="#263238"/>
<path d="M65.8982 43.1033L65.4922 42.8877C65.4922 42.8877 65.6434 43.2713 65.8982 43.1033Z" fill="#263238"/>
<path d="M67.9338 43.5349L67.5278 43.3193C67.5278 43.3193 67.679 43.7029 67.9338 43.5349Z" fill="#263238"/>
<path d="M71.1033 50.6803C70.9915 50.6717 70.8792 50.6895 70.7756 50.7323C70.672 50.7751 70.5799 50.8417 70.5069 50.9267C69.8125 51.7359 67.9141 54.4071 67.9141 59.4331C67.9141 63.4427 68.1465 67.2311 68.3089 69.3843C68.3252 69.6087 68.3908 69.8266 68.501 70.0227C68.6113 70.2187 68.7634 70.388 68.9466 70.5185C69.1298 70.649 69.3395 70.7375 69.5608 70.7776C69.7821 70.8178 70.0095 70.8086 70.2269 70.7507L74.6397 69.5775C74.6397 69.5775 72.8981 65.1955 73.3013 60.5419C73.5813 57.3023 74.5053 53.9423 75.04 52.2007C75.0852 52.0551 75.0968 51.9011 75.074 51.7504C75.0512 51.5996 74.9946 51.456 74.9084 51.3302C74.8222 51.2044 74.7087 51.0998 74.5763 51.0241C74.4439 50.9484 74.2962 50.9036 74.144 50.8931L71.1033 50.6803Z" fill="#6633F2"/>
<path d="M67.0263 50.6582C67.0647 50.658 67.1023 50.6692 67.1343 50.6904C67.1663 50.7116 67.1912 50.7419 67.2059 50.7773C67.2206 50.8128 67.2245 50.8518 67.2169 50.8894C67.2094 50.9271 67.1908 50.9616 67.1635 50.9886C66.3739 51.7698 64.6435 54.1022 64.3635 59.7638C64.1227 64.6302 63.9127 68.0574 63.8035 69.8438C63.7933 69.9998 63.7454 70.1511 63.6641 70.2846C63.5827 70.4181 63.4702 70.5299 63.3362 70.6105C63.2023 70.6912 63.0508 70.7381 62.8947 70.7475C62.7386 70.7568 62.5826 70.7282 62.4399 70.6642L62.0703 70.499C62.0703 70.499 62.6303 67.8558 62.4735 62.0738C62.3167 56.2918 61.4375 56.0146 63.7923 52.8338C64.0219 52.5258 64.5259 51.8902 64.9291 51.3862C65.1121 51.1598 65.3433 50.9769 65.6058 50.851C65.8683 50.7251 66.1556 50.6592 66.4467 50.6582H67.0263Z" fill="#6633F2"/>
<path d="M71.1731 51.1337L66.2675 51.0049C65.9315 52.3237 65.4051 54.9781 66.1219 56.5657C66.1219 56.5601 68.8043 53.5837 71.1731 51.1337Z" fill="#FFB573"/>
<path d="M69.1992 66.573L72.604 66.041L72.744 66.321C72.7829 66.4051 72.8016 66.4971 72.7987 66.5897C72.7958 66.6823 72.7714 66.773 72.7274 66.8545C72.6833 66.936 72.6209 67.0062 72.5451 67.0594C72.4692 67.1126 72.382 67.1474 72.2904 67.161L70.0504 67.4746C69.9165 67.4938 69.78 67.4665 69.6638 67.3972C69.5476 67.3279 69.4587 67.2208 69.412 67.0938L69.1992 66.573Z" fill="#6633F2"/>
<path opacity="0.2" d="M69.1992 66.573L72.604 66.041L72.744 66.321C72.7829 66.4051 72.8016 66.4971 72.7987 66.5897C72.7958 66.6823 72.7714 66.773 72.7274 66.8545C72.6833 66.936 72.6209 67.0062 72.5451 67.0594C72.4692 67.1126 72.382 67.1474 72.2904 67.161L70.0504 67.4746C69.9165 67.4938 69.78 67.4665 69.6638 67.3972C69.5476 67.3279 69.4587 67.2208 69.412 67.0938L69.1992 66.573Z" fill="black"/>
<path d="M62.2275 66.5732H63.0871L63.0171 67.1472C63.0045 67.2501 62.9713 67.3494 62.9194 67.4391C62.8675 67.5288 62.798 67.6071 62.7151 67.6694C62.6323 67.7316 62.5377 67.7764 62.437 67.8012C62.3364 67.826 62.2318 67.8303 62.1295 67.8137L61.8159 67.7633L62.2275 66.5732Z" fill="#6633F2"/>
<path opacity="0.2" d="M62.2275 66.5732H63.0871L63.0171 67.1472C63.0045 67.2501 62.9713 67.3494 62.9194 67.4391C62.8675 67.5288 62.798 67.6071 62.7151 67.6694C62.6323 67.7316 62.5377 67.7764 62.437 67.8012C62.3364 67.826 62.2318 67.8303 62.1295 67.8137L61.8159 67.7633L62.2275 66.5732Z" fill="black"/>
<path d="M75.6394 65.2627L74.833 67.0687L73.153 68.2587C73.0465 68.334 72.9658 68.4401 72.9217 68.5629C72.8776 68.6856 72.8723 68.8189 72.9066 68.9447V68.9447C72.9301 69.0333 72.9722 69.1158 73.0302 69.1868C73.0881 69.2577 73.1605 69.3155 73.2426 69.3563L74.147 69.7987C74.2861 69.8676 74.4456 69.8834 74.5956 69.8432C74.7456 69.803 74.8758 69.7096 74.9618 69.5803L75.589 68.6395C75.6902 68.4859 75.7597 68.3136 75.7934 68.1327L75.8746 67.6679L76.9946 65.8367L75.6394 65.2627Z" fill="#FFB573"/>
<path opacity="0.1" d="M74.0406 53.0381L73.2454 53.4077C73.2454 53.4077 72.369 55.7121 73.5254 58.7781C73.8006 57.0098 74.1812 55.2595 74.665 53.5365L74.0406 53.0381Z" fill="black"/>
<path d="M69.2217 53.7857C70.6217 53.3377 71.5009 53.9005 71.5009 53.9005C72.0609 52.2205 71.6829 51.4449 71.5877 50.7169L71.1033 50.6833C70.9915 50.6746 70.8793 50.6924 70.7756 50.7353C70.672 50.7781 70.5799 50.8447 70.5069 50.9297C69.8125 51.7389 67.9141 54.4101 67.9141 59.4361C67.9141 60.7101 67.9365 61.9561 67.9757 63.1461C68.6673 57.6693 70.4369 55.6225 70.4369 55.6225C70.3924 55.2425 70.2592 54.8783 70.0481 54.5593C69.8371 54.2402 69.554 53.9752 69.2217 53.7857V53.7857Z" fill="#6633F2"/>
<path d="M67.0266 50.6577H66.5785C65.7777 51.1225 64.6858 51.9345 64.3582 53.0377C64.5209 52.9574 64.7058 52.9339 64.8834 52.9709C65.061 53.008 65.2211 53.1034 65.3382 53.2421C64.723 53.5567 64.2124 54.043 63.8682 54.6421C63.8388 56.8891 63.9754 59.1352 64.2769 61.3621C64.3049 60.8469 64.333 60.3177 64.3582 59.7633C64.6382 54.1017 66.3742 51.7693 67.1582 50.9881C67.1851 50.9614 67.2036 50.9274 67.2113 50.8903C67.219 50.8532 67.2157 50.8146 67.2017 50.7794C67.1876 50.7442 67.1635 50.7138 67.1324 50.6922C67.1013 50.6706 67.0645 50.6586 67.0266 50.6577V50.6577Z" fill="#6633F2"/>
<path opacity="0.2" d="M69.2217 53.7857C70.6217 53.3377 71.5009 53.9005 71.5009 53.9005C72.0609 52.2205 71.6829 51.4449 71.5877 50.7169L71.1033 50.6833C70.9915 50.6746 70.8793 50.6924 70.7756 50.7353C70.672 50.7781 70.5799 50.8447 70.5069 50.9297C69.8125 51.7389 67.9141 54.4101 67.9141 59.4361C67.9141 60.7101 67.9365 61.9561 67.9757 63.1461C68.6673 57.6693 70.4369 55.6225 70.4369 55.6225C70.3924 55.2425 70.2592 54.8783 70.0481 54.5593C69.8371 54.2402 69.554 53.9752 69.2217 53.7857V53.7857Z" fill="black"/>
<path opacity="0.2" d="M67.0266 50.6577H66.5785C65.7777 51.1225 64.6858 51.9345 64.3582 53.0377C64.5209 52.9574 64.7058 52.9339 64.8834 52.9709C65.061 53.008 65.2211 53.1034 65.3382 53.2421C64.723 53.5567 64.2124 54.043 63.8682 54.6421C63.8388 56.8891 63.9754 59.1352 64.2769 61.3621C64.3049 60.8469 64.333 60.3177 64.3582 59.7633C64.6382 54.1017 66.3742 51.7693 67.1582 50.9881C67.1851 50.9614 67.2036 50.9274 67.2113 50.8903C67.219 50.8532 67.2157 50.8146 67.2017 50.7794C67.1876 50.7442 67.1635 50.7138 67.1324 50.6922C67.1013 50.6706 67.0645 50.6586 67.0266 50.6577V50.6577Z" fill="black"/>
<path d="M74.6845 51.1006C74.6845 51.1006 75.7205 51.151 77.5657 55.211C79.4109 59.271 80.1501 62.085 76.6221 66.7694L75.0849 66.0414C75.0849 66.0414 76.6641 62.309 76.5829 60.4218C76.5017 58.5346 74.7489 56.6558 73.8697 55.4574C73.2621 54.6286 72.5397 53.223 74.6845 51.1006Z" fill="#6633F2"/>
<path opacity="0.4" d="M67.9812 76.7427C68.5916 85.9547 68.012 90.1379 67.5864 91.8627C68.25 91.8347 68.9696 91.7899 69.7508 91.7283C69.5464 86.3887 68.4824 79.3075 68.0708 76.7427H67.9812Z" fill="black"/>
<path d="M66.9563 46.2005C66.8624 46.2002 66.7687 46.1918 66.6763 46.1753C66.67 46.1743 66.664 46.172 66.6586 46.1686C66.6532 46.1652 66.6485 46.1608 66.6448 46.1556C66.6412 46.1503 66.6386 46.1444 66.6373 46.1382C66.6359 46.132 66.6359 46.1255 66.6371 46.1193V46.1193C66.6403 46.1072 66.6477 46.0966 66.658 46.0895C66.6682 46.0823 66.6806 46.079 66.6931 46.0801C66.8987 46.1202 67.1108 46.1118 67.3126 46.0554C67.5143 45.999 67.7001 45.8962 67.8551 45.7553C67.8595 45.7503 67.8648 45.7462 67.8708 45.7434C67.8768 45.7405 67.8833 45.7388 67.8899 45.7384C67.8965 45.738 67.9032 45.7389 67.9095 45.7411C67.9157 45.7433 67.9215 45.7466 67.9265 45.7511C67.9314 45.7555 67.9355 45.7608 67.9384 45.7668C67.9413 45.7728 67.943 45.7793 67.9434 45.7859C67.9438 45.7925 67.9428 45.7992 67.9407 45.8054C67.9385 45.8117 67.9351 45.8175 67.9307 45.8225C67.6669 46.0695 67.3177 46.205 66.9563 46.2005V46.2005Z" fill="#263238"/>
</svg>
