<svg width="112" height="124" viewBox="0 0 112 124" fill="none" xmlns="http://www.w3.org/2000/svg">
<g filter="url(#filter0_ddd_127_17)">
<rect x="26" width="60" height="60" rx="15" fill="#6633F2"/>
</g>
<path d="M58.0539 32.8297L62.1112 27.2206C62.2355 27.0486 62.2169 26.8111 62.0661 26.6603C61.9153 26.5104 61.6778 26.4913 61.5058 26.6153L55.8959 30.6739C55.5301 30.9399 55.3 31.3512 55.2649 31.8023C55.2298 32.2534 55.3932 32.6949 55.7126 33.0143C56.0042 33.3059 56.3916 33.4667 56.8033 33.4667C57.2964 33.4667 57.7635 33.2288 58.0539 32.8297Z" fill="white"/>
<path d="M66.6311 25.4777C66.6268 25.4686 66.6268 25.4591 66.622 25.45C66.6168 25.4413 66.6086 25.4366 66.6029 25.4283C66.1648 24.6769 65.6466 23.978 65.0581 23.3444L65.9885 22.4141L66.6012 23.0268L68.4394 21.1886L66.6012 19.35L64.7626 21.1886L65.3757 21.8013L64.4454 22.7317C63.8118 22.1432 63.1133 21.6245 62.3615 21.1864C62.3532 21.1808 62.3485 21.1726 62.3398 21.1674C62.3307 21.1622 62.3212 21.1626 62.3121 21.1578C60.9718 20.3856 59.4659 19.8713 57.8609 19.6828V19.1667H58.5109C59.1084 19.1667 59.5942 18.6809 59.5942 18.0833C59.5942 17.4858 59.1076 17 58.51 17H54.61C54.0124 17 53.5267 17.4858 53.5267 18.0833C53.5267 18.6809 54.0124 19.1667 54.61 19.1667H55.26V19.6676C54.792 19.7174 54.3249 19.7937 53.8629 19.8994C53.6298 19.9527 53.4838 20.1854 53.5375 20.4186C53.5908 20.6517 53.8235 20.7973 54.0566 20.744C54.4666 20.65 54.8808 20.5802 55.296 20.5338L55.7254 20.5013C55.8706 20.4905 56.0006 20.4827 56.1262 20.4766V21.3333C56.1262 21.573 56.3199 21.7667 56.5596 21.7667C56.7992 21.7667 56.9929 21.573 56.9929 21.3333V20.4797C58.6227 20.5546 60.1584 20.9923 61.5238 21.7125L61.0966 22.4526C60.977 22.6602 61.048 22.925 61.2552 23.0446C61.3232 23.084 61.3977 23.1026 61.4714 23.1026C61.6213 23.1026 61.7669 23.0246 61.8471 22.886L62.2731 22.1476C63.629 23.0077 64.7808 24.1595 65.6409 25.5154L64.903 25.9414C64.6967 26.061 64.6256 26.3258 64.7457 26.5333C64.8263 26.6724 64.9714 26.75 65.1214 26.75C65.195 26.75 65.2696 26.7314 65.3376 26.6919L66.0773 26.2647C66.8075 27.6496 67.2464 29.2105 67.3119 30.8662H66.456C66.2164 30.8662 66.0227 31.0599 66.0227 31.2996C66.0227 31.5392 66.2164 31.7329 66.456 31.7329H67.3119C67.2464 33.3887 66.8075 34.9495 66.0773 36.3345L65.3376 35.9072C65.1305 35.7872 64.8653 35.8578 64.7457 36.0658C64.6261 36.2734 64.6971 36.5381 64.9043 36.6577L65.6422 37.0837C64.7821 38.4396 63.6303 39.5914 62.2744 40.4516L61.8484 39.7136C61.7284 39.5056 61.4627 39.4345 61.2565 39.555C61.0489 39.6746 60.9778 39.9398 61.0979 40.1469L61.5251 40.8866C60.1597 41.6068 58.624 42.0445 56.9942 42.1195V41.2667C56.9942 41.027 56.8005 40.8333 56.5609 40.8333C56.3212 40.8333 56.1275 41.027 56.1275 41.2667V42.1229C55.4355 42.0991 54.7413 42.0124 54.0579 41.8556C53.8248 41.8014 53.5921 41.9479 53.5388 42.181C53.4851 42.4141 53.6311 42.6468 53.8642 42.7001C54.7292 42.8995 55.6127 43 56.4894 43C56.5106 43 56.531 42.9987 56.5522 42.9983C56.5552 42.9983 56.5574 43 56.56 43C56.5635 43 56.5665 42.9978 56.57 42.9978C58.653 42.9835 60.6073 42.4211 62.2982 41.4495C62.3116 41.4435 62.3259 41.4404 62.3389 41.4326C62.3476 41.4274 62.3524 41.4192 62.3606 41.4136C64.1108 40.3935 65.5733 38.9327 66.5956 37.1838C66.6038 37.1721 66.6142 37.163 66.6216 37.15C66.6268 37.1409 66.6263 37.1314 66.6307 37.1223C67.6204 35.4063 68.1894 33.419 68.1894 31.3C68.1894 29.181 67.6204 27.1937 66.6311 25.4777Z" fill="white"/>
<path d="M52.6603 22.6333H50.4936C50.0152 22.6333 49.627 23.0216 49.627 23.5C49.627 23.9784 50.0152 24.3666 50.4936 24.3666H52.6603C53.1387 24.3666 53.527 23.9784 53.527 23.5C53.527 23.0216 53.1387 22.6333 52.6603 22.6333Z" fill="white"/>
<path d="M52.66 25.6667H48.3266C47.8482 25.6667 47.46 26.055 47.46 26.5334C47.46 27.0118 47.8482 27.4001 48.3266 27.4001H52.66C53.1384 27.4001 53.5266 27.0118 53.5266 26.5334C53.5266 26.055 53.1384 25.6667 52.66 25.6667Z" fill="white"/>
<path d="M52.6601 28.7H46.1601C45.6817 28.7 45.2935 29.0882 45.2935 29.5666C45.2935 30.045 45.6817 30.4333 46.1601 30.4333H52.6601C53.1385 30.4333 53.5268 30.045 53.5268 29.5666C53.5268 29.0882 53.1385 28.7 52.6601 28.7Z" fill="white"/>
<path d="M52.6601 31.7334H44.4267C43.9483 31.7334 43.5601 32.1217 43.5601 32.6001C43.5601 33.0785 43.9483 33.4667 44.4267 33.4667H52.6601C53.1385 33.4667 53.5267 33.0785 53.5267 32.6001C53.5267 32.1217 53.1385 31.7334 52.6601 31.7334Z" fill="white"/>
<path d="M52.6602 34.7666H47.0268C46.5484 34.7666 46.1602 35.1549 46.1602 35.6333C46.1602 36.1117 46.5484 36.4999 47.0268 36.4999H52.6602C53.1386 36.4999 53.5268 36.1117 53.5268 35.6333C53.5268 35.1549 53.1386 34.7666 52.6602 34.7666Z" fill="white"/>
<path d="M52.6603 37.8H49.6269C49.1485 37.8 48.7603 38.1883 48.7603 38.6667C48.7603 39.1451 49.1485 39.5334 49.6269 39.5334H52.6603C53.1387 39.5334 53.5269 39.1451 53.5269 38.6667C53.5269 38.1883 53.1387 37.8 52.6603 37.8Z" fill="white"/>
<defs>
<filter id="filter0_ddd_127_17" x="0.518518" y="0" width="110.963" height="124" filterUnits="userSpaceOnUse" color-interpolation-filters="sRGB">
<feFlood flood-opacity="0" result="BackgroundImageFix"/>
<feColorMatrix in="SourceAlpha" type="matrix" values="0 0 0 0 0 0 0 0 0 0 0 0 0 0 0 0 0 0 127 0" result="hardAlpha"/>
<feOffset dy="8.14815"/>
<feGaussianBlur stdDeviation="3.25926"/>
<feColorMatrix type="matrix" values="0 0 0 0 0.4 0 0 0 0 0.2 0 0 0 0 0.94902 0 0 0 0.0274815 0"/>
<feBlend mode="normal" in2="BackgroundImageFix" result="effect1_dropShadow_127_17"/>
<feColorMatrix in="SourceAlpha" type="matrix" values="0 0 0 0 0 0 0 0 0 0 0 0 0 0 0 0 0 0 127 0" result="hardAlpha"/>
<feOffset dy="20"/>
<feGaussianBlur stdDeviation="6.5"/>
<feColorMatrix type="matrix" values="0 0 0 0 0.4 0 0 0 0 0.2 0 0 0 0 0.94902 0 0 0 0.035 0"/>
<feBlend mode="normal" in2="effect1_dropShadow_127_17" result="effect2_dropShadow_127_17"/>
<feColorMatrix in="SourceAlpha" type="matrix" values="0 0 0 0 0 0 0 0 0 0 0 0 0 0 0 0 0 0 127 0" result="hardAlpha"/>
<feOffset dy="38.5185"/>
<feGaussianBlur stdDeviation="12.7407"/>
<feColorMatrix type="matrix" values="0 0 0 0 0.4 0 0 0 0 0.2 0 0 0 0 0.94902 0 0 0 0.0425185 0"/>
<feBlend mode="normal" in2="effect2_dropShadow_127_17" result="effect3_dropShadow_127_17"/>
<feBlend mode="normal" in="SourceGraphic" in2="effect3_dropShadow_127_17" result="shape"/>
</filter>
</defs>
</svg>
