<svg width="112" height="124" viewBox="0 0 112 124" fill="none" xmlns="http://www.w3.org/2000/svg">
<g filter="url(#filter0_ddd_127_18)">
<rect x="26" width="60" height="60" rx="15" fill="#6633F2"/>
</g>
<g clip-path="url(#clip0_127_18)">
<path d="M54.1997 42.33C53.0597 42.33 52.1597 42.21 51.0797 41.94L49.9997 41.61C49.7297 41.52 49.5797 41.25 49.6697 40.98C49.7597 40.71 50.0297 40.56 50.2997 40.65L51.3497 40.95C52.3397 41.19 53.1497 41.28 54.1997 41.28C55.8797 41.28 57.5897 40.98 58.9097 40.5L68.1197 36.63C68.3297 36.51 68.6597 36.21 68.5097 35.91C68.3897 35.64 68.0597 35.49 67.7597 35.58L62.4497 36.72C62.1797 36.78 61.9097 36.6 61.8497 36.33C61.7897 36.06 61.9697 35.79 62.2397 35.73L67.5197 34.59C68.2997 34.41 69.1397 34.8 69.4397 35.52C69.7697 36.36 69.2297 37.17 68.5397 37.53L59.2997 41.46C57.8297 42 55.9697 42.33 54.1997 42.33Z" fill="white"/>
<path d="M48.1098 43.6799C48.0798 43.6799 48.0198 43.6799 47.9898 43.6499C47.8398 43.6199 47.7198 43.5299 47.6598 43.4099L42.9498 34.6199C42.8298 34.3799 42.8898 34.1099 43.0998 33.9599L45.1098 32.6099C45.2298 32.5199 45.3798 32.5199 45.4998 32.5499C45.6498 32.5799 45.7698 32.6699 45.8298 32.7899L50.5998 41.5799C50.7198 41.8199 50.6598 42.0899 50.4498 42.2399L48.4098 43.5899C48.3198 43.6499 48.2298 43.6799 48.1098 43.6799ZM44.0598 34.5599L48.2898 42.4499L49.4598 41.6699L45.2298 33.7799L44.0598 34.5599Z" fill="white"/>
<path d="M60.6198 38.28H54.1998C53.9298 38.28 53.6898 38.04 53.6898 37.77C53.6898 37.5 53.9298 37.26 54.1998 37.26H60.6198C61.2798 37.26 61.7898 36.72 61.7898 36.09C61.7898 35.46 61.2498 34.92 60.6198 34.92H56.2098C56.0898 34.92 55.9998 34.89 55.9098 34.83L55.3398 34.41C53.2398 32.82 50.3298 32.49 47.8998 33.54L46.2798 34.23C46.0398 34.35 45.7398 34.23 45.6198 33.96C45.4998 33.69 45.6198 33.39 45.8898 33.3L47.5098 32.61C50.2398 31.41 53.5698 31.83 55.9698 33.6L56.4198 33.93H60.6498C61.8498 33.93 62.8398 34.92 62.8398 36.12C62.8398 37.32 61.8198 38.28 60.6198 38.28Z" fill="white"/>
<path d="M59.6 32.8801C59.33 32.8801 59.09 32.6401 59.09 32.3701V29.13C59.09 28.59 58.64 28.1701 58.13 28.1701H57.26C56.42 28.1701 55.73 27.48 55.73 26.64V26.31C55.73 26.04 55.97 25.8 56.24 25.8C56.51 25.8 56.75 26.04 56.75 26.31V26.64C56.75 26.94 56.99 27.15 57.26 27.15H58.13C59.21 27.15 60.11 28.05 60.11 29.13V32.3701C60.11 32.6401 59.87 32.8801 59.6 32.8801Z" fill="white"/>
<path d="M48.8 30.84C48.53 30.84 48.29 30.6 48.29 30.33V29.1C48.29 28.02 49.19 27.12 50.27 27.12H51.2C51.47 27.12 51.68 26.91 51.68 26.64V26.28C51.68 26.01 51.92 25.77 52.19 25.77C52.46 25.77 52.7 26.01 52.7 26.28V26.64C52.7 27.45 52.04 28.11 51.2 28.11H50.27C49.73 28.11 49.31 28.56 49.31 29.07V30.3C49.31 30.63 49.07 30.84 48.8 30.84Z" fill="white"/>
<path d="M54.2896 26.79H54.1096C52.0096 26.79 50.3296 25.08 50.3296 23.01V19.71C50.3296 18.24 51.5296 17.01 53.0296 17.01H55.4296C56.8996 17.01 58.1296 18.21 58.1296 19.71V23.01C58.0696 25.11 56.3896 26.79 54.2896 26.79ZM52.9996 18.03C52.0696 18.03 51.3196 18.78 51.3196 19.71V23.01C51.3196 24.54 52.5796 25.8 54.1096 25.8H54.2896C55.8196 25.8 57.0796 24.54 57.0796 23.01V19.71C57.0796 18.78 56.3296 18.03 55.3996 18.03H52.9996Z" fill="white"/>
<path d="M52.8498 22.08H50.8098C50.5398 22.08 50.2998 21.84 50.2998 21.57C50.2998 21.3 50.5398 21.06 50.8098 21.06H52.3398V20.22C52.3398 19.95 52.5798 19.71 52.8498 19.71H57.5898C57.8598 19.71 58.0998 19.95 58.0998 20.22C58.0998 20.49 57.8598 20.73 57.5898 20.73H53.3598V21.57C53.3598 21.84 53.1198 22.08 52.8498 22.08Z" fill="white"/>
<path d="M54.14 29.3401C53.24 29.3401 52.4 28.8901 51.77 28.1101C51.59 27.9001 51.62 27.5701 51.86 27.3901C52.07 27.2101 52.4 27.2401 52.58 27.4801C53 28.0201 53.57 28.3201 54.14 28.3201C54.77 28.3201 55.37 27.9601 55.82 27.3301C55.97 27.0901 56.3 27.0301 56.51 27.2101C56.75 27.3601 56.81 27.6901 56.63 27.9001C56 28.8301 55.1 29.3401 54.14 29.3401Z" fill="white"/>
<path d="M68.3597 33.5399C68.0897 33.5399 67.8497 33.2999 67.8497 33.0299V31.1399C67.8497 30.5999 67.3997 30.1799 66.8897 30.1799H65.9597C65.1497 30.1799 64.4897 29.5199 64.4897 28.7099V27.6599C64.4897 27.3899 64.7297 27.1499 64.9997 27.1499C65.2697 27.1499 65.5097 27.3899 65.5097 27.6599V28.7099C65.5097 28.9799 65.7197 29.1899 65.9897 29.1899H66.9197C67.9997 29.1899 68.8997 30.0899 68.8997 31.1699V33.0599C68.8697 33.3299 68.6597 33.5399 68.3597 33.5399Z" fill="white"/>
<path d="M60.6498 30.1801H59.5998C59.3298 30.1801 59.0898 29.9401 59.0898 29.6701C59.0898 29.4001 59.3298 29.1601 59.5998 29.1601H60.6498C60.9198 29.1601 61.1298 28.9501 61.1298 28.6801V27.6301C61.1298 27.3601 61.3698 27.1201 61.6398 27.1201C61.9098 27.1201 62.1498 27.3601 62.1498 27.6301V28.6801C62.1198 29.4901 61.4598 30.1801 60.6498 30.1801Z" fill="white"/>
<path d="M63.3198 28.44C61.3698 28.44 59.7798 26.85 59.7798 24.9V21.57C59.7798 20.19 60.9198 19.05 62.2998 19.05H64.3398C65.7198 19.05 66.8598 20.19 66.8598 21.57V24.9C66.8598 26.85 65.2698 28.44 63.3198 28.44ZM62.2998 20.04C61.4598 20.04 60.7998 20.73 60.7998 21.54V24.9C60.7998 26.31 61.9398 27.42 63.3198 27.42C64.6998 27.42 65.8398 26.28 65.8398 24.9V21.57C65.8398 20.73 65.1498 20.07 64.3398 20.07H62.2998V20.04Z" fill="white"/>
<path d="M63.17 31.4401C62.36 31.4401 61.58 30.9901 61.01 30.1501C60.86 29.9101 60.92 29.6101 61.16 29.4601C61.4 29.3101 61.7 29.3701 61.85 29.6101C62.21 30.1501 62.69 30.4501 63.17 30.4501C63.68 30.4501 64.19 30.0901 64.58 29.4301C64.73 29.1901 65.03 29.1001 65.27 29.2501C65.51 29.4001 65.6 29.7001 65.45 29.9401C64.88 30.8701 64.04 31.4401 63.17 31.4401Z" fill="white"/>
<path d="M66.35 24.09H62.96C62.69 24.09 62.45 23.85 62.45 23.58V22.74H60.26C59.99 22.74 59.75 22.5 59.75 22.23C59.75 21.96 59.99 21.72 60.26 21.72H62.96C63.23 21.72 63.47 21.96 63.47 22.23V23.07H66.35C66.62 23.07 66.86 23.31 66.86 23.58C66.86 23.85 66.62 24.09 66.35 24.09Z" fill="white"/>
</g>
<defs>
<filter id="filter0_ddd_127_18" x="0.518518" y="0" width="110.963" height="124" filterUnits="userSpaceOnUse" color-interpolation-filters="sRGB">
<feFlood flood-opacity="0" result="BackgroundImageFix"/>
<feColorMatrix in="SourceAlpha" type="matrix" values="0 0 0 0 0 0 0 0 0 0 0 0 0 0 0 0 0 0 127 0" result="hardAlpha"/>
<feOffset dy="8.14815"/>
<feGaussianBlur stdDeviation="3.25926"/>
<feColorMatrix type="matrix" values="0 0 0 0 0.4 0 0 0 0 0.2 0 0 0 0 0.94902 0 0 0 0.0274815 0"/>
<feBlend mode="normal" in2="BackgroundImageFix" result="effect1_dropShadow_127_18"/>
<feColorMatrix in="SourceAlpha" type="matrix" values="0 0 0 0 0 0 0 0 0 0 0 0 0 0 0 0 0 0 127 0" result="hardAlpha"/>
<feOffset dy="20"/>
<feGaussianBlur stdDeviation="6.5"/>
<feColorMatrix type="matrix" values="0 0 0 0 0.4 0 0 0 0 0.2 0 0 0 0 0.94902 0 0 0 0.035 0"/>
<feBlend mode="normal" in2="effect1_dropShadow_127_18" result="effect2_dropShadow_127_18"/>
<feColorMatrix in="SourceAlpha" type="matrix" values="0 0 0 0 0 0 0 0 0 0 0 0 0 0 0 0 0 0 127 0" result="hardAlpha"/>
<feOffset dy="38.5185"/>
<feGaussianBlur stdDeviation="12.7407"/>
<feColorMatrix type="matrix" values="0 0 0 0 0.4 0 0 0 0 0.2 0 0 0 0 0.94902 0 0 0 0.0425185 0"/>
<feBlend mode="normal" in2="effect2_dropShadow_127_18" result="effect3_dropShadow_127_18"/>
<feBlend mode="normal" in="SourceGraphic" in2="effect3_dropShadow_127_18" result="shape"/>
</filter>
<clipPath id="clip0_127_18">
<rect width="30" height="30" fill="white" transform="translate(41 15)"/>
</clipPath>
</defs>
</svg>
