<svg width="112" height="124" viewBox="0 0 112 124" fill="none" xmlns="http://www.w3.org/2000/svg">
<g filter="url(#filter0_ddd_127_22)">
<rect x="26" width="60" height="60" rx="15" fill="#6633F2"/>
</g>
<path d="M64.3196 17H47.6802C46.2459 17 45.0796 18.1662 45.0796 19.5998V40.4007C45.0796 41.8338 46.2458 42.9999 47.6802 42.9999H64.3196C65.7536 42.9999 66.9198 41.8338 66.9198 40.4007V19.6006C66.9205 18.1669 65.7545 17 64.3196 17ZM65.8804 40.4007C65.8804 41.2612 65.1803 41.9608 64.3196 41.9608H47.6802C46.8198 41.9608 46.1202 41.2612 46.1202 40.4007V19.6006C46.1202 18.7403 46.8198 18.0406 47.6802 18.0406H64.3196C65.1796 18.0406 65.8792 18.7403 65.8792 19.6006V40.4008H65.8804V40.4007Z" fill="white"/>
<path d="M61.4832 28.368H50.5176C50.2536 28.368 50.0405 28.582 50.0405 28.8459C50.0405 29.1097 50.2536 29.3238 50.5176 29.3238H61.483C61.7473 29.3238 61.9604 29.1099 61.9604 28.8459C61.9605 28.5822 61.7473 28.368 61.4832 28.368Z" fill="white"/>
<path d="M61.4832 30.5458H50.5176C50.2536 30.5458 50.0405 30.7602 50.0405 31.0241C50.0405 31.288 50.2536 31.5014 50.5176 31.5014H61.483C61.7473 31.5014 61.9604 31.288 61.9604 31.0241C61.9598 30.7588 61.7473 30.5458 61.4832 30.5458Z" fill="white"/>
<path d="M61.4832 32.7227H50.5176C50.2536 32.7227 50.0405 32.9371 50.0405 33.2007C50.0405 33.4646 50.2536 33.6783 50.5176 33.6783H61.483C61.7473 33.6783 61.9604 33.4646 61.9604 33.2007C61.9605 32.9371 61.7473 32.7227 61.4832 32.7227Z" fill="white"/>
<path d="M61.4833 34.9003H56.0001C55.7366 34.9003 55.5225 35.1138 55.5225 35.3777C55.5225 35.6417 55.7366 35.8561 56.0001 35.8561H61.4832C61.7474 35.8561 61.9598 35.6417 61.9598 35.3777C61.9598 35.1138 61.7474 34.9003 61.4833 34.9003Z" fill="white"/>
<path d="M61.4834 39.2007H57.6448C57.38 39.2007 57.1675 39.4144 57.1675 39.6783C57.1675 39.9419 57.38 40.1556 57.6448 40.1556H61.4834C61.7476 40.1556 61.96 39.9419 61.96 39.6783C61.96 39.4144 61.7474 39.2007 61.4834 39.2007Z" fill="white"/>
<path d="M56.5327 26.2686C56.5327 25.3647 55.4921 24.1456 54.0874 23.7894C54.6742 23.3947 55.0786 22.6153 55.0786 21.9133C55.0786 20.9234 54.2769 20.12 53.2861 20.12C52.2965 20.12 51.4936 20.9234 51.4936 21.9133C51.4936 22.6146 51.8981 23.394 52.4836 23.7894C51.0809 24.1454 50.0396 25.3654 50.0396 26.2686C50.0407 27.3366 56.5327 27.3366 56.5327 26.2686ZM53.1416 24.3096H53.1334L52.8366 23.9688C52.9817 24.0201 53.1297 24.0516 53.2863 24.0516C53.4431 24.0516 53.5912 24.021 53.736 23.9695L53.4384 24.3095H53.4314L54.1973 26.1601L53.2863 27.0688L52.3762 26.1601L53.1416 24.3096Z" fill="white"/>
<defs>
<filter id="filter0_ddd_127_22" x="0.518518" y="0" width="110.963" height="124" filterUnits="userSpaceOnUse" color-interpolation-filters="sRGB">
<feFlood flood-opacity="0" result="BackgroundImageFix"/>
<feColorMatrix in="SourceAlpha" type="matrix" values="0 0 0 0 0 0 0 0 0 0 0 0 0 0 0 0 0 0 127 0" result="hardAlpha"/>
<feOffset dy="8.14815"/>
<feGaussianBlur stdDeviation="3.25926"/>
<feColorMatrix type="matrix" values="0 0 0 0 0.4 0 0 0 0 0.2 0 0 0 0 0.94902 0 0 0 0.0274815 0"/>
<feBlend mode="normal" in2="BackgroundImageFix" result="effect1_dropShadow_127_22"/>
<feColorMatrix in="SourceAlpha" type="matrix" values="0 0 0 0 0 0 0 0 0 0 0 0 0 0 0 0 0 0 127 0" result="hardAlpha"/>
<feOffset dy="20"/>
<feGaussianBlur stdDeviation="6.5"/>
<feColorMatrix type="matrix" values="0 0 0 0 0.4 0 0 0 0 0.2 0 0 0 0 0.94902 0 0 0 0.035 0"/>
<feBlend mode="normal" in2="effect1_dropShadow_127_22" result="effect2_dropShadow_127_22"/>
<feColorMatrix in="SourceAlpha" type="matrix" values="0 0 0 0 0 0 0 0 0 0 0 0 0 0 0 0 0 0 127 0" result="hardAlpha"/>
<feOffset dy="38.5185"/>
<feGaussianBlur stdDeviation="12.7407"/>
<feColorMatrix type="matrix" values="0 0 0 0 0.4 0 0 0 0 0.2 0 0 0 0 0.94902 0 0 0 0.0425185 0"/>
<feBlend mode="normal" in2="effect2_dropShadow_127_22" result="effect3_dropShadow_127_22"/>
<feBlend mode="normal" in="SourceGraphic" in2="effect3_dropShadow_127_22" result="shape"/>
</filter>
</defs>
</svg>
