<svg width="112" height="124" viewBox="0 0 112 124" fill="none" xmlns="http://www.w3.org/2000/svg">
<g filter="url(#filter0_ddd_127_19)">
<rect x="26" width="60" height="60" rx="15" fill="#6633F2"/>
</g>
<path d="M66.8381 25.9646C60.8935 20.02 51.2213 20.02 45.2767 25.9646L41.3066 29.9351L45.1622 33.7907C48.0418 36.6702 51.8703 38.2563 55.9429 38.2563C60.0155 38.2563 63.8435 36.6707 66.7231 33.7907L70.6936 29.8201L66.8381 25.9646ZM66.0161 33.0837C63.3255 35.7742 59.7479 37.2562 55.9429 37.2562C52.1378 37.2562 48.5603 35.7747 45.8697 33.0837L42.7207 29.9351L45.9842 26.6716C51.5388 21.1175 60.5775 21.1175 66.1311 26.6716L69.2796 29.8201L66.0161 33.0837Z" fill="white"/>
<path d="M55.8353 23.4846C52.3028 23.4846 49.4287 26.3587 49.4287 29.8912C49.4287 33.4238 52.3028 36.2978 55.8353 36.2978C59.3679 36.2978 62.2419 33.4238 62.2419 29.8912C62.2419 26.3587 59.3679 23.4846 55.8353 23.4846ZM55.8353 35.2973C52.8543 35.2973 50.4287 32.8718 50.4287 29.8907C50.4287 26.9097 52.8543 24.4841 55.8353 24.4841C58.8164 24.4841 61.2419 26.9097 61.2419 29.8907C61.2419 32.8723 58.8164 35.2973 55.8353 35.2973Z" fill="white"/>
<path d="M53.9288 17.9994C54.0568 17.9994 54.1848 17.9504 54.2823 17.8529L55.4289 16.7064V20.4995C55.4289 20.7755 55.6529 20.9995 55.9289 20.9995C56.2049 20.9995 56.4289 20.7755 56.4289 20.4995V16.7064L57.5754 17.8529C57.6729 17.9504 57.8009 17.9994 57.9289 17.9994C58.0569 17.9994 58.1849 17.9504 58.2824 17.8529C58.4779 17.6574 58.4779 17.3414 58.2824 17.1459L56.2824 15.1459C56.2364 15.0999 56.1809 15.0634 56.1199 15.0379C55.9974 14.9874 55.8599 14.9874 55.7379 15.0379C55.6769 15.0634 55.6214 15.0999 55.5754 15.1459L53.5753 17.1459C53.3798 17.3414 53.3798 17.6574 53.5753 17.8529C53.6728 17.9504 53.8008 17.9994 53.9288 17.9994Z" fill="white"/>
<path d="M57.5754 42.1463L56.4289 43.2928V39.4998C56.4289 39.2238 56.2049 38.9998 55.9289 38.9998C55.6529 38.9998 55.4289 39.2238 55.4289 39.4998V43.2928L54.2823 42.1463C54.0868 41.9508 53.7708 41.9508 53.5753 42.1463C53.3798 42.3418 53.3798 42.6578 53.5753 42.8533L55.5754 44.8534C55.6214 44.8994 55.6769 44.9359 55.7379 44.9614C55.7989 44.9869 55.8639 44.9999 55.9289 44.9999C55.9939 44.9999 56.0589 44.9864 56.1199 44.9614C56.1809 44.9359 56.2364 44.8994 56.2824 44.8534L58.2824 42.8533C58.4779 42.6578 58.4779 42.3418 58.2824 42.1463C58.0869 41.9508 57.7704 41.9508 57.5754 42.1463Z" fill="white"/>
<defs>
<filter id="filter0_ddd_127_19" x="0.518518" y="0" width="110.963" height="124" filterUnits="userSpaceOnUse" color-interpolation-filters="sRGB">
<feFlood flood-opacity="0" result="BackgroundImageFix"/>
<feColorMatrix in="SourceAlpha" type="matrix" values="0 0 0 0 0 0 0 0 0 0 0 0 0 0 0 0 0 0 127 0" result="hardAlpha"/>
<feOffset dy="8.14815"/>
<feGaussianBlur stdDeviation="3.25926"/>
<feColorMatrix type="matrix" values="0 0 0 0 0.4 0 0 0 0 0.2 0 0 0 0 0.94902 0 0 0 0.0274815 0"/>
<feBlend mode="normal" in2="BackgroundImageFix" result="effect1_dropShadow_127_19"/>
<feColorMatrix in="SourceAlpha" type="matrix" values="0 0 0 0 0 0 0 0 0 0 0 0 0 0 0 0 0 0 127 0" result="hardAlpha"/>
<feOffset dy="20"/>
<feGaussianBlur stdDeviation="6.5"/>
<feColorMatrix type="matrix" values="0 0 0 0 0.4 0 0 0 0 0.2 0 0 0 0 0.94902 0 0 0 0.035 0"/>
<feBlend mode="normal" in2="effect1_dropShadow_127_19" result="effect2_dropShadow_127_19"/>
<feColorMatrix in="SourceAlpha" type="matrix" values="0 0 0 0 0 0 0 0 0 0 0 0 0 0 0 0 0 0 127 0" result="hardAlpha"/>
<feOffset dy="38.5185"/>
<feGaussianBlur stdDeviation="12.7407"/>
<feColorMatrix type="matrix" values="0 0 0 0 0.4 0 0 0 0 0.2 0 0 0 0 0.94902 0 0 0 0.0425185 0"/>
<feBlend mode="normal" in2="effect2_dropShadow_127_19" result="effect3_dropShadow_127_19"/>
<feBlend mode="normal" in="SourceGraphic" in2="effect3_dropShadow_127_19" result="shape"/>
</filter>
</defs>
</svg>
