<svg width="112" height="124" viewBox="0 0 112 124" fill="none" xmlns="http://www.w3.org/2000/svg">
<g filter="url(#filter0_ddd_127_20)">
<rect x="26" width="60" height="60" rx="15" fill="#6633F2"/>
</g>
<path d="M70.5213 16.4363H41.4787C41.2143 16.4363 41 16.6506 41 16.915V43.0852C41 43.3497 41.2143 43.5639 41.4787 43.5639H70.5213C70.7857 43.5639 71 43.3497 71 43.0852V16.915C71 16.6506 70.7857 16.4363 70.5213 16.4363ZM70.0426 42.6065H41.9574V17.3937H59.6702V20.2661H43.3936C43.1292 20.2661 42.9149 20.4803 42.9149 20.7448C42.9149 21.0092 43.1292 21.2235 43.3936 21.2235H68.6064C68.8708 21.2235 69.0851 21.0092 69.0851 20.7448C69.0851 20.4803 68.8708 20.2661 68.6064 20.2661H60.6277V17.3937H70.0426V42.6065Z" fill="white"/>
<path d="M65.3513 19.3085C65.6157 19.3085 65.83 19.0942 65.83 18.8298C65.83 18.5654 65.6157 18.3511 65.3513 18.3511C65.0869 18.3511 64.8726 18.5654 64.8726 18.8298C64.8726 19.0942 65.0869 19.3085 65.3513 19.3085Z" fill="white"/>
<path d="M62.7341 19.3085C62.9985 19.3085 63.2128 19.0942 63.2128 18.8298C63.2128 18.5654 62.9985 18.3511 62.7341 18.3511C62.4697 18.3511 62.2554 18.5654 62.2554 18.8298C62.2554 19.0942 62.4697 19.3085 62.7341 19.3085Z" fill="white"/>
<path d="M67.968 19.3085C68.2324 19.3085 68.4467 19.0942 68.4467 18.8298C68.4467 18.5654 68.2324 18.3511 67.968 18.3511C67.7036 18.3511 67.4893 18.5654 67.4893 18.8298C67.4893 19.0942 67.7036 19.3085 67.968 19.3085Z" fill="white"/>
<path d="M56.0001 28.1921C54.044 28.1921 52.4526 29.7835 52.4526 31.7396C52.4526 33.6957 54.044 35.2871 56.0001 35.2871C56.5628 35.2871 57.1243 35.1509 57.6237 34.8934C57.8587 34.7723 57.9509 34.4835 57.8298 34.2485C57.7086 34.0135 57.4199 33.9214 57.1849 34.0424C56.8153 34.2329 56.4168 34.3296 56.0001 34.3296C54.572 34.3296 53.4101 33.1677 53.4101 31.7395C53.4101 30.3114 54.572 29.1495 56.0001 29.1495C57.4282 29.1495 58.5901 30.3114 58.5901 31.7395C58.5901 32.1562 58.4935 32.5548 58.303 32.9242C58.1819 33.1592 58.2741 33.4479 58.5091 33.5692C58.744 33.6901 59.0327 33.5982 59.1541 33.3631C59.4116 32.8638 59.5476 32.3025 59.5476 31.7395C59.5476 29.7835 57.9562 28.1921 56.0001 28.1921Z" fill="white"/>
<path d="M63.8565 29.9844H61.8431C61.725 29.5918 61.5672 29.2124 61.3716 28.8503L62.7965 27.4254C62.8863 27.3356 62.9367 27.2139 62.9367 27.0869C62.9367 26.9599 62.8863 26.8382 62.7965 26.7483L60.9912 24.943C60.8042 24.7561 60.5011 24.7561 60.3141 24.943L58.8893 26.3679C58.5272 26.1723 58.1478 26.0146 57.7552 25.8964V23.883C57.7552 23.6186 57.5409 23.4043 57.2765 23.4043H54.7233C54.4588 23.4043 54.2446 23.6186 54.2446 23.883V25.8964C53.852 26.0146 53.4725 26.1723 53.1105 26.3679L51.6856 24.943C51.4986 24.7561 51.1955 24.7561 51.0086 24.943L49.2032 26.7483C49.1135 26.8382 49.0631 26.9599 49.0631 27.0869C49.0631 27.2139 49.1135 27.3356 49.2032 27.4254L50.6282 28.8503C50.4326 29.2124 50.2748 29.5918 50.1567 29.9844H48.1433C47.8788 29.9844 47.6646 30.1987 47.6646 30.4631V33.0163C47.6646 33.2808 47.8788 33.495 48.1433 33.495H50.1567C50.2749 33.8877 50.4325 34.2671 50.6282 34.6291L49.2033 36.0539C49.1135 36.1437 49.0631 36.2654 49.0631 36.3925C49.0631 36.5195 49.1135 36.6411 49.2032 36.731L51.0086 38.5364C51.1955 38.7232 51.4987 38.7233 51.6856 38.5364L53.1105 37.1115C53.4725 37.3071 53.8519 37.4649 54.2446 37.583V39.5963C54.2446 39.8608 54.4588 40.0751 54.7233 40.0751H57.2765C57.5409 40.0751 57.7552 39.8608 57.7552 39.5963V37.583C58.1478 37.4649 58.5272 37.3071 58.8893 37.1115L60.3142 38.5364C60.5011 38.7233 60.8042 38.7233 60.9912 38.5364L62.7965 36.731C62.8863 36.6412 62.9367 36.5195 62.9367 36.3925C62.9367 36.2654 62.8863 36.1438 62.7965 36.0539L61.3716 34.6291C61.5672 34.2671 61.7249 33.8877 61.843 33.495H63.8565C64.1209 33.495 64.3352 33.2808 64.3352 33.0163V30.4631C64.3352 30.1987 64.1209 29.9844 63.8565 29.9844ZM63.3778 32.5376H61.4755C61.253 32.5376 61.0598 32.6909 61.0092 32.9077C60.8819 33.4542 60.6656 33.9744 60.3665 34.4538C60.2486 34.6428 60.2767 34.8882 60.4343 35.0457L61.7811 36.3925L60.6527 37.5208L59.3058 36.174C59.1483 36.0166 58.903 35.9885 58.714 36.1064C58.2346 36.4055 57.7143 36.6217 57.1678 36.7491C56.9511 36.7996 56.7978 36.9928 56.7978 37.2154V39.1175H55.202V37.2154C55.202 36.9928 55.0487 36.7996 54.8319 36.7491C54.2854 36.6217 53.7652 36.4055 53.2858 36.1064C53.0967 35.9885 52.8513 36.0166 52.6939 36.174L51.3471 37.5208L50.2187 36.3925L51.5655 35.0457C51.7231 34.8881 51.7511 34.6428 51.6332 34.4538C51.3341 33.9745 51.1179 33.4544 50.9905 32.9077C50.94 32.6909 50.7468 32.5376 50.5242 32.5376H48.622V30.9418H50.5242C50.7468 30.9418 50.94 30.7885 50.9905 30.5718C51.1179 30.0252 51.3341 29.505 51.6332 29.0256C51.7512 28.8366 51.7231 28.5912 51.5656 28.4337L50.2187 27.0869L51.3471 25.9585L52.6939 27.3054C52.8514 27.4629 53.0968 27.491 53.2858 27.373C53.7652 27.0739 54.2854 26.8577 54.8319 26.7303C55.0487 26.6798 55.202 26.4866 55.202 26.2641V24.3618H56.7978V26.2641C56.7978 26.4866 56.9511 26.6798 57.1678 26.7303C57.7143 26.8577 58.2346 27.0739 58.714 27.373C58.903 27.491 59.1485 27.4627 59.3059 27.3054L60.6527 25.9585L61.7811 27.0869L60.4342 28.4337C60.2767 28.5913 60.2486 28.8367 60.3665 29.0256C60.6657 29.505 60.8819 30.0252 61.0092 30.5718C61.0598 30.7885 61.2529 30.9418 61.4755 30.9418H63.3778V32.5376Z" fill="white"/>
<defs>
<filter id="filter0_ddd_127_20" x="0.518518" y="0" width="110.963" height="124" filterUnits="userSpaceOnUse" color-interpolation-filters="sRGB">
<feFlood flood-opacity="0" result="BackgroundImageFix"/>
<feColorMatrix in="SourceAlpha" type="matrix" values="0 0 0 0 0 0 0 0 0 0 0 0 0 0 0 0 0 0 127 0" result="hardAlpha"/>
<feOffset dy="8.14815"/>
<feGaussianBlur stdDeviation="3.25926"/>
<feColorMatrix type="matrix" values="0 0 0 0 0.4 0 0 0 0 0.2 0 0 0 0 0.94902 0 0 0 0.0274815 0"/>
<feBlend mode="normal" in2="BackgroundImageFix" result="effect1_dropShadow_127_20"/>
<feColorMatrix in="SourceAlpha" type="matrix" values="0 0 0 0 0 0 0 0 0 0 0 0 0 0 0 0 0 0 127 0" result="hardAlpha"/>
<feOffset dy="20"/>
<feGaussianBlur stdDeviation="6.5"/>
<feColorMatrix type="matrix" values="0 0 0 0 0.4 0 0 0 0 0.2 0 0 0 0 0.94902 0 0 0 0.035 0"/>
<feBlend mode="normal" in2="effect1_dropShadow_127_20" result="effect2_dropShadow_127_20"/>
<feColorMatrix in="SourceAlpha" type="matrix" values="0 0 0 0 0 0 0 0 0 0 0 0 0 0 0 0 0 0 127 0" result="hardAlpha"/>
<feOffset dy="38.5185"/>
<feGaussianBlur stdDeviation="12.7407"/>
<feColorMatrix type="matrix" values="0 0 0 0 0.4 0 0 0 0 0.2 0 0 0 0 0.94902 0 0 0 0.0425185 0"/>
<feBlend mode="normal" in2="effect2_dropShadow_127_20" result="effect3_dropShadow_127_20"/>
<feBlend mode="normal" in="SourceGraphic" in2="effect3_dropShadow_127_20" result="shape"/>
</filter>
</defs>
</svg>
