<svg width="122" height="213" viewBox="0 0 122 213" fill="none" xmlns="http://www.w3.org/2000/svg">
<path opacity="0.05" d="M37.625 146.281V137.422C37.625 130.484 38.4219 124.438 40.0156 119.281C41.6094 114.125 44.2812 109.297 48.0312 104.797C51.7812 100.203 56.8438 95.4219 63.2188 90.4531C69.7812 85.2969 74.9844 80.8438 78.8281 77.0938C82.7656 73.3438 85.5781 69.5938 87.2656 65.8438C89.0469 62 89.9375 57.5469 89.9375 52.4844C89.9375 44.5156 87.2188 38.4688 81.7812 34.3438C76.4375 30.125 68.8906 28.0156 59.1406 28.0156C50.5156 28.0156 42.4062 29.2344 34.8125 31.6719C27.2188 34.1094 19.7188 37.1562 12.3125 40.8125L0.640625 16.0625C9.17188 11.375 18.4062 7.625 28.3438 4.8125C38.375 1.90625 49.3906 0.453125 61.3906 0.453125C80.5156 0.453125 95.2812 5.09375 105.688 14.375C116.188 23.6562 121.438 35.8906 121.438 51.0781C121.438 59.4219 120.125 66.5938 117.5 72.5938C114.875 78.5 110.984 83.9844 105.828 89.0469C100.766 94.0156 94.625 99.2656 87.4062 104.797C81.5 109.484 76.9531 113.562 73.7656 117.031C70.6719 120.406 68.5156 123.828 67.2969 127.297C66.1719 130.766 65.6094 134.938 65.6094 139.812V146.281H37.625ZM32.2812 191.562C32.2812 183.875 34.25 178.484 38.1875 175.391C42.2188 172.203 47.1406 170.609 52.9531 170.609C58.5781 170.609 63.4062 172.203 67.4375 175.391C71.4688 178.484 73.4844 183.875 73.4844 191.562C73.4844 199.062 71.4688 204.5 67.4375 207.875C63.4062 211.156 58.5781 212.797 52.9531 212.797C47.1406 212.797 42.2188 211.156 38.1875 207.875C34.25 204.5 32.2812 199.062 32.2812 191.562Z" fill="#140047"/>
</svg>
